g Brow
v 0.02108584 1.423637 0.1183291
v 0.01776954 1.424249 0.1194045
v 0.02114288 1.425022 0.1185178
v 0.02418831 1.423039 0.1172815
v 0.0242763 1.425395 0.117642
v 0.02799824 1.422414 0.1159599
v 0.027922 1.425344 0.1164425
v 0.03206175 1.421751 0.1143655
v 0.03213986 1.424979 0.1149325
v 0.03626725 1.424381 0.1132459
v 0.0363124 1.420952 0.1125737
v 0.04069276 1.420116 0.1105939
v 0.04061461 1.423493 0.111311
v 0.04497209 1.419109 0.1085443
v 0.04495624 1.42236 0.1091686
v 0.04927184 1.420865 0.1068176
v 0.0490564 1.418067 0.1063188
v 0.05332826 1.419355 0.1042646
v 0.0530739 1.416899 0.1039363
v 0.05722899 1.417752 0.1016143
v 0.05692324 1.415721 0.1015122
v 0.06109369 1.416017 0.09876377
v 0.06079109 1.414404 0.09876329
v 0.06413378 1.413198 0.09609488
v 0.06433658 1.414429 0.09604856
v 0.06695595 1.412955 0.09354578
v 0.06677902 1.412204 0.09373451
v 0.07012898 1.410944 0.09033497
v -0.02108584 1.423637 0.1183291
v -0.02114288 1.425022 0.1185178
v -0.01776954 1.424249 0.1194045
v -0.02418831 1.423039 0.1172815
v -0.0242763 1.425395 0.117642
v -0.02799824 1.422414 0.1159599
v -0.027922 1.425344 0.1164425
v -0.03206175 1.421751 0.1143655
v -0.03213986 1.424979 0.1149325
v -0.03626725 1.424381 0.1132459
v -0.0363124 1.420952 0.1125737
v -0.04069276 1.420116 0.1105939
v -0.04061461 1.423493 0.111311
v -0.04497209 1.419109 0.1085443
v -0.04495624 1.42236 0.1091686
v -0.04927184 1.420865 0.1068176
v -0.0490564 1.418067 0.1063188
v -0.05332826 1.419355 0.1042646
v -0.0530739 1.416899 0.1039363
v -0.05722899 1.417752 0.1016143
v -0.05692324 1.415721 0.1015122
v -0.06109369 1.416017 0.09876377
v -0.06079109 1.414404 0.09876329
v -0.06413378 1.413198 0.09609488
v -0.06433658 1.414429 0.09604856
v -0.06695595 1.412955 0.09354578
v -0.06677902 1.412204 0.09373451
v -0.07012898 1.410944 0.09033497
vt 0.3016535 0.9791602
vt 0.2917921 0.9782786
vt 0.3004431 0.9826087
vt 0.3102301 0.9800771
vt 0.3077981 0.986029
vt 0.3222113 0.9813952
vt 0.3191732 0.9892032
vt 0.3354002 0.9826109
vt 0.3316875 0.9914336
vt 0.3451611 0.9930823
vt 0.3493053 0.9837972
vt 0.3612101 0.9846634
vt 0.3589258 0.993895
vt 0.3744744 0.9850601
vt 0.3726324 0.9936746
vt 0.3867817 0.9927596
vt 0.3875949 0.9850301
vt 0.3999261 0.9913526
vt 0.4001897 0.9847117
vt 0.4134818 0.9897439
vt 0.4136601 0.9840602
vt 0.4277168 0.9875755
vt 0.4281653 0.9830281
vt 0.43957 0.9817726
vt 0.4392184 0.9853376
vt 0.4499828 0.9830234
vt 0.450342 0.9804276
vt 0.4645625 0.9789809
vt 0.3016535 0.9791602
vt 0.3004431 0.9826087
vt 0.2917921 0.9782786
vt 0.3102301 0.9800771
vt 0.3077981 0.986029
vt 0.3222113 0.9813952
vt 0.3191732 0.9892032
vt 0.3354002 0.9826109
vt 0.3316875 0.9914336
vt 0.3451611 0.9930823
vt 0.3493053 0.9837972
vt 0.3612101 0.9846634
vt 0.3589258 0.993895
vt 0.3744744 0.9850601
vt 0.3726324 0.9936746
vt 0.3867817 0.9927596
vt 0.3875949 0.9850301
vt 0.3999261 0.9913526
vt 0.4001897 0.9847117
vt 0.4134818 0.9897439
vt 0.4136601 0.9840602
vt 0.4277168 0.9875755
vt 0.4281653 0.9830281
vt 0.43957 0.9817726
vt 0.4392184 0.9853376
vt 0.4499828 0.9830234
vt 0.450342 0.9804276
vt 0.4645625 0.9789809
vn 0.285309 -0.1478413 0.9469644
vn 0.2817093 -0.140909 0.9490967
vn 0.2853044 -0.1478323 0.9469672
vn 0.2986659 -0.1504713 0.9424209
vn 0.2979593 -0.1504458 0.9426486
vn 0.3202342 -0.1558221 0.9344354
vn 0.3174811 -0.1549301 0.9355226
vn 0.3432249 -0.1670913 0.9242711
vn 0.3406052 -0.1655266 0.925521
vn 0.3617371 -0.1756213 0.9155892
vn 0.3649588 -0.1766166 0.9141179
vn 0.3856321 -0.1778196 0.9053552
vn 0.3814482 -0.1782439 0.9070426
vn 0.4141802 -0.1779017 0.8926398
vn 0.4070626 -0.177548 0.895978
vn 0.4436767 -0.178447 0.8782413
vn 0.4510153 -0.1783596 0.874513
vn 0.48267 -0.1659402 0.859938
vn 0.4886085 -0.1603835 0.8576356
vn 0.5235112 -0.1334746 0.841499
vn 0.5295561 -0.1297396 0.8382946
vn 0.5712498 -0.1083087 0.8135986
vn 0.5766549 -0.1062443 0.8100501
vn 0.6320534 -0.07223034 0.7715511
vn 0.6255231 -0.07792738 0.7763042
vn 0.6829515 -0.02466136 0.7300474
vn 0.683038 -0.02457294 0.7299694
vn 0.7137871 0.007873951 0.7003185
vn -0.2853014 -0.1478382 0.9469672
vn -0.2852967 -0.1478292 0.94697
vn -0.2817048 -0.1409066 0.9490984
vn -0.2986633 -0.15047 0.942422
vn -0.2979563 -0.1504444 0.9426497
vn -0.3202344 -0.1558217 0.9344354
vn -0.3174812 -0.1549297 0.9355227
vn -0.343223 -0.1670901 0.9242721
vn -0.3406037 -0.1655256 0.9255217
vn -0.3617336 -0.1756195 0.9155908
vn -0.3649554 -0.1766148 0.9141196
vn -0.3856326 -0.1778202 0.9053549
vn -0.3814475 -0.1782437 0.907043
vn -0.4141831 -0.1779033 0.892638
vn -0.4070656 -0.1775499 0.8959763
vn -0.4436771 -0.1784475 0.8782409
vn -0.4510146 -0.1783598 0.8745133
vn -0.4826687 -0.1659405 0.8599387
vn -0.4886082 -0.1603842 0.8576356
vn -0.523514 -0.1334757 0.8414971
vn -0.5295588 -0.1297404 0.8382928
vn -0.5712501 -0.1083087 0.8135985
vn -0.5766546 -0.1062443 0.8100504
vn -0.6320499 -0.07223085 0.7715541
vn -0.6255194 -0.07792778 0.776307
vn -0.6829454 -0.024662 0.7300531
vn -0.6830319 -0.02457359 0.729975
vn -0.713775 0.007873816 0.7003309
g Brow_0
f 3/3/3 2/2/2 1/1/1
f 3/3/3 1/1/1 4/4/4
f 5/5/5 3/3/3 4/4/4
f 5/5/5 4/4/4 6/6/6
f 7/7/7 5/5/5 6/6/6
f 7/7/7 6/6/6 8/8/8
f 9/9/9 7/7/7 8/8/8
f 9/9/9 8/8/8 10/10/10
f 8/8/8 11/11/11 10/10/10
f 10/10/10 11/11/11 12/12/12
f 13/13/13 10/10/10 12/12/12
f 12/12/12 14/14/14 13/13/13
f 14/14/14 15/15/15 13/13/13
f 16/16/16 15/15/15 14/14/14
f 17/17/17 16/16/16 14/14/14
f 16/16/16 17/17/17 18/18/18
f 17/17/17 19/19/19 18/18/18
f 20/20/20 18/18/18 19/19/19
f 21/21/21 20/20/20 19/19/19
f 22/22/22 20/20/20 21/21/21
f 23/23/23 22/22/22 21/21/21
f 23/23/23 24/24/24 22/22/22
f 24/24/24 25/25/25 22/22/22
f 26/26/26 25/25/25 24/24/24
f 27/27/27 26/26/26 24/24/24
f 27/27/27 28/28/28 26/26/26
f 31/31/31 30/30/30 29/29/29
f 29/29/29 30/30/30 32/32/32
f 30/30/30 33/33/33 32/32/32
f 32/32/32 33/33/33 34/34/34
f 33/33/33 35/35/35 34/34/34
f 34/34/34 35/35/35 36/36/36
f 35/35/35 37/37/37 36/36/36
f 36/36/36 37/37/37 38/38/38
f 39/39/39 36/36/36 38/38/38
f 39/39/39 38/38/38 40/40/40
f 38/38/38 41/41/41 40/40/40
f 42/42/42 40/40/40 41/41/41
f 43/43/43 42/42/42 41/41/41
f 43/43/43 44/44/44 42/42/42
f 44/44/44 45/45/45 42/42/42
f 45/45/45 44/44/44 46/46/46
f 47/47/47 45/45/45 46/46/46
f 46/46/46 48/48/48 47/47/47
f 48/48/48 49/49/49 47/47/47
f 48/48/48 50/50/50 49/49/49
f 50/50/50 51/51/51 49/49/49
f 52/52/52 51/51/51 50/50/50
f 53/53/53 52/52/52 50/50/50
f 53/53/53 54/54/54 52/52/52
f 54/54/54 55/55/55 52/52/52
f 56/56/56 55/55/55 54/54/54
