g EyeStar
v 0.04122462 1.38888 0.09402855
v 0.04292285 1.395217 0.09458023
v 0.04274099 1.388855 0.09375171
v 0.04426564 1.38883 0.09347338
v 0.04267853 1.38667 0.09346715
v 0.04587447 1.386653 0.09288854
v 0.04578308 1.383434 0.09246918
v 0.04258649 1.38345 0.0930478
v 0.04797925 1.383422 0.09207164
v 0.04802599 1.384947 0.09226964
v 0.05210063 1.383402 0.09132562
v 0.04793246 1.381896 0.09187344
v 0.04249445 1.380229 0.09262846
v 0.04569042 1.380214 0.09205004
v 0.04244599 1.378535 0.09240773
v 0.04408908 1.378544 0.09211278
v 0.04225013 1.371682 0.09151538
v 0.04081161 1.378524 0.09270113
v 0.03948256 1.386685 0.09404557
v 0.03938989 1.383465 0.09362644
v 0.0392985 1.380246 0.09320707
v 0.03753039 1.383475 0.09396303
v 0.03748759 1.381867 0.09375305
v 0.03307234 1.383497 0.09477
v 0.03757317 1.385081 0.09417282
v -0.04122455 1.38888 0.09402855
v -0.04274093 1.388855 0.09375171
v -0.04292278 1.395217 0.09458023
v -0.04426558 1.38883 0.09347338
v -0.04267846 1.38667 0.09346715
v -0.0458744 1.386653 0.09288854
v -0.04578301 1.383434 0.09246918
v -0.04258642 1.38345 0.0930478
v -0.04797918 1.383422 0.09207164
v -0.04802592 1.384947 0.09226964
v -0.05210056 1.383402 0.0913256
v -0.04793239 1.381896 0.09187342
v -0.04249437 1.380229 0.09262846
v -0.04569035 1.380214 0.09205004
v -0.04244592 1.378535 0.09240772
v -0.04408902 1.378544 0.09211278
v -0.04225006 1.371682 0.09151538
v -0.04081153 1.378524 0.09270113
v -0.03948249 1.386685 0.09404556
v -0.03938982 1.383465 0.09362643
v -0.03929843 1.380246 0.09320706
v -0.03753033 1.383475 0.09396302
v -0.03748752 1.381867 0.09375304
v -0.03307227 1.383497 0.09477
v -0.0375731 1.385081 0.09417282
vt 0.01434984 0.02459079
vt 0.01636218 0.03302488
vt 0.01636218 0.02459079
vt 0.01838357 0.02459079
vt 0.01636218 0.02173483
vt 0.02059163 0.02173483
vt 0.02059163 0.01755156
vt 0.01636218 0.01755156
vt 0.02345156 0.01755156
vt 0.02344816 0.01955444
vt 0.02893557 0.01755156
vt 0.02345703 0.01554546
vt 0.01636218 0.01322802
vt 0.02059163 0.01322802
vt 0.01636218 0.01095737
vt 0.01855302 0.01095737
vt 0.01636218 0.001938171
vt 0.01417818 0.01095737
vt 0.01202267 0.02173483
vt 0.01202267 0.01755156
vt 0.01202267 0.01322802
vt 0.009548405 0.01755156
vt 0.00954541 0.01541426
vt 0.003616581 0.01755156
vt 0.00955593 0.01968319
vt 0.01434984 0.02459079
vt 0.01636218 0.02459079
vt 0.01636218 0.03302488
vt 0.01838357 0.02459079
vt 0.01636218 0.02173483
vt 0.02059163 0.02173483
vt 0.02059163 0.01755156
vt 0.01636218 0.01755156
vt 0.02345156 0.01755156
vt 0.02344816 0.01955444
vt 0.02893557 0.01755156
vt 0.02345703 0.01554546
vt 0.01636218 0.01322802
vt 0.02059163 0.01322802
vt 0.01636218 0.01095737
vt 0.01855302 0.01095737
vt 0.01636218 0.001938171
vt 0.01417818 0.01095737
vt 0.01202267 0.02173483
vt 0.01202267 0.01755156
vt 0.01202267 0.01322802
vt 0.009548405 0.01755156
vt 0.00954541 0.01541426
vt 0.003616581 0.01755156
vt 0.00955593 0.01968319
vn 0.1759279 -0.132074 0.9755029
vn 0.1759168 -0.132075 0.9755047
vn 0.1759167 -0.132075 0.9755047
vn 0.1759058 -0.1320762 0.9755065
vn 0.1759167 -0.1320622 0.9755065
vn 0.1759226 -0.1320697 0.9755044
vn 0.1759267 -0.1320689 0.9755038
vn 0.1759227 -0.1320652 0.9755051
vn 0.175932 -0.1320713 0.9755024
vn 0.175922 -0.132047 0.9755076
vn 0.175932 -0.1320712 0.9755026
vn 0.1759419 -0.1320955 0.9754975
vn 0.1759288 -0.1320682 0.9755034
vn 0.1759307 -0.132068 0.9755031
vn 0.175923 -0.1320648 0.9755051
vn 0.1759096 -0.132066 0.9755072
vn 0.1759231 -0.1320648 0.9755049
vn 0.1759366 -0.1320636 0.9755027
vn 0.1759107 -0.1320546 0.9755086
vn 0.1759187 -0.1320615 0.9755062
vn 0.1759267 -0.1320684 0.9755038
vn 0.175922 -0.1320618 0.9755055
vn 0.1759026 -0.1320446 0.9755114
vn 0.175922 -0.1320618 0.9755055
vn 0.1759415 -0.1320792 0.9754997
vn -0.1759288 -0.1320739 0.9755027
vn -0.1759184 -0.1320742 0.9755046
vn -0.1759184 -0.1320742 0.9755045
vn -0.1759082 -0.1320745 0.9755063
vn -0.1759132 -0.1320598 0.9755074
vn -0.1759128 -0.1320629 0.9755071
vn -0.1759177 -0.1320634 0.9755061
vn -0.1759178 -0.1320629 0.9755062
vn -0.1759274 -0.1320692 0.9755036
vn -0.1759239 -0.1320496 0.9755069
vn -0.1759274 -0.1320691 0.9755036
vn -0.1759309 -0.1320887 0.9755004
vn -0.1759223 -0.1320661 0.9755049
vn -0.1759226 -0.1320639 0.9755052
vn -0.175921 -0.1320679 0.9755049
vn -0.1759107 -0.1320662 0.975507
vn -0.1759211 -0.1320679 0.9755049
vn -0.1759316 -0.1320696 0.9755028
vn -0.1759136 -0.1320567 0.9755078
vn -0.1759178 -0.1320625 0.9755062
vn -0.175922 -0.1320683 0.9755047
vn -0.1759263 -0.1320655 0.9755043
vn -0.1759227 -0.1320576 0.9755059
vn -0.1759263 -0.1320655 0.9755043
vn -0.1759298 -0.1320734 0.9755026
g EyeStar_0
f 3/3/3 2/2/2 1/1/1
f 4/4/4 2/2/2 3/3/3
f 3/3/3 5/5/5 4/4/4
f 3/3/3 1/1/1 5/5/5
f 5/5/5 6/6/6 4/4/4
f 7/7/7 6/6/6 5/5/5
f 8/8/8 7/7/7 5/5/5
f 6/6/6 7/7/7 9/9/9
f 10/10/10 6/6/6 9/9/9
f 9/9/9 11/11/11 10/10/10
f 12/12/12 11/11/11 9/9/9
f 9/9/9 7/7/7 12/12/12
f 8/8/8 13/13/13 7/7/7
f 13/13/13 14/14/14 7/7/7
f 7/7/7 14/14/14 12/12/12
f 14/14/14 13/13/13 15/15/15
f 16/16/16 14/14/14 15/15/15
f 15/15/15 17/17/17 16/16/16
f 18/18/18 17/17/17 15/15/15
f 15/15/15 13/13/13 18/18/18
f 5/5/5 19/19/19 8/8/8
f 19/19/19 20/20/20 8/8/8
f 1/1/1 19/19/19 5/5/5
f 21/21/21 13/13/13 8/8/8
f 20/20/20 21/21/21 8/8/8
f 13/13/13 21/21/21 18/18/18
f 21/21/21 20/20/20 22/22/22
f 23/23/23 21/21/21 22/22/22
f 22/22/22 24/24/24 23/23/23
f 25/25/25 24/24/24 22/22/22
f 20/20/20 19/19/19 25/25/25
f 22/22/22 20/20/20 25/25/25
f 28/28/28 27/27/27 26/26/26
f 28/28/28 29/29/29 27/27/27
f 30/30/30 27/27/27 29/29/29
f 26/26/26 27/27/27 30/30/30
f 31/31/31 30/30/30 29/29/29
f 31/31/31 32/32/32 30/30/30
f 32/32/32 33/33/33 30/30/30
f 32/32/32 31/31/31 34/34/34
f 31/31/31 35/35/35 34/34/34
f 36/36/36 34/34/34 35/35/35
f 36/36/36 37/37/37 34/34/34
f 32/32/32 34/34/34 37/37/37
f 38/38/38 33/33/33 32/32/32
f 39/39/39 38/38/38 32/32/32
f 39/39/39 32/32/32 37/37/37
f 38/38/38 39/39/39 40/40/40
f 39/39/39 41/41/41 40/40/40
f 42/42/42 40/40/40 41/41/41
f 42/42/42 43/43/43 40/40/40
f 38/38/38 40/40/40 43/43/43
f 44/44/44 30/30/30 33/33/33
f 45/45/45 44/44/44 33/33/33
f 44/44/44 26/26/26 30/30/30
f 46/46/46 45/45/45 33/33/33
f 38/38/38 46/46/46 33/33/33
f 46/46/46 38/38/38 43/43/43
f 45/45/45 46/46/46 47/47/47
f 46/46/46 48/48/48 47/47/47
f 49/49/49 47/47/47 48/48/48
f 49/49/49 50/50/50 47/47/47
f 45/45/45 47/47/47 50/50/50
f 44/44/44 45/45/45 50/50/50
