g Equip_Sword_EffectMesh
v 0.01768999 -8.34465E-09 0.7457469
v -0.01769 -8.34465E-09 0.7457469
v -0.0213392 -8.34465E-09 0.6716745
v 0.0213392 -8.34465E-09 0.6716745
v -0.02530156 -8.34465E-09 0.5585878
v 0.02527691 -8.34465E-09 0.5585878
v -0.02527773 -8.34465E-09 0.4185832
v 0.0252937 -8.34465E-09 0.4185832
v -0.02527647 -8.34465E-09 0.2743673
v 0.0252946 -8.34465E-09 0.2743673
v 5.960464E-10 -8.34465E-09 0.8064404
v -0.0252752 -8.34465E-09 0.1301514
v 0.02529549 -8.34465E-09 0.1301514
v -0.02527393 -8.34465E-09 -0.01406457
v 0.02529639 -8.34465E-09 -0.01406457
v -0.02527266 -8.34465E-09 -0.1582805
v 0.02529729 -8.34465E-09 -0.1582805
vt 0.9381565 0.1025546
vt 0.8909571 0.1025545
vt 0.885423 0.2172253
vt 0.9436905 0.2172254
vt 0.8809195 0.3924987
vt 0.9481943 0.3924987
vt 0.8787928 0.6095389
vt 0.9503217 0.6095389
vt 0.877279 0.6642477
vt 0.9518363 0.6642476
vt 0.9145569 0.01157064
vt 0.8757654 0.7189565
vt 0.953351 0.7189564
vt 0.8742517 0.7736652
vt 0.9548657 0.7736651
vt 0.872738 0.828374
vt 0.9563804 0.8283738
vn 0 1 0
vn 0 1 0
vn 0 1 0
vn 0 1 0
vn 0 1 0
vn 0 1 0
vn 0 1 0
vn 0 1 0
vn 0 1 0
vn 0 1 0
vn 0 1 0
vn 0 1 0
vn 0 1 0
vn 0 1 0
vn 0 1 0
vn 0 1 0
vn 0 1 0
g Equip_Sword_EffectMesh_0
f 3/3/3 2/2/2 1/1/1
f 4/4/4 3/3/3 1/1/1
f 5/5/5 3/3/3 4/4/4
f 6/6/6 5/5/5 4/4/4
f 7/7/7 5/5/5 6/6/6
f 8/8/8 7/7/7 6/6/6
f 9/9/9 7/7/7 8/8/8
f 10/10/10 9/9/9 8/8/8
f 1/1/1 2/2/2 11/11/11
f 12/12/12 9/9/9 10/10/10
f 13/13/13 12/12/12 10/10/10
f 14/14/14 12/12/12 13/13/13
f 15/15/15 14/14/14 13/13/13
f 16/16/16 14/14/14 15/15/15
f 17/17/17 16/16/16 15/15/15
