g Equip_Bow_EffectMesh
v -0.03534888 -5.477641E-17 -0.3687825
v -0.05942962 -1.553729E-17 -0.3659178
v -0.08561417 0 -0.4975412
v 0.03685691 -2.124222E-16 -0.2046494
v -0.03534888 -5.477641E-17 -0.3687825
v 0.07006063 -2.124222E-16 -0.2128299
v 0.05149494 -1.944735E-16 0
v 0.03685691 -2.124222E-16 -0.2046494
v 0.01690809 -1.765248E-16 0
v 0.03685691 -2.124222E-16 0.2046494
v 0.07006063 -2.124222E-16 0.2128299
v -0.03534888 -5.477641E-17 0.3687825
v -0.05942962 -1.553729E-17 0.3659178
v -0.08561417 0 0.4975412
v -0.03534888 -5.477641E-17 0.3687825
v 0.05149494 -1.944735E-16 0
v 0.03685691 -2.124222E-16 0.2046494
v 0.01690809 -1.765248E-16 0
vt 0.8 0.75
vt 0 0.75
vt 0.8 1
vt 0 0.5
vt 0.8 0.75
vt 0.8 0.5
vt 0.4 0.375
vt 0 0.5
vt 0 0.25
vt 0 0.5
vt 0.8 0.5
vt 0.8 0.75
vt 0 0.75
vt 0.8 1
vt 0.8 0.75
vt 0.4 0.375
vt 0 0.5
vt 0 0.25
vn 0 1 0
vn 0 1 0
vn 0 1 0
vn 0 1 0
vn 0 1 0
vn 0 1 0
vn 0 1 0
vn 0 1 0
vn 0 1 0
vn 0 1 0
vn 0 1 0
vn 0 1 0
vn 0 1 0
vn 0 1 0
vn 0 1 0
vn 0 1 0
vn 0 1 0
vn 0 1 0
g Equip_Bow_EffectMesh_0
f 3/3/3 2/2/2 1/1/1
f 5/5/5 2/2/2 4/4/4
f 6/6/6 5/5/5 4/4/4
f 6/6/6 8/8/8 7/7/7
f 8/8/8 9/9/9 7/7/7
f 12/12/12 11/11/11 10/10/10
f 13/13/13 12/12/12 10/10/10
f 15/15/15 13/13/13 14/14/14
f 17/17/17 11/11/11 16/16/16
f 18/18/18 17/17/17 16/16/16
