g Brow
v 0.06029062 1.726913 0.08029394
v 0.06382573 1.726008 0.07633054
v 0.06075711 1.726156 0.08086741
v 0.05710821 1.727449 0.08367162
v 0.05774071 1.726289 0.08441615
v 0.05378563 1.727796 0.08665974
v 0.05440988 1.726416 0.08764504
v 0.05046087 1.727908 0.08927108
v 0.05110928 1.72638 0.0903501
v 0.04645982 1.727755 0.09188199
v 0.04711616 1.726173 0.09296697
v 0.04185161 1.727427 0.09443501
v 0.04248982 1.725673 0.0956745
v 0.03741929 1.726946 0.09647191
v 0.03816923 1.725141 0.09777969
v 0.03292521 1.726258 0.09831575
v 0.03362964 1.724391 0.09962828
v 0.02922106 1.723302 0.1012005
v 0.02795613 1.725239 0.100197
v 0.02352705 1.723869 0.1015718
v 0.02479559 1.721921 0.1024841
v 0.0195655 1.722066 0.1026317
v 0.0207304 1.720378 0.1033127
v 0.01654587 1.719821 0.1033532
v 0.01744684 1.718733 0.1036046
v 0.01458824 1.716446 0.1033921
v 0.04660323 1.724359 0.09154744
v 0.04215112 1.72382 0.09386121
v 0.03810238 1.723209 0.09583252
v 0.02952963 1.721198 0.09934286
v 0.03379821 1.722353 0.09764819
v 0.02536909 1.719822 0.1008148
v 0.02146519 1.718498 0.1019897
v 0.05044779 1.724754 0.08909526
v 0.05369897 1.724933 0.0865682
v 0.05705085 1.725111 0.08363499
v 0.06025945 1.725401 0.08030188
v 0.01785652 1.717345 0.1028807
v -0.06029062 1.726913 0.08029394
v -0.06075711 1.726156 0.08086741
v -0.06382573 1.726008 0.07633054
v -0.05710821 1.727449 0.08367162
v -0.05774071 1.726289 0.08441615
v -0.05378563 1.727796 0.08665974
v -0.05440988 1.726416 0.08764504
v -0.05046087 1.727908 0.08927108
v -0.05110928 1.72638 0.0903501
v -0.04645982 1.727755 0.09188199
v -0.04711616 1.726173 0.09296697
v -0.04185161 1.727427 0.09443501
v -0.04248982 1.725673 0.0956745
v -0.03741929 1.726946 0.09647191
v -0.03816923 1.725141 0.09777969
v -0.03292521 1.726258 0.09831575
v -0.03362964 1.724391 0.09962828
v -0.02922106 1.723302 0.1012005
v -0.02795613 1.725239 0.100197
v -0.02352705 1.723869 0.1015718
v -0.02479559 1.721921 0.1024841
v -0.0195655 1.722066 0.1026317
v -0.0207304 1.720378 0.1033127
v -0.01654587 1.719821 0.1033532
v -0.01744684 1.718733 0.1036046
v -0.01458824 1.716446 0.1033921
v -0.04660323 1.724359 0.09154744
v -0.04215112 1.72382 0.09386121
v -0.03810238 1.723209 0.09583252
v -0.02952963 1.721198 0.09934286
v -0.03379821 1.722353 0.09764819
v -0.02536909 1.719822 0.1008148
v -0.02146519 1.718498 0.1019897
v -0.05044779 1.724754 0.08909526
v -0.05369897 1.724933 0.0865682
v -0.05705085 1.725111 0.08363499
v -0.06025945 1.725401 0.08030188
v -0.01785652 1.717345 0.1028807
vt 0.01981229 0.9741668
vt 0.003607094 0.9679786
vt 0.01811403 0.970257
vt 0.0345341 0.9788008
vt 0.03232169 0.9728654
vt 0.05000764 0.9829122
vt 0.04800081 0.9758123
vt 0.06567132 0.9857622
vt 0.06362754 0.9781007
vt 0.0846743 0.9881148
vt 0.08262831 0.9802001
vt 0.1066471 0.9902201
vt 0.104804 0.9814951
vt 0.1278915 0.9914687
vt 0.1255562 0.9824089
vt 0.1495782 0.991708
vt 0.1474997 0.9823887
vt 0.1690745 0.9805105
vt 0.1737561 0.9905737
vt 0.1956291 0.9872963
vt 0.1909368 0.9771852
vt 0.2155899 0.9815767
vt 0.2112125 0.9727731
vt 0.2314007 0.973028
vt 0.2278666 0.9672616
vt 0.2429492 0.9583626
vt 0.08629149 0.9718789
vt 0.1076699 0.9728593
vt 0.1271879 0.9732125
vt 0.169035 0.9703069
vt 0.1480852 0.9725494
vt 0.189639 0.966826
vt 0.2090015 0.9633526
vt 0.06786531 0.9707881
vt 0.05242765 0.9688491
vt 0.03638482 0.9677427
vt 0.02098042 0.9670162
vt 0.2268619 0.9604081
vt 0.01977979 0.9741621
vt 0.01808149 0.9702524
vt 0.00357452 0.967974
vt 0.03450155 0.9787961
vt 0.03228913 0.9728608
vt 0.04997515 0.9829076
vt 0.0479683 0.9758076
vt 0.06563877 0.9857576
vt 0.06359505 0.9780961
vt 0.08464179 0.9881102
vt 0.08259583 0.9801955
vt 0.1066146 0.9902154
vt 0.1047715 0.9814904
vt 0.1278591 0.9914641
vt 0.1255237 0.9824042
vt 0.1495457 0.9917034
vt 0.1474672 0.9823841
vt 0.1690419 0.9805059
vt 0.1737236 0.9905691
vt 0.1955965 0.9872916
vt 0.1909042 0.9771806
vt 0.2155573 0.9815722
vt 0.2111799 0.9727684
vt 0.2313682 0.9730234
vt 0.2278342 0.967257
vt 0.2429167 0.958358
vt 0.08625899 0.9718742
vt 0.1076374 0.9728546
vt 0.1271554 0.9732079
vt 0.1690025 0.9703023
vt 0.1480526 0.9725448
vt 0.1896065 0.9668214
vt 0.208969 0.963348
vt 0.06783278 0.9707835
vt 0.05239511 0.9688445
vt 0.03635232 0.9677381
vt 0.02094796 0.9670116
vt 0.2268294 0.9604035
vn 0.599948 0.6661121 0.4431219
vn 0.8278826 -0.01789502 0.5606158
vn 0.7858235 -0.02106248 0.6180922
vn 0.567791 0.6480366 0.5076042
vn 0.7274356 -0.03072479 0.6854878
vn 0.5184393 0.6385506 0.5687476
vn 0.6642451 -0.030594 0.7468883
vn 0.4440998 0.6346213 0.6324803
vn 0.5905465 -0.03523657 0.8062339
vn 0.3727884 0.6270111 0.6840217
vn 0.5250447 -0.0505279 0.8495734
vn 0.3101243 0.6258271 0.7156558
vn 0.4725732 -0.06722892 0.8787235
vn 0.2407542 0.6251314 0.7424608
vn 0.4192049 -0.06188081 0.9057803
vn 0.1881178 0.598548 0.778686
vn 0.3792301 -0.03689026 0.9245667
vn 0.3388555 -0.02851925 0.9404061
vn 0.1335532 0.5319108 0.8362023
vn 0.07192603 0.4593002 0.8853643
vn 0.2757675 -0.03375158 0.9606316
vn 0.0106974 0.374165 0.9273004
vn 0.2041596 -0.04431741 0.9779339
vn -0.05972061 0.2524389 0.9657682
vn 0.1315891 -0.09256938 0.9869727
vn 0.0741503 -0.1837593 0.9801705
vn 0.4361886 -0.6461813 0.6262501
vn 0.411275 -0.6595826 0.6291292
vn 0.3941596 -0.6560344 0.6436281
vn 0.4117562 -0.5666779 0.7136757
vn 0.4007734 -0.6203805 0.6741728
vn 0.3938396 -0.5110138 0.7640388
vn 0.352945 -0.457834 0.8159766
vn 0.4680099 -0.6446955 0.6044289
vn 0.5002157 -0.6539663 0.5675495
vn 0.5312246 -0.6659763 0.5237137
vn 0.5630411 -0.6843313 0.4633308
vn 0.2995729 -0.413884 0.8596255
vn -0.5999489 0.6661115 0.4431218
vn -0.785816 -0.02106354 0.6181015
vn -0.8278828 -0.01788005 0.5606161
vn -0.5677875 0.6480311 0.507615
vn -0.7274285 -0.03072945 0.685495
vn -0.5184391 0.6385506 0.5687477
vn -0.6642456 -0.03059239 0.7468881
vn -0.4441069 0.6346319 0.6324645
vn -0.5905629 -0.03522976 0.8062223
vn -0.3727963 0.6270232 0.6840066
vn -0.525061 -0.05052288 0.8495637
vn -0.310127 0.6258331 0.7156495
vn -0.4725807 -0.06722435 0.8787197
vn -0.2407552 0.6251335 0.7424588
vn -0.4192095 -0.06188419 0.9057779
vn -0.1881159 0.5985447 0.7786891
vn -0.3792294 -0.03689817 0.9245667
vn -0.3388577 -0.02852452 0.9404051
vn -0.1335527 0.5319114 0.836202
vn -0.07192653 0.4593004 0.8853641
vn -0.2757719 -0.03375578 0.9606302
vn -0.01069708 0.374157 0.9273037
vn -0.2041628 -0.04432664 0.9779329
vn 0.05971996 0.2524326 0.9657698
vn -0.1315941 -0.09257889 0.9869713
vn -0.07414565 -0.1837519 0.9801722
vn -0.4361969 -0.6461927 0.6262327
vn -0.4112793 -0.6595894 0.6291193
vn -0.3941631 -0.65604 0.6436202
vn -0.4117582 -0.5666811 0.713672
vn -0.4007738 -0.6203817 0.6741713
vn -0.3938448 -0.5110205 0.7640317
vn -0.3529497 -0.4578404 0.815971
vn -0.4680166 -0.6447053 0.6044134
vn -0.5002155 -0.6539668 0.5675491
vn -0.5312227 -0.6659737 0.523719
vn -0.563036 -0.6843235 0.4633484
vn -0.299579 -0.4138917 0.8596197
g Brow_0
f 3/3/3 2/2/2 1/1/1
f 3/3/3 1/1/1 4/4/4
f 5/5/5 3/3/3 4/4/4
f 5/5/5 4/4/4 6/6/6
f 7/7/7 5/5/5 6/6/6
f 6/6/6 8/8/8 7/7/7
f 8/8/8 9/9/9 7/7/7
f 8/8/8 10/10/10 9/9/9
f 10/10/10 11/11/11 9/9/9
f 10/10/10 12/12/12 11/11/11
f 12/12/12 13/13/13 11/11/11
f 12/12/12 14/14/14 13/13/13
f 14/14/14 15/15/15 13/13/13
f 15/15/15 14/14/14 16/16/16
f 17/17/17 15/15/15 16/16/16
f 17/17/17 16/16/16 18/18/18
f 16/16/16 19/19/19 18/18/18
f 18/18/18 19/19/19 20/20/20
f 21/21/21 18/18/18 20/20/20
f 21/21/21 20/20/20 22/22/22
f 23/23/23 21/21/21 22/22/22
f 22/22/22 24/24/24 23/23/23
f 24/24/24 25/25/25 23/23/23
f 24/24/24 26/26/26 25/25/25
f 11/11/11 13/13/13 27/27/27
f 13/13/13 28/28/28 27/27/27
f 13/13/13 15/15/15 28/28/28
f 15/15/15 29/29/29 28/28/28
f 29/29/29 15/15/15 17/17/17
f 17/17/17 18/18/18 30/30/30
f 31/31/31 17/17/17 30/30/30
f 31/31/31 29/29/29 17/17/17
f 30/30/30 18/18/18 21/21/21
f 32/32/32 30/30/30 21/21/21
f 32/32/32 21/21/21 23/23/23
f 33/33/33 32/32/32 23/23/23
f 11/11/11 27/27/27 34/34/34
f 9/9/9 11/11/11 34/34/34
f 9/9/9 34/34/34 35/35/35
f 7/7/7 9/9/9 35/35/35
f 35/35/35 36/36/36 7/7/7
f 36/36/36 5/5/5 7/7/7
f 36/36/36 37/37/37 5/5/5
f 37/37/37 3/3/3 5/5/5
f 37/37/37 2/2/2 3/3/3
f 25/25/25 38/38/38 33/33/33
f 23/23/23 25/25/25 33/33/33
f 25/25/25 26/26/26 38/38/38
f 41/41/41 40/40/40 39/39/39
f 39/39/39 40/40/40 42/42/42
f 40/40/40 43/43/43 42/42/42
f 42/42/42 43/43/43 44/44/44
f 43/43/43 45/45/45 44/44/44
f 46/46/46 44/44/44 45/45/45
f 47/47/47 46/46/46 45/45/45
f 48/48/48 46/46/46 47/47/47
f 49/49/49 48/48/48 47/47/47
f 50/50/50 48/48/48 49/49/49
f 51/51/51 50/50/50 49/49/49
f 52/52/52 50/50/50 51/51/51
f 53/53/53 52/52/52 51/51/51
f 52/52/52 53/53/53 54/54/54
f 53/53/53 55/55/55 54/54/54
f 54/54/54 55/55/55 56/56/56
f 57/57/57 54/54/54 56/56/56
f 57/57/57 56/56/56 58/58/58
f 56/56/56 59/59/59 58/58/58
f 58/58/58 59/59/59 60/60/60
f 59/59/59 61/61/61 60/60/60
f 62/62/62 60/60/60 61/61/61
f 63/63/63 62/62/62 61/61/61
f 64/64/64 62/62/62 63/63/63
f 51/51/51 49/49/49 65/65/65
f 66/66/66 51/51/51 65/65/65
f 53/53/53 51/51/51 66/66/66
f 67/67/67 53/53/53 66/66/66
f 56/56/56 55/55/55 68/68/68
f 56/56/56 68/68/68 59/59/59
f 55/55/55 69/69/69 68/68/68
f 67/67/67 69/69/69 55/55/55
f 68/68/68 70/70/70 59/59/59
f 59/59/59 70/70/70 61/61/61
f 53/53/53 67/67/67 55/55/55
f 70/70/70 71/71/71 61/61/61
f 63/63/63 61/61/61 71/71/71
f 65/65/65 49/49/49 72/72/72
f 49/49/49 47/47/47 72/72/72
f 72/72/72 47/47/47 73/73/73
f 47/47/47 45/45/45 73/73/73
f 74/74/74 73/73/73 45/45/45
f 43/43/43 74/74/74 45/45/45
f 75/75/75 74/74/74 43/43/43
f 40/40/40 75/75/75 43/43/43
f 41/41/41 75/75/75 40/40/40
f 76/76/76 63/63/63 71/71/71
f 64/64/64 63/63/63 76/76/76
