g Area_LY_Build_Common_Plot_03_Vo
v -0.2955664 0.3091708 -0.9241335
v -0.3456604 -0.2587204 -0.05738327
v -0.2819031 -0.2712258 -0.9349123
v -0.3110059 0.3588888 -0.6914388
v -0.3394836 0.4697668 0.1739838
v -0.3099988 0.4517034 -0.5990145
v -0.3573193 -0.08766487 0.2461603
v -0.3564685 0.3084612 0.2681342
v -0.3394836 0.4697668 0.1739838
v -0.3099988 0.4517034 -0.5990145
v 0.02261597 0.4626652 0.2759994
v 0.05394287 0.4683276 -0.4038836
v -0.3110059 0.3588888 -0.6914388
v 0.2372986 0.4592764 0.0650373
v 0.357334 0.2681209 0.278543
v 0.3772925 0.3916599 -0.2203247
v 0.4093652 0.1382679 -0.7536275
v 0.08729003 0.3632285 -0.7917687
v 0.119602 0.3940088 -0.4585259
v -0.09144531 0.3441223 -0.9275576
v -0.2955664 0.3091708 -0.9241335
v 0.4094067 -0.04442308 -0.9167904
v 0.3719739 -0.2558678 0.2871526
v -0.3564685 0.3084612 0.2681342
v 0.02261597 0.4626652 0.2759994
v 0.357334 0.2681209 0.278543
v 0.1067334 -0.2584361 0.2819648
v -0.3394836 0.4697668 0.1739838
v -0.3573193 -0.08766487 0.2461603
v 0.357334 0.2681209 0.278543
v 0.4093652 0.1382679 -0.7536275
v 0.3719739 -0.2558678 0.2871526
v 0.409353 -0.2848582 -0.9235476
v 0.4094067 -0.04442308 -0.9167904
v -0.09144531 0.3441223 -0.9275576
v -0.2955664 0.3091708 -0.9241335
v -0.2819031 -0.2712258 -0.9349123
v 0.4094067 -0.04442308 -0.9167904
v 0.296781 0.469315 0.9119899
v 0.2804565 -0.1221109 0.2304606
v 0.3924792 -0.1918897 1.243187
v 0.3396472 -0.1277115 1.590174
v 0.2764343 0.3183732 1.609551
v 0.2803528 0.4850319 0.54171
v 0.2539917 0.3893459 0.2790138
v 0.3541553 0.3933331 -1.856315
v 0.3009717 -0.2389255 -2.86498
v 0.3531995 -0.2679361 -1.190275
v 0.3175098 0.2338822 -2.879332
v 0.3790601 0.400828 -1.21825
v 0.2588159 -0.2478298 -0.9276797
v 0.2546777 0.4078086 -0.9382717
v 0.2532568 0.4105521 -2.835671
v 0.2803528 0.4850319 0.54171
v -0.4642566 0.4531513 0.4004664
v -0.04970703 0.4793013 0.3217575
v -0.4558374 0.4617052 1.078301
v 0.173385 0.478485 1.527815
v -0.1791052 0.4316594 1.709435
v 0.2764343 0.3183732 1.609551
v 0.296781 0.469315 0.9119899
v 0.2539917 0.3893459 0.2790138
v 0.1149341 -0.2392604 1.627621
v -0.1791052 0.4316594 1.709435
v 0.2764343 0.3183732 1.609551
v -0.3275378 -0.1397319 1.693188
v 0.3396472 -0.1277115 1.590174
v -0.4558374 0.4617052 1.078301
v -0.3752258 0.2805634 1.536739
v -0.3275378 -0.1397319 1.693188
v -0.4415784 -0.03904314 0.3479571
v -0.1791052 0.4316594 1.709435
v -0.4642566 0.4531513 0.4004664
v 0.2804565 -0.1221109 0.2304606
v -0.4642566 0.4531513 0.4004664
v -0.4415784 -0.03904314 0.3479571
v -0.04970703 0.4793013 0.3217575
v 0.2539917 0.3893459 0.2790138
v 0.3541553 0.3933331 -1.856315
v -0.4039087 0.3944738 -2.029909
v 0.2532568 0.4105521 -2.835671
v 0.3790601 0.400828 -1.21825
v -0.4101196 0.399199 -2.866112
v -0.3938293 0.4217673 -0.9408919
v 0.2546777 0.4078086 -0.9382717
v -0.4549841 0.2648048 -2.877671
v -0.4482397 -0.2528484 -1.977129
v -0.1969324 -0.2368035 -2.863559
v -0.1969324 -0.2368035 -2.863559
v 0.3175098 0.2338822 -2.879332
v -0.4101196 0.399199 -2.866112
v 0.3009717 -0.2389255 -2.86498
v -0.4549841 0.2648048 -2.877671
v 0.2532568 0.4105521 -2.835671
v -0.4039087 0.3944738 -2.029909
v -0.3938293 0.4217673 -0.9408919
v -0.4482397 -0.2528484 -1.977129
v -0.4549841 0.2648048 -2.877671
v -0.4101196 0.399199 -2.866112
v -0.4060962 -0.1688022 -0.9517089
v 0.2546777 0.4078086 -0.9382717
v 0.2588159 -0.2478298 -0.9276797
v -0.3938293 0.4217673 -0.9408919
v -0.4060962 -0.1688022 -0.9517089
v -0.3103174 0.2691348 2.31764
v -0.3122571 -0.3811107 2.879332
v -0.3439648 -0.4022573 1.999181
v -0.2675818 -0.3136561 1.706715
v -0.2276355 0.1528463 1.712741
v -0.3229809 0.2654868 2.63759
v -0.3109839 0.1529276 2.8609
v -0.3229809 0.2654868 2.63759
v 0.4213001 0.26183 2.801342
v -0.005609131 0.2637507 2.845797
v 0.4642554 0.3082703 2.218498
v -0.1387964 0.3193403 1.795863
v 0.2343982 0.2986549 1.658419
v -0.2276355 0.1528463 1.712741
v -0.3103174 0.2691348 2.31764
v -0.3109839 0.1529276 2.8609
v -0.03100708 -0.4158921 1.682961
v 0.2343982 0.2986549 1.658419
v -0.2276355 0.1528463 1.712741
v 0.4159631 -0.2869182 1.656789
v -0.2675818 -0.3136561 1.706715
v 0.4642554 0.3082703 2.218498
v 0.4281982 0.142226 1.811957
v 0.4159631 -0.2869182 1.656789
v 0.4224524 -0.2522797 2.824216
v 0.2343982 0.2986549 1.658419
v 0.4213001 0.26183 2.801342
v -0.3122571 -0.3811107 2.879332
v 0.4213001 0.26183 2.801342
v 0.4224524 -0.2522797 2.824216
v -0.005609131 0.2637507 2.845797
v -0.3109839 0.1529276 2.8609
vt 0.628566 0.5195037
vt 0.666266 0.5022037
vt 0.628566 0.5022037
vt 0.638616 0.5214537
vt 0.674616 0.5267537
vt 0.642516 0.5267537
vt 0.679516 0.5022037
vt 0.679516 0.5267537
vt 0.6296935 0.612739
vt 0.6648935 0.612739
vt 0.6296935 0.598989
vt 0.6570435 0.599339
vt 0.6705436 0.612739
vt 0.6373935 0.591739
vt 0.6296935 0.581139
vt 0.6496935 0.587489
vt 0.6733935 0.581139
vt 0.6741935 0.597789
vt 0.6599935 0.596739
vt 0.6821935 0.603839
vt 0.6821935 0.612739
vt 0.6821935 0.581139
vt 0.6257421 0.6180865
vt 0.6116421 0.5896865
vt 0.6050921 0.6036365
vt 0.6050921 0.6180865
vt 0.6257421 0.6088365
vt 0.6050921 0.5896865
vt 0.6257421 0.5896865
vt 0.6296935 0.5773328
vt 0.6733935 0.5773328
vt 0.6296935 0.5626328
vt 0.6821935 0.5626328
vt 0.6821935 0.5773328
vt 0.6039678 0.5450613
vt 0.6039678 0.5375113
vt 0.6254178 0.5375113
vt 0.6164178 0.5654613
vt 0.5332428 0.5208678
vt 0.5613678 0.5025678
vt 0.5186178 0.5025678
vt 0.5039178 0.5025678
vt 0.5039178 0.5208678
vt 0.5509178 0.5208678
vt 0.5613678 0.5208678
vt 0.8040678 0.6171678
vt 0.8649678 0.5981178
vt 0.7638178 0.5981178
vt 0.8649678 0.6065678
vt 0.7643178 0.6171678
vt 0.7475678 0.5981178
vt 0.7475678 0.6171678
vt 0.8649678 0.6171678
vt 0.5509178 0.5253178
vt 0.5613678 0.5549178
vt 0.5613678 0.5375678
vt 0.5332428 0.5549178
vt 0.5098678 0.5331678
vt 0.5039178 0.5549178
vt 0.5039178 0.5253178
vt 0.5332428 0.5253178
vt 0.5613678 0.5253178
vt 0.5851225 0.6037734
vt 0.5633725 0.6227179
vt 0.5977725 0.6227179
vt 0.5633725 0.6037734
vt 0.5977725 0.6037734
vt 0.5332428 0.5614178
vt 0.5120678 0.5670178
vt 0.5039178 0.5826678
vt 0.5613678 0.5826678
vt 0.5039178 0.5614178
vt 0.5613678 0.5614178
vt 0.598169 0.602503
vt 0.563309 0.583963
vt 0.563309 0.602503
vt 0.5830491 0.583963
vt 0.598169 0.583963
vt 0.8042994 0.5048589
vt 0.8146752 0.5366229
vt 0.8645778 0.5048517
vt 0.7652439 0.5048945
vt 0.8645364 0.5366135
vt 0.7475678 0.5366178
vt 0.7475678 0.5048678
vt 0.8649678 0.5572678
vt 0.8117499 0.5572555
vt 0.8649678 0.5715178
vt 0.9723963 0.6092523
vt 0.9852964 0.6204023
vt 0.9959463 0.5869523
vt 0.9723963 0.6204023
vt 0.9723963 0.5870023
vt 0.9959464 0.6204023
vt 0.8147526 0.5394288
vt 0.7475678 0.5395178
vt 0.8117177 0.5539678
vt 0.8649678 0.5539678
vt 0.8649678 0.5395178
vt 0.7475678 0.5539678
vt 0.9951231 0.524904
vt 0.9751231 0.524904
vt 0.9951231 0.556854
vt 0.9751231 0.556854
vt 0.5332428 0.5208678
vt 0.5613678 0.5025678
vt 0.5186178 0.5025678
vt 0.5039178 0.5025678
vt 0.5039178 0.5208678
vt 0.5509178 0.5208678
vt 0.5613678 0.5208678
vt 0.5509178 0.5253178
vt 0.5613678 0.5549178
vt 0.5613678 0.5375678
vt 0.5332428 0.5549178
vt 0.5098678 0.5331678
vt 0.5039178 0.5549178
vt 0.5039178 0.5253178
vt 0.5332428 0.5253178
vt 0.5613678 0.5253178
vt 0.5851225 0.6037734
vt 0.5633725 0.6227179
vt 0.5977725 0.6227179
vt 0.5633725 0.6037734
vt 0.5977725 0.6037734
vt 0.5332428 0.5614178
vt 0.5120678 0.5670178
vt 0.5039178 0.5826678
vt 0.5613678 0.5826678
vt 0.5039178 0.5614178
vt 0.5613678 0.5614178
vt 0.598169 0.602503
vt 0.563309 0.583963
vt 0.563309 0.602503
vt 0.5830491 0.583963
vt 0.598169 0.583963
vn -0.9975025 -0.0167403 -0.06861902
vn -0.9986708 0.009712826 -0.05061861
vn -0.9971494 -0.02213464 -0.07213295
vn -0.9985752 0.007930932 -0.05277097
vn -0.9977819 0.02069391 -0.06327029
vn -0.9979836 0.04989618 -0.03923256
vn -0.9977989 0.02391754 -0.06184896
vn -0.9871673 0.0109577 -0.1593128
vn 0.02590232 0.9994142 -0.02236631
vn 0.2193602 0.8570047 -0.4662876
vn 0.1501572 0.979165 0.1367076
vn 0.2875235 0.9142974 -0.2852905
vn 0.07152041 0.9332001 -0.3521679
vn 0.3990465 0.9047934 0.1486971
vn 0.7032511 0.6427246 0.3038797
vn 0.7513184 0.6568844 -0.06343179
vn 0.5862362 0.6356343 -0.5022908
vn 0.3013791 0.8666925 -0.3975109
vn 0.2310112 0.9397573 -0.2519723
vn 0.077797 0.9475784 -0.3099079
vn -0.1682942 0.961638 -0.2166319
vn 0.4702493 0.5879327 -0.6581799
vn -0.01459662 0.009446361 0.9998488
vn -0.1185453 0.1866405 0.9752499
vn -0.0538944 0.09802561 0.9937235
vn 0.001982527 0.01648405 0.9998622
vn -0.03452479 -0.003827376 0.9993966
vn -0.2241993 0.5087609 0.8312022
vn -0.09688607 -0.05491874 0.9937791
vn 0.9984963 0.02866509 0.04672751
vn 0.9995496 -0.002504388 0.02990492
vn 0.9989047 0.01860496 0.04293248
vn 0.9996645 -0.00967644 0.02402396
vn 0.9999999 -0.0002380296 0.0005208894
vn 0.003532617 0.01085799 -0.9999348
vn -0.01986739 0.01809704 -0.9996388
vn 0.01348467 0.007777039 -0.9998789
vn 0.02480437 0.004271113 -0.9996831
vn 0.9948362 0.09625738 -0.03218058
vn 0.9933503 0.06752839 -0.09324674
vn 0.9864972 0.1600901 0.03456032
vn 0.9820639 0.1679202 0.08575163
vn 0.9887571 0.137567 0.05860781
vn 0.9973246 0.03348264 -0.06498089
vn 0.9905014 0.06286188 -0.1222922
vn 0.9992447 -0.01268817 -0.03672882
vn 0.998915 -0.03498184 -0.03074192
vn 0.9870664 -0.02991509 0.1574957
vn 0.9897208 0.1316076 -0.05596561
vn 0.9843153 -0.01928287 0.1753609
vn 0.9337628 -0.01287893 0.3576605
vn 0.9139196 0.01232272 0.4057081
vn 0.9287221 0.3598486 -0.08935498
vn 0.05236327 0.9935637 -0.100446
vn -0.04314262 0.9990671 0.001936889
vn 0.0149733 0.9987115 -0.04848908
vn -0.04466177 0.9989001 0.01427966
vn 0.378573 0.8627132 0.3352737
vn 0.002363927 0.9672129 0.2539563
vn 0.6045618 0.6347645 0.4812265
vn 0.2840205 0.9578692 0.04264732
vn 0.2196342 0.9093722 -0.3532748
vn 0.1677877 -0.03783555 0.9850969
vn 0.1756772 -0.04293975 0.9835109
vn 0.1998759 -0.02614805 0.9794723
vn 0.1325132 -0.06255136 0.9892055
vn 0.1731513 -0.01823787 0.9847264
vn -0.993531 -0.02038104 0.1117167
vn -0.8888295 0.2307338 0.3959091
vn -0.9540364 -0.01946119 0.2990582
vn -0.9954627 -0.08642077 0.03981786
vn -0.7572087 0.3596902 0.5452137
vn -0.998791 -0.04740734 0.01300395
vn -0.1492597 0.07939272 -0.9856055
vn -0.1670996 0.07422464 -0.9831421
vn -0.148835 0.09811763 -0.9839823
vn -0.1682404 0.05702904 -0.9840949
vn -0.1131954 0.08809244 -0.9896598
vn 0.001480325 0.9999989 0.0001065065
vn 0.0003919782 0.9999998 -0.0006920866
vn -0.01060637 0.9998798 0.01130143
vn 0.0153548 0.9997085 -0.01863419
vn -0.0173765 0.9998323 0.005778884
vn 0.01881095 0.9995574 -0.02304315
vn 0.02157873 0.9996495 -0.01533738
vn -0.8577974 -0.4483629 -0.2513055
vn -0.8577974 -0.4483629 -0.2513055
vn -0.8577974 -0.4483629 -0.2513055
vn -0.002744514 -0.01410664 -0.9998968
vn 0.006618061 0.08073245 -0.9967139
vn 0.0394891 0.04096093 -0.9983801
vn -0.002981918 -0.03023611 -0.9995383
vn 0.1332434 0.04068787 -0.9902478
vn 0.04001509 0.253414 -0.9665299
vn -0.9961372 0.08350732 0.02715279
vn -0.9988986 0.03773894 0.02788087
vn -0.997719 0.06067504 0.02958379
vn -0.9716315 0.2354241 0.02252908
vn -0.9487334 0.3159539 0.008832145
vn -0.9990221 0.02002893 0.03941699
vn -0.003692681 0.01612979 0.9998631
vn -0.01991864 0.0003134013 0.9998016
vn -0.02113577 -0.0008734188 0.9997763
vn -0.03818781 -0.01750677 0.9991172
vn -0.9977443 0.03985735 -0.05401628
vn -0.9996693 0.01261347 0.02241082
vn -0.9881592 0.1033238 -0.1134265
vn -0.9755368 0.1209204 -0.1835928
vn -0.9847332 0.08627474 -0.151186
vn -0.9996792 -0.0215529 -0.01330186
vn -0.9984321 0.004306664 0.05581054
vn -0.1209545 0.9757244 0.1825705
vn -0.009264425 0.9978816 0.06439278
vn -0.06227848 0.992708 0.1032095
vn -0.005003755 0.9989117 0.04637031
vn -0.3895301 0.8468776 -0.3620286
vn -0.02341696 0.9772781 -0.2106636
vn -0.6089852 0.5897527 -0.5304043
vn -0.345242 0.9382266 -0.0232133
vn -0.2862952 0.8493269 0.4434849
vn -0.08533177 0.004578062 -0.9963421
vn -0.09256399 0.0001821764 -0.9957067
vn -0.11382 0.01266482 -0.9934207
vn -0.0543991 -0.01408665 -0.9984199
vn -0.09104249 0.02065543 -0.9956327
vn 0.9973524 0.05560015 -0.04687124
vn 0.888518 0.2791913 -0.3641261
vn 0.9736033 0.02875858 -0.226428
vn 0.9987167 -0.03613523 0.03548473
vn 0.7473807 0.4233153 -0.5120804
vn 0.9972475 0.005524993 0.073937
vn 0.06819967 0.02901143 0.9972498
vn 0.08378679 0.02524181 0.996164
vn 0.06697146 0.04449966 0.996762
vn 0.08504517 0.01137051 0.9963122
vn 0.03691478 0.0343833 0.9987267
g Area_LY_Build_Common_Plot_03_Vo_0
f 3/3/3 2/2/2 1/1/1
f 1/1/1 2/2/2 4/4/4
f 2/2/2 5/5/5 4/4/4
f 5/5/5 6/6/6 4/4/4
f 2/2/2 7/7/7 5/5/5
f 7/7/7 8/8/8 5/5/5
f 11/11/11 10/10/10 9/9/9
f 12/12/12 10/10/10 11/11/11
f 12/12/12 13/13/13 10/10/10
f 12/12/12 11/11/11 14/14/14
f 11/11/11 15/15/15 14/14/14
f 15/15/15 16/16/16 14/14/14
f 16/16/16 15/15/15 17/17/17
f 18/18/18 16/16/16 17/17/17
f 18/18/18 13/13/13 19/19/19
f 18/18/18 19/19/19 16/16/16
f 19/19/19 14/14/14 16/16/16
f 12/12/12 19/19/19 13/13/13
f 19/19/19 12/12/12 14/14/14
f 18/18/18 20/20/20 13/13/13
f 18/18/18 17/17/17 20/20/20
f 21/21/21 13/13/13 20/20/20
f 22/22/22 20/20/20 17/17/17
f 25/25/25 24/24/24 23/23/23
f 26/26/26 25/25/25 23/23/23
f 24/24/24 27/27/27 23/23/23
f 28/28/28 24/24/24 25/25/25
f 24/24/24 29/29/29 27/27/27
f 32/32/32 31/31/31 30/30/30
f 31/31/31 32/32/32 33/33/33
f 31/31/31 33/33/33 34/34/34
f 37/37/37 36/36/36 35/35/35
f 38/38/38 37/37/37 35/35/35
f 41/41/41 40/40/40 39/39/39
f 39/39/39 42/42/42 41/41/41
f 43/43/43 42/42/42 39/39/39
f 40/40/40 44/44/44 39/39/39
f 44/44/44 40/40/40 45/45/45
f 48/48/48 47/47/47 46/46/46
f 46/46/46 47/47/47 49/49/49
f 48/48/48 46/46/46 50/50/50
f 51/51/51 48/48/48 50/50/50
f 52/52/52 51/51/51 50/50/50
f 49/49/49 53/53/53 46/46/46
f 56/56/56 55/55/55 54/54/54
f 57/57/57 54/54/54 55/55/55
f 58/58/58 54/54/54 57/57/57
f 59/59/59 58/58/58 57/57/57
f 58/58/58 59/59/59 60/60/60
f 58/58/58 60/60/60 61/61/61
f 61/61/61 54/54/54 58/58/58
f 56/56/56 54/54/54 62/62/62
f 65/65/65 64/64/64 63/63/63
f 63/63/63 64/64/64 66/66/66
f 65/65/65 63/63/63 67/67/67
f 70/70/70 69/69/69 68/68/68
f 71/71/71 70/70/70 68/68/68
f 69/69/69 72/72/72 68/68/68
f 72/72/72 69/69/69 70/70/70
f 73/73/73 71/71/71 68/68/68
f 76/76/76 75/75/75 74/74/74
f 75/75/75 77/77/77 74/74/74
f 77/77/77 78/78/78 74/74/74
f 81/81/81 80/80/80 79/79/79
f 80/80/80 82/82/82 79/79/79
f 81/81/81 83/83/83 80/80/80
f 80/80/80 84/84/84 82/82/82
f 85/85/85 82/82/82 84/84/84
f 88/88/88 87/87/87 86/86/86
f 91/91/91 90/90/90 89/89/89
f 92/92/92 89/89/89 90/90/90
f 91/91/91 89/89/89 93/93/93
f 94/94/94 90/90/90 91/91/91
f 97/97/97 96/96/96 95/95/95
f 95/95/95 98/98/98 97/97/97
f 99/99/99 98/98/98 95/95/95
f 100/100/100 96/96/96 97/97/97
f 103/103/103 102/102/102 101/101/101
f 103/103/103 104/104/104 102/102/102
f 107/107/107 106/106/106 105/105/105
f 105/105/105 108/108/108 107/107/107
f 109/109/109 108/108/108 105/105/105
f 106/106/106 110/110/110 105/105/105
f 110/110/110 106/106/106 111/111/111
f 114/114/114 113/113/113 112/112/112
f 115/115/115 112/112/112 113/113/113
f 116/116/116 112/112/112 115/115/115
f 117/117/117 116/116/116 115/115/115
f 116/116/116 117/117/117 118/118/118
f 116/116/116 118/118/118 119/119/119
f 119/119/119 112/112/112 116/116/116
f 114/114/114 112/112/112 120/120/120
f 123/123/123 122/122/122 121/121/121
f 121/121/121 122/122/122 124/124/124
f 123/123/123 121/121/121 125/125/125
f 128/128/128 127/127/127 126/126/126
f 129/129/129 128/128/128 126/126/126
f 127/127/127 130/130/130 126/126/126
f 130/130/130 127/127/127 128/128/128
f 131/131/131 129/129/129 126/126/126
f 134/134/134 133/133/133 132/132/132
f 133/133/133 135/135/135 132/132/132
f 135/135/135 136/136/136 132/132/132
