g Brow
v 0.02792055 1.708411 0.1270723
v 0.02527078 1.707202 0.1276105
v 0.02416743 1.709132 0.1284519
v 0.02663263 1.711056 0.1282727
v 0.02235289 1.705871 0.1281369
v 0.02167454 1.706904 0.1285826
v 0.01909844 1.704386 0.1286732
v 0.03095523 1.709658 0.1262878
v 0.02971939 1.712529 0.127493
v 0.03317216 1.713799 0.1265672
v 0.03426239 1.710838 0.1254067
v 0.0373834 1.711833 0.1244771
v 0.03652551 1.714741 0.1255455
v 0.04186573 1.712913 0.1228648
v 0.04125592 1.71575 0.1238462
v 0.046339 1.713981 0.1210619
v 0.0460021 1.716661 0.1220094
v 0.05080316 1.71501 0.1190459
v 0.05069343 1.717285 0.1198742
v 0.05516268 1.715878 0.116737
v 0.05522073 1.71779 0.1173632
v 0.05858973 1.7165 0.1146969
v 0.05868836 1.718029 0.1151174
v 0.0629324 1.717527 0.1107583
v -0.02792055 1.708411 0.1270723
v -0.02663263 1.711056 0.1282727
v -0.02416743 1.709132 0.1284519
v -0.02527078 1.707202 0.1276105
v -0.02235289 1.705871 0.1281369
v -0.02167454 1.706904 0.1285826
v -0.01909844 1.704386 0.1286732
v -0.03095523 1.709658 0.1262878
v -0.02971939 1.712529 0.127493
v -0.03317216 1.713799 0.1265672
v -0.03426239 1.710838 0.1254067
v -0.0373834 1.711833 0.1244771
v -0.03652551 1.714741 0.1255455
v -0.04186573 1.712913 0.1228648
v -0.04125592 1.71575 0.1238462
v -0.046339 1.713981 0.1210619
v -0.0460021 1.716661 0.1220094
v -0.05080316 1.71501 0.1190459
v -0.05069343 1.717285 0.1198742
v -0.05516268 1.715878 0.116737
v -0.05522073 1.71779 0.1173632
v -0.05858973 1.7165 0.1146969
v -0.05868836 1.718029 0.1151174
v -0.0629324 1.717527 0.1107583
vt 0.917515 0.9470661
vt 0.9360146 0.9473409
vt 0.9379625 0.961087
vt 0.9198934 0.9668425
vt 0.9563861 0.9476435
vt 0.9578323 0.9547579
vt 0.9791073 0.9479811
vt 0.8961895 0.9492908
vt 0.9001849 0.9695494
vt 0.879782 0.9719905
vt 0.8750659 0.9523869
vt 0.8553387 0.9561927
vt 0.8598253 0.9740242
vt 0.8290089 0.9607105
vt 0.8323967 0.9762374
vt 0.8050334 0.9639247
vt 0.8066939 0.9774148
vt 0.7824748 0.9656969
vt 0.7830853 0.9771743
vt 0.7587554 0.9660315
vt 0.7586406 0.9763814
vt 0.7394963 0.9665031
vt 0.7391468 0.9746535
vt 0.7117557 0.9666493
vt 0.917515 0.9470661
vt 0.9198934 0.9668425
vt 0.9379625 0.961087
vt 0.9360146 0.9473409
vt 0.9563861 0.9476435
vt 0.9578323 0.9547579
vt 0.9791073 0.9479811
vt 0.8961895 0.9492908
vt 0.9001849 0.9695494
vt 0.879782 0.9719905
vt 0.8750659 0.9523869
vt 0.8553387 0.9561927
vt 0.8598253 0.9740242
vt 0.8290089 0.9607105
vt 0.8323967 0.9762374
vt 0.8050334 0.9639247
vt 0.8066939 0.9774148
vt 0.7824748 0.9656969
vt 0.7830853 0.9771743
vt 0.7587554 0.9660315
vt 0.7586406 0.9763814
vt 0.7394963 0.9665031
vt 0.7391468 0.9746535
vt 0.7117557 0.9666493
vn 0.3196454 -0.2487672 0.9142985
vn 0.2823882 -0.2532147 0.9252779
vn 0.2824175 -0.2532479 0.9252599
vn 0.318515 -0.2491953 0.9145764
vn 0.269215 -0.2393258 0.93287
vn 0.2691016 -0.2392416 0.9329243
vn 0.2606559 -0.2329702 0.936901
vn 0.3344517 -0.2397246 0.9114133
vn 0.3350615 -0.2398976 0.9111437
vn 0.3363083 -0.2355343 0.9118226
vn 0.3373196 -0.234994 0.9115883
vn 0.362435 -0.2277768 0.903747
vn 0.3599788 -0.2282843 0.9046002
vn 0.3880557 -0.2331273 0.8916639
vn 0.3862858 -0.2321093 0.8926973
vn 0.4187101 -0.2539145 0.8718999
vn 0.4171549 -0.2527465 0.8729839
vn 0.4622689 -0.2739373 0.8433658
vn 0.4605607 -0.2735389 0.844429
vn 0.5069723 -0.2759241 0.8166059
vn 0.506559 -0.2760419 0.8168225
vn 0.5915736 -0.2567632 0.7642731
vn 0.5875319 -0.2576252 0.7670955
vn 0.682957 -0.2344615 0.6918075
vn -0.319638 -0.2487607 0.9143028
vn -0.3185073 -0.2491886 0.9145808
vn -0.2824121 -0.2532411 0.9252635
vn -0.2823828 -0.2532079 0.9252815
vn -0.2692238 -0.2393297 0.9328665
vn -0.2691105 -0.2392457 0.9329206
vn -0.2606758 -0.232988 0.936891
vn -0.3344425 -0.2397173 0.9114187
vn -0.3350528 -0.2398907 0.9111487
vn -0.3362931 -0.2355225 0.9118312
vn -0.337304 -0.2349818 0.9115973
vn -0.3624316 -0.2277732 0.9037492
vn -0.3599736 -0.2282794 0.9046035
vn -0.388055 -0.2331267 0.8916644
vn -0.386286 -0.2321092 0.8926973
vn -0.4187021 -0.2539094 0.8719051
vn -0.417147 -0.2527416 0.8729892
vn -0.4622588 -0.273931 0.8433734
vn -0.4605507 -0.2735325 0.8444365
vn -0.5069688 -0.2759222 0.8166087
vn -0.5065553 -0.2760398 0.8168254
vn -0.5915662 -0.2567608 0.7642795
vn -0.5875255 -0.2576231 0.7671012
vn -0.6829298 -0.2344505 0.691838
g Brow_0
f 3/3/3 2/2/2 1/1/1
f 4/4/4 3/3/3 1/1/1
f 2/2/2 3/3/3 5/5/5
f 3/3/3 6/6/6 5/5/5
f 6/6/6 7/7/7 5/5/5
f 4/4/4 1/1/1 8/8/8
f 9/9/9 4/4/4 8/8/8
f 10/10/10 9/9/9 8/8/8
f 11/11/11 10/10/10 8/8/8
f 10/10/10 11/11/11 12/12/12
f 13/13/13 10/10/10 12/12/12
f 13/13/13 12/12/12 14/14/14
f 15/15/15 13/13/13 14/14/14
f 14/14/14 16/16/16 15/15/15
f 16/16/16 17/17/17 15/15/15
f 16/16/16 18/18/18 17/17/17
f 18/18/18 19/19/19 17/17/17
f 18/18/18 20/20/20 19/19/19
f 20/20/20 21/21/21 19/19/19
f 20/20/20 22/22/22 21/21/21
f 22/22/22 23/23/23 21/21/21
f 22/22/22 24/24/24 23/23/23
f 27/27/27 26/26/26 25/25/25
f 28/28/28 27/27/27 25/25/25
f 27/27/27 28/28/28 29/29/29
f 30/30/30 27/27/27 29/29/29
f 31/31/31 30/30/30 29/29/29
f 25/25/25 26/26/26 32/32/32
f 26/26/26 33/33/33 32/32/32
f 33/33/33 34/34/34 32/32/32
f 34/34/34 35/35/35 32/32/32
f 35/35/35 34/34/34 36/36/36
f 34/34/34 37/37/37 36/36/36
f 36/36/36 37/37/37 38/38/38
f 37/37/37 39/39/39 38/38/38
f 40/40/40 38/38/38 39/39/39
f 41/41/41 40/40/40 39/39/39
f 42/42/42 40/40/40 41/41/41
f 43/43/43 42/42/42 41/41/41
f 44/44/44 42/42/42 43/43/43
f 45/45/45 44/44/44 43/43/43
f 46/46/46 44/44/44 45/45/45
f 47/47/47 46/46/46 45/45/45
f 48/48/48 46/46/46 47/47/47
