g SkillObj_Ningguang_ElementalArt_02_Curtain_Model
v 2.6896 0.2886217 9.481582E-08
v 2.566114 2.042966 3.806348E-07
v 2.6896 2.013422 3.758215E-07
v 2.42591 2.114508 3.922904E-07
v 1.390908 0.2886217 9.481582E-08
v 1.390908 2.323917 4.264074E-07
v 2.326554 2.216239 4.088645E-07
v 2.253239 2.323917 4.264074E-07
v -2.6896 0.2886217 9.481582E-08
v -2.6896 2.013422 3.758215E-07
v -2.566114 2.042966 3.806347E-07
v -2.42591 2.114508 3.922904E-07
v -1.390908 0.2886217 9.481582E-08
v -1.390908 2.323917 4.264074E-07
v -2.326554 2.216239 4.088645E-07
v -2.253239 2.323917 4.264074E-07
v 0.01837041 0.2886217 9.481582E-08
v 0.01837041 2.148381 3.978091E-07
v 0.1569528 2.16214 4.000507E-07
v 0.2799761 2.206583 4.072914E-07
v 1.317063 0.2886217 9.481582E-08
v 1.317063 2.323917 4.264074E-07
v 0.3700952 2.266559 4.170627E-07
v 0.4320876 2.323917 4.264074E-07
v -0.01837041 0.2886217 9.481582E-08
v -0.1569528 2.16214 4.000507E-07
v -0.01837041 2.148381 3.978091E-07
v -0.2799761 2.206583 4.072914E-07
v -1.317063 0.2886217 9.481582E-08
v -1.317063 2.323917 4.264074E-07
v -0.3700952 2.266559 4.170627E-07
v -0.4320876 2.323917 4.264074E-07
vt 0.01756467 0.01406704
vt 0.04724325 0.8505956
vt 0.01756467 0.8365083
vt 0.08093996 0.8847095
vt 0.3296917 0.01406704
vt 0.3296917 0.9845622
vt 0.1048191 0.9332178
vt 0.1224394 0.9845622
vt 0.01756467 0.01406704
vt 0.01756467 0.8365083
vt 0.04724325 0.8505956
vt 0.08093996 0.8847095
vt 0.3296917 0.01406704
vt 0.3296917 0.9845622
vt 0.1048191 0.9332178
vt 0.1224394 0.9845622
vt 0.6699404 0.01406704
vt 0.6699404 0.9008613
vt 0.7032471 0.9074216
vt 0.7328146 0.928614
vt 0.9820674 0.01406704
vt 0.9820674 0.9845622
vt 0.7544736 0.9572123
vt 0.7693728 0.9845622
vt 0.6561624 0.01406704
vt 0.6228555 0.9074216
vt 0.6561624 0.9008613
vt 0.5932881 0.928614
vt 0.3440353 0.01406704
vt 0.3440353 0.9845622
vt 0.5716289 0.9572123
vt 0.5567298 0.9845622
vn 0 -1.629207E-07 1
vn 0 -1.629207E-07 1
vn 0 -1.629207E-07 1
vn 0 -1.629207E-07 1
vn 0 -1.629207E-07 1
vn 0 -1.629207E-07 1
vn 0 -1.629206E-07 1
vn 0 -1.629206E-07 1
vn 0 -1.629207E-07 1
vn 0 -1.629207E-07 1
vn 0 -1.629207E-07 1
vn 0 -1.629207E-07 1
vn 0 -1.629207E-07 1
vn 0 -1.629207E-07 1
vn 0 -1.629206E-07 1
vn 0 -1.629206E-07 1
vn 0 -1.629207E-07 1
vn 0 -1.629207E-07 1
vn 0 -1.629207E-07 1
vn 0 -1.629207E-07 1
vn 0 -1.629207E-07 1
vn 0 -1.629207E-07 1
vn 0 -1.629206E-07 1
vn 0 -1.629205E-07 1
vn 0 -1.629207E-07 1
vn 0 -1.629207E-07 1
vn 0 -1.629207E-07 1
vn 0 -1.629207E-07 1
vn 0 -1.629207E-07 1
vn 0 -1.629207E-07 1
vn 0 -1.629206E-07 1
vn 0 -1.629205E-07 1
g SkillObj_Ningguang_ElementalArt_02_Curtain_Model_0
f 3/3/3 2/2/2 1/1/1
f 2/2/2 4/4/4 1/1/1
f 4/4/4 5/5/5 1/1/1
f 6/6/6 5/5/5 4/4/4
f 7/7/7 6/6/6 4/4/4
f 8/8/8 6/6/6 7/7/7
f 11/11/11 10/10/10 9/9/9
f 12/12/12 11/11/11 9/9/9
f 13/13/13 12/12/12 9/9/9
f 13/13/13 14/14/14 12/12/12
f 14/14/14 15/15/15 12/12/12
f 14/14/14 16/16/16 15/15/15
f 19/19/19 18/18/18 17/17/17
f 20/20/20 19/19/19 17/17/17
f 21/21/21 20/20/20 17/17/17
f 21/21/21 22/22/22 20/20/20
f 22/22/22 23/23/23 20/20/20
f 22/22/22 24/24/24 23/23/23
f 27/27/27 26/26/26 25/25/25
f 26/26/26 28/28/28 25/25/25
f 28/28/28 29/29/29 25/25/25
f 30/30/30 29/29/29 28/28/28
f 31/31/31 30/30/30 28/28/28
f 32/32/32 30/30/30 31/31/31
