g EffectMesh
v 0.04157291 0.9739315 0.06840228
v 0.02816441 0.996345 0.06318395
v 0.03912673 1.011222 0.007899842
v 0.06030209 0.9883236 0.007531671
v 2.443452E-18 0.9933104 0.07210135
v -6.352359E-18 0.9726406 0.07880761
v 0.03103943 1.016182 -0.0293025
v 0.04478272 0.987471 -0.03045642
v 4.120066E-17 1.016182 -0.03873327
v 2.60892E-18 0.982884 -0.04304466
v -3.153854E-18 0.9189686 0.09570772
v 0.05666324 0.9172318 0.08271255
v 6.975468E-18 0.8681224 0.100669
v 0.06009848 0.8713826 0.0858281
v 0.07154399 0.7681608 0.09300356
v -7.901464E-18 0.7669522 0.1120589
v -6.995476E-18 0.9239065 -0.05016628
v 0.06187325 0.9206086 -0.03675891
v 6.843913E-18 0.8648717 -0.04592674
v 0.0683753 0.8693193 -0.03005899
v 0.08694254 0.7689804 -0.05205373
v 2.839373E-18 0.7691619 -0.06983992
v 0.1101372 0.6834875 -0.07966696
v 8.708906E-17 0.6833218 -0.1038086
v 0.0784345 0.8729244 0.04174255
v 0.0784345 0.8729244 0.04174255
v 0.1085257 0.7657688 0.03566804
v 0.0683753 0.8693193 -0.03005899
v 0.08694254 0.7689804 -0.05205373
v 0.1101372 0.6834875 -0.07966696
v 0.1517648 0.6741961 0.02329862
v 0.1085257 0.7657688 0.03566804
v 0.1085257 0.7657688 0.03566804
v 0.09333901 0.6676531 0.09682956
v 0.07154399 0.7681608 0.09300356
v 0.07154399 0.7681608 0.09300356
v -7.278104E-17 0.665391 0.1149078
v -7.901464E-18 0.7669522 0.1120589
v -0.04157291 0.9739315 0.06840228
v -0.06030209 0.9883236 0.007531671
v -0.03912673 1.011222 0.007899842
v -0.02816441 0.996345 0.06318395
v 2.443452E-18 0.9933104 0.07210135
v -6.352359E-18 0.9726406 0.07880761
v -0.03103943 1.016182 -0.0293025
v -0.04478272 0.987471 -0.03045642
v 4.120066E-17 1.016182 -0.03873327
v 2.60892E-18 0.982884 -0.04304466
v -0.06187325 0.9206086 -0.03675891
v -6.995476E-18 0.9239065 -0.05016628
v -0.0683753 0.8693193 -0.03005899
v 6.843913E-18 0.8648717 -0.04592674
v -0.08376011 0.953145 -0.0353762
v -3.153854E-18 0.9189686 0.09570772
v -0.05666324 0.9172318 0.08271255
v 6.975468E-18 0.8681224 0.100669
v -0.06009848 0.8713826 0.0858281
v -0.07867575 0.9425455 0.04485321
v -0.0784345 0.8729244 0.04174255
v -0.06030209 0.9883236 0.007531671
v -0.0957294 0.9661188 0.00640127
v -0.08376011 0.953145 -0.0353762
v -0.04478272 0.987471 -0.03045642
v -0.07867575 0.9425455 0.04485321
v -0.04157291 0.9739315 0.06840228
v -0.1124952 0.8972569 0.03722511
v -0.1360387 0.9152218 0.003560903
v -0.0957294 0.9661188 0.00640127
v -0.08694254 0.7689804 -0.05205373
v 2.839373E-18 0.7691619 -0.06983992
v 6.843913E-18 0.8648717 -0.04592674
v -0.0683753 0.8693193 -0.03005899
v -0.1101372 0.6834875 -0.07966696
v 8.708906E-17 0.6833218 -0.1038086
v 6.975468E-18 0.8681224 0.100669
v -7.901464E-18 0.7669522 0.1120589
v -0.07154399 0.7681608 0.09300356
v -0.06009848 0.8713826 0.0858281
v -0.0784345 0.8729244 0.04174255
v -0.1085257 0.7657688 0.03566804
v -0.0683753 0.8693193 -0.03005899
v -0.08694254 0.7689804 -0.05205373
v -0.1085257 0.7657688 0.03566804
v -0.07154399 0.7681608 0.09300356
v -0.09333901 0.6676531 0.09682956
v -0.1517648 0.6741961 0.02329862
v -0.08694254 0.7689804 -0.05205373
v -0.1101372 0.6834875 -0.07966696
v -0.07154399 0.7681608 0.09300356
v -7.278104E-17 0.665391 0.1149078
v -7.901464E-18 0.7669522 0.1120589
v -0.08376011 0.953145 -0.0353762
v -0.0957294 0.9661188 0.00640127
v -0.1360387 0.9152218 0.003560903
v -0.1205419 0.9070951 -0.04071233
v -0.08376011 0.953145 -0.0353762
v -0.1205419 0.9070951 -0.04071233
v -0.08856346 0.8870935 -0.03828167
v -0.06187325 0.9206086 -0.03675891
v 0.08376011 0.953145 -0.0353762
v 0.04478272 0.987471 -0.03045642
v 0.0957294 0.9661188 0.00640127
v 0.07867575 0.9425455 0.04485321
v 0.1360387 0.9152218 0.003560903
v 0.1124952 0.8972569 0.03722511
v 0.0957294 0.9661188 0.00640127
v 0.06187325 0.9206086 -0.03675891
v 0.08818088 0.8868649 -0.03791995
v 0.1205419 0.9070951 -0.04071233
v 0.08376011 0.953145 -0.0353762
v -0.08638133 0.8771461 0.03099635
v -0.1124952 0.8972569 0.03722511
v -0.07867575 0.9425455 0.04485321
v 0.08376011 0.953145 -0.0353762
v 0.1205419 0.9070951 -0.04071233
v 0.1360387 0.9152218 0.003560903
v 0.0957294 0.9661188 0.00640127
v 0.07867575 0.9425455 0.04485321
v 0.1124952 0.8972569 0.03722511
v 0.08638133 0.8771461 0.03099635
v 0.05666324 0.9172318 0.08271255
v 0.07867575 0.9425455 0.04485321
v 0.0784345 0.8729244 0.04174255
vt 0.625 0.25
vt 0.625 0.25
vt 0.625 0.375
vt 0.625 0.375
vt 0.5 0.25
vt 0.5 0.25
vt 0.625 0.5
vt 0.625 0.5
vt 0.5 0.5
vt 0.5 0.5
vt 0.5 0.25
vt 0.625 0.25
vt 0.5 0.25
vt 0.625 0.25
vt 0.625 0.02775
vt 0.5 0.026017
vt 0.5 0.5
vt 0.625 0.5
vt 0.5 0.5
vt 0.625 0.5
vt 0.624305 0.715034
vt 0.5 0.714313
vt 0.625 0.75
vt 0.5 0.75
vt 0.625 0.375
vt 0.75 0.25
vt 0.75 0.033081
vt 0.875 0.25
vt 0.874549 0.035007
vt 0.625 0.75
vt 0.625 0.875
vt 0.625 0.875
vt 0.625 0.875
vt 0.625 1
vt 0.625 0.997733
vt 0.625 0.997733
vt 0.5 1
vt 0.5 1
vt 0.625 0.25
vt 0.625 0.375
vt 0.625 0.375
vt 0.625 0.25
vt 0.5 0.25
vt 0.5 0.25
vt 0.625 0.5
vt 0.625 0.5
vt 0.5 0.5
vt 0.5 0.5
vt 0.625 0.5
vt 0.5 0.5
vt 0.625 0.5
vt 0.5 0.5
vt 0.625 0.448072
vt 0.5 0.25
vt 0.625 0.25
vt 0.5 0.25
vt 0.625 0.25
vt 0.90625 0.201618
vt 0.625 0.375
vt 0.625 0.375
vt 0.625 0.375
vt 0.625 0.448072
vt 0.625 0.5
vt 0.90625 0.201618
vt 0.625 0.25
vt 1 1
vt 0 1
vt 0 0.126383
vt 0.624305 0.715034
vt 0.5 0.714313
vt 0.5 0.5
vt 0.625 0.5
vt 0.625 0.75
vt 0.5 0.75
vt 0.5 0.25
vt 0.5 0.026017
vt 0.625 0.02775
vt 0.625 0.25
vt 0.75 0.25
vt 0.75 0.033081
vt 0.875 0.25
vt 0.874549 0.035007
vt 0.625 0.875
vt 0.625 0.997733
vt 0.625 1
vt 0.625 0.875
vt 0.624305 0.715034
vt 0.625 0.75
vt 0.625 0.997733
vt 0.5 1
vt 0.5 1
vt 0 0.126383
vt 1 0.126383
vt 1 1
vt 0 1
vt 0 0
vt 1 0
vt 1 1
vt 0 1
vt 0.625 0.448072
vt 0.625 0.5
vt 0.625 0.375
vt 0.90625 0.201618
vt 0 1
vt 1 1
vt 0 0.126383
vt 0 1
vt 1 1
vt 1 0
vt 0 0
vt 0 1
vt 0 0
vt 1 0
vt 0 0.126383
vt 0 1
vt 1 1
vt 1 0.126383
vt 1 0
vt 0 0
vt 0 1
vt 0.625 0.25
vt 0.90625 0.201618
vt 0.625 0.375
vn 0.3727584 0.5685499 0.73335
vn 0.6569617 0.1964854 0.72787
vn 0.9467365 0.3216687 0.01480719
vn 0.7314806 0.6723309 0.11361
vn 0 0.05881416 0.998269
vn 0 0.4463281 0.8948694
vn 0.5532727 0.3285863 -0.7654544
vn 0.4148346 0.4923392 -0.765189
vn -1.141569E-07 0.2548766 -0.9669736
vn 0 0.2696904 -0.9629471
vn 0 0.5348114 0.8449715
vn 0.2959585 0.5085605 0.8085635
vn 0 0.2056199 0.978632
vn 0.6192926 0.1194316 0.7760237
vn 0.6559411 0.1302151 0.7434953
vn 0 0.09353264 0.9956162
vn 0 0.01377568 -0.9999051
vn 0.145125 0.01648795 -0.9892759
vn 0 -0.2060833 -0.9785345
vn 0.6282865 -0.1393084 -0.7654078
vn 0.7269217 0.2016433 -0.6564486
vn 0 0.1563736 -0.987698
vn 0.6136941 0.3904245 -0.6862566
vn 0 0.3861523 -0.922435
vn 0.9672771 0.2121411 0.1391804
vn 0.9672771 0.2121411 0.1391804
vn 0.9816365 0.1870894 -0.0372474
vn 0.6282865 -0.1393084 -0.7654078
vn 0.7269217 0.2016433 -0.6564486
vn 0.6136941 0.3904245 -0.6862566
vn 0.9287084 0.3681827 0.04407159
vn 0.9816365 0.1870894 -0.0372474
vn 0.9816365 0.1870894 -0.0372474
vn 0.6086024 0.2785408 0.7429792
vn 0.6559411 0.1302151 0.7434953
vn 0.6559411 0.1302151 0.7434953
vn 0 0.2494344 0.9683917
vn 0 0.09353264 0.9956162
vn -0.3727585 0.5685502 0.7333497
vn -0.7314806 0.672331 0.1136092
vn -0.9467365 0.3216687 0.01480617
vn -0.6569622 0.1964855 0.7278696
vn 0 0.05881416 0.998269
vn 0 0.4463281 0.8948694
vn -0.5532725 0.3285863 -0.7654545
vn -0.4148344 0.492339 -0.7651893
vn -1.141569E-07 0.2548766 -0.9669736
vn 0 0.2696904 -0.9629471
vn -0.1255808 0.04108579 -0.9912322
vn 0 0.01377568 -0.9999051
vn -0.6282865 -0.1393083 -0.7654078
vn 0 -0.2060833 -0.9785345
vn -0.4696906 0.5246354 -0.7100341
vn 0 0.5348114 0.8449715
vn -0.4555123 0.1719992 0.8734558
vn 0 0.2056199 0.978632
vn -0.6192927 0.1194316 0.7760236
vn -0.6812968 0.4317585 0.591117
vn -0.9672771 0.2121411 0.1391803
vn -0.7314806 0.672331 0.1136092
vn -0.7167686 0.6770748 0.1667705
vn -0.4696906 0.5246354 -0.7100341
vn -0.4148344 0.492339 -0.7651893
vn -0.6812968 0.4317585 0.591117
vn -0.3727585 0.5685502 0.7333497
vn -0.531067 0.3077953 0.7894492
vn -0.7891656 0.5897935 0.1713514
vn -0.7167686 0.6770748 0.1667705
vn -0.7269216 0.2016432 -0.6564488
vn 0 0.1563736 -0.987698
vn 0 -0.2060833 -0.9785345
vn -0.6282865 -0.1393083 -0.7654078
vn -0.6136941 0.3904243 -0.6862568
vn 0 0.3861523 -0.922435
vn 0 0.2056199 0.978632
vn 0 0.09353264 0.9956162
vn -0.6559411 0.130215 0.7434953
vn -0.6192927 0.1194316 0.7760236
vn -0.9672771 0.2121411 0.1391803
vn -0.9816365 0.1870894 -0.03724751
vn -0.6282865 -0.1393083 -0.7654078
vn -0.7269216 0.2016432 -0.6564488
vn -0.9816365 0.1870894 -0.03724751
vn -0.6559411 0.130215 0.7434953
vn -0.6086024 0.2785408 0.7429792
vn -0.9287083 0.3681827 0.04407143
vn -0.7269216 0.2016432 -0.6564488
vn -0.6136941 0.3904243 -0.6862568
vn -0.6559411 0.130215 0.7434953
vn 0 0.2494344 0.9683917
vn 0 0.09353264 0.9956162
vn -0.4696906 0.5246354 -0.7100341
vn -0.7167686 0.6770748 0.1667705
vn -0.7891656 0.5897935 0.1713514
vn -0.4833604 0.4320028 -0.7614042
vn -0.4696906 0.5246354 -0.7100341
vn -0.4833604 0.4320028 -0.7614042
vn -0.02782865 0.04044589 -0.9987941
vn -0.1255808 0.04108579 -0.9912322
vn 0.4696906 0.5246356 -0.710034
vn 0.4148346 0.4923392 -0.765189
vn 0.7270799 0.6743661 0.1287839
vn 0.6812969 0.4317586 0.5911168
vn 0.7896204 0.5988591 0.1336694
vn 0.5310672 0.3077956 0.789449
vn 0.7270799 0.6743661 0.1287839
vn 0.145125 0.01648795 -0.9892759
vn -0.05931915 0.0343319 -0.9976485
vn 0.4833605 0.4320029 -0.761404
vn 0.4696906 0.5246356 -0.710034
vn 0.0673147 -0.214393 0.9744252
vn -0.531067 0.3077953 0.7894492
vn -0.6812968 0.4317585 0.591117
vn 0.4696906 0.5246356 -0.710034
vn 0.4833605 0.4320029 -0.761404
vn 0.7896204 0.5988591 0.1336694
vn 0.7270799 0.6743661 0.1287839
vn 0.6812969 0.4317586 0.5911168
vn 0.5310672 0.3077956 0.789449
vn -0.06731459 -0.2143927 0.9744253
vn 0.2959585 0.5085605 0.8085635
vn 0.6812969 0.4317586 0.5911168
vn 0.9672771 0.2121411 0.1391804
g EffectMesh_0
f 3/3/3 2/2/2 1/1/1
f 4/4/4 3/3/3 1/1/1
f 1/1/1 2/2/2 5/5/5
f 6/6/6 1/1/1 5/5/5
f 7/7/7 3/3/3 4/4/4
f 8/8/8 7/7/7 4/4/4
f 9/9/9 7/7/7 8/8/8
f 10/10/10 9/9/9 8/8/8
f 1/1/1 6/6/6 11/11/11
f 12/12/12 1/1/1 11/11/11
f 12/12/12 11/11/11 13/13/13
f 14/14/14 12/12/12 13/13/13
f 15/15/15 14/14/14 13/13/13
f 16/16/16 15/15/15 13/13/13
f 17/17/17 10/10/10 8/8/8
f 18/18/18 17/17/17 8/8/8
f 19/19/19 17/17/17 18/18/18
f 20/20/20 19/19/19 18/18/18
f 19/19/19 20/20/20 21/21/21
f 22/22/22 19/19/19 21/21/21
f 21/21/21 23/23/23 22/22/22
f 23/23/23 24/24/24 22/22/22
f 25/25/25 12/12/12 14/14/14
f 26/26/26 14/14/14 15/15/15
f 27/27/27 26/26/26 15/15/15
f 26/26/26 27/27/27 28/28/28
f 27/27/27 29/29/29 28/28/28
f 31/31/31 30/30/30 21/21/21
f 32/32/32 31/31/31 21/21/21
f 34/34/34 31/31/31 33/33/33
f 35/35/35 34/34/34 33/33/33
f 37/37/37 34/34/34 36/36/36
f 38/38/38 37/37/37 36/36/36
f 41/41/41 40/40/40 39/39/39
f 42/42/42 41/41/41 39/39/39
f 42/42/42 39/39/39 43/43/43
f 39/39/39 44/44/44 43/43/43
f 41/41/41 45/45/45 40/40/40
f 45/45/45 46/46/46 40/40/40
f 45/45/45 47/47/47 46/46/46
f 47/47/47 48/48/48 46/46/46
f 46/46/46 48/48/48 49/49/49
f 48/48/48 50/50/50 49/49/49
f 49/49/49 50/50/50 51/51/51
f 50/50/50 52/52/52 51/51/51
f 49/49/49 53/53/53 46/46/46
f 44/44/44 39/39/39 54/54/54
f 39/39/39 55/55/55 54/54/54
f 54/54/54 55/55/55 56/56/56
f 55/55/55 57/57/57 56/56/56
f 39/39/39 58/58/58 55/55/55
f 55/55/55 59/59/59 57/57/57
f 58/58/58 59/59/59 55/55/55
f 62/62/62 61/61/61 60/60/60
f 63/63/63 62/62/62 60/60/60
f 60/60/60 61/61/61 64/64/64
f 65/65/65 60/60/60 64/64/64
f 67/67/67 66/66/66 64/64/64
f 68/68/68 67/67/67 64/64/64
f 71/71/71 70/70/70 69/69/69
f 72/72/72 71/71/71 69/69/69
f 73/73/73 69/69/69 70/70/70
f 74/74/74 73/73/73 70/70/70
f 77/77/77 76/76/76 75/75/75
f 78/78/78 77/77/77 75/75/75
f 78/78/78 79/79/79 77/77/77
f 79/79/79 80/80/80 77/77/77
f 79/79/79 81/81/81 80/80/80
f 81/81/81 82/82/82 80/80/80
f 85/85/85 84/84/84 83/83/83
f 86/86/86 85/85/85 83/83/83
f 86/86/86 83/83/83 87/87/87
f 88/88/88 86/86/86 87/87/87
f 85/85/85 90/90/90 89/89/89
f 90/90/90 91/91/91 89/89/89
f 94/94/94 93/93/93 92/92/92
f 95/95/95 94/94/94 92/92/92
f 98/98/98 97/97/97 96/96/96
f 99/99/99 98/98/98 96/96/96
f 100/100/100 18/18/18 8/8/8
f 100/100/100 101/101/101 4/4/4
f 102/102/102 100/100/100 4/4/4
f 103/103/103 102/102/102 4/4/4
f 1/1/1 103/103/103 4/4/4
f 103/103/103 1/1/1 12/12/12
f 103/103/103 105/105/105 104/104/104
f 106/106/106 103/103/103 104/104/104
f 109/109/109 108/108/108 107/107/107
f 110/110/110 109/109/109 107/107/107
f 113/113/113 112/112/112 111/111/111
f 116/116/116 115/115/115 114/114/114
f 117/117/117 116/116/116 114/114/114
f 120/120/120 119/119/119 118/118/118
f 123/123/123 122/122/122 121/121/121
