g Stages_Build_Ruin11_Lod0
v -0.6534409 -0.03816925 0.007108037
v -0.1034422 -0.03254808 0.6718077
v 0.122091 -0.04593076 -0.7876302
v 0.2954627 -0.04623516 -0.8079207
v -0.6683407 -0.03964264 -0.1573364
v 0.4060287 -0.03266085 0.6999403
v 1.058541 -0.03867478 0.08851434
v 1.059249 -0.03805316 0.1572374
v -0.6284665 0.8619404 0.03390798
v -0.6254057 0.8233192 0.0867299
v -0.6711442 0.7573845 -0.07678929
v -0.6883648 0.701393 0.007450644
v -0.7651942 0.5270983 -0.1148027
v -0.05310749 0.3099877 0.8127487
v -0.0431019 0.8294347 0.809193
v 0.04718398 0.7673529 0.9229524
v 0.06586213 0.8688129 0.8485892
v 0.1333155 0.6136141 0.9795023
v 0.1550187 0.8692045 0.8986658
v 0.1440131 0.4398477 0.9673415
v -0.7630921 0.1720884 -0.1249563
v -0.6896859 0.0101625 0.003868255
v -0.1283883 0.008599008 0.7195526
v -0.6534409 -0.03816925 0.007108037
v -0.1034422 -0.03254808 0.6718077
v -0.6683407 -0.03964264 -0.1573364
v 0.1053162 0.573392 -0.8705655
v 0.211718 0.5347185 -0.95108
v 0.1853355 0.6206555 -0.9091558
v 0.1951395 0.20465 -0.9325341
v 0.1798133 0.8139301 -0.8849685
v 0.0648544 0.8222647 -0.8280769
v 0.127408 0.8564934 -0.7746361
v -0.211792 0.8246109 -0.5914462
v -0.1915265 0.8565271 -0.5288029
v -0.7630921 0.1720884 -0.1249563
v -0.6844731 0.0007115907 -0.1961113
v -0.6683407 -0.03964264 -0.1573364
v 0.1062494 -0.005705961 -0.8350002
v 0.122091 -0.04593076 -0.7876302
v -0.449651 0.8589383 -0.2834876
v -0.5474133 0.7417187 -0.3039559
v -0.587657 0.6420221 -0.2969177
v -0.6711442 0.7573845 -0.07678929
v -0.7651942 0.5270983 -0.1148027
v -0.6284665 0.8619404 0.03390798
v 0.211718 0.5347185 -0.95108
v 0.2685097 0.1846239 -0.9303648
v 0.2800459 0.6000674 -0.9464791
v 0.1951395 0.20465 -0.9325341
v 0.1853355 0.6206555 -0.9091558
v 0.2380375 0.6320441 -0.8918607
v 0.1798133 0.8139301 -0.8849685
v 0.2252682 0.8139279 -0.8812109
v 0.127408 0.8564934 -0.7746361
v 0.200415 0.853876 -0.7898353
v 0.4584536 0.6488066 -0.6829353
v 0.506085 0.8157297 -0.6599616
v 0.515607 0.6420376 -0.681135
v 1.05076 0.7955242 -0.006509086
v 0.9618605 0.8602882 -0.0211229
v 0.4525336 0.8551868 -0.6249799
v 1.118922 0.01178204 0.08243409
v 1.123489 0.6324645 0.08221047
v 1.011696 0.8619904 0.1710149
v 1.090078 0.7792123 0.1430265
v 1.019719 0.8159513 0.2591427
v 1.134945 0.6536858 0.1722423
v 1.12693 0.1529833 0.1585484
v 1.059249 -0.03805316 0.1572374
v 1.058541 -0.03867478 0.08851434
v 0.3514639 0.003948824 -0.8382528
v 0.2954627 -0.04623516 -0.8079207
v 0.122091 -0.04593076 -0.7876302
v 0.1062494 -0.005705961 -0.8350002
v -0.05310749 0.3099877 0.8127487
v 0.1440131 0.4398477 0.9673415
v 0.133258 0.2303087 0.8198882
v -0.1283883 0.008599008 0.7195526
v 0.4373233 0.3080489 0.7436267
v 0.503862 0.1697737 0.6837022
v 0.4055094 0.008612099 0.763785
v -0.1034422 -0.03254808 0.6718077
v 0.4060287 -0.03266085 0.6999403
v 0.9639896 0.003989439 0.2981281
v 1.12693 0.1529833 0.1585484
v 1.059249 -0.03805316 0.1572374
v 0.503862 0.1697737 0.6837022
v 0.4060287 -0.03266085 0.6999403
v 0.4055094 0.008612099 0.763785
v 0.4373233 0.3080489 0.7436267
v 1.134945 0.6536858 0.1722423
v 1.019719 0.8159513 0.2591427
v 0.215594 0.6981335 0.9153169
v 0.1333155 0.6136141 0.9795023
v 0.1440131 0.4398477 0.9673415
v 0.2432208 0.829939 0.8877615
v 0.1550187 0.8692045 0.8986658
v 1.011696 0.8619904 0.1710149
v 0.06586213 0.8688129 0.8485892
v 0.4525336 0.8551868 -0.6249799
v 0.1550187 0.8692045 0.8986658
v 0.9618605 0.8602882 -0.0211229
v -0.449651 0.8589383 -0.2834876
v -0.1915265 0.8565271 -0.5288029
v -0.6284665 0.8619404 0.03390798
v 0.200415 0.853876 -0.7898353
v 0.127408 0.8564934 -0.7746361
v 1.011696 0.8619904 0.1710149
vt 0.7863488 0.1473966
vt 0.6691198 0.1470987
vt 0.8019912 0.2974611
vt 0.7890457 0.3173359
vt 0.8048221 0.160129
vt 0.6219157 0.1978757
vt 0.6290955 0.3191621
vt 0.6218541 0.3132642
vt 0.8299849 0.03500939
vt 0.8369356 0.04086154
vt 0.844421 0.01672076
vt 0.8551568 0.02646613
vt 0.8814927 0.00633161
vt 0.9162788 0.164845
vt 0.836973 0.1667964
vt 0.8463792 0.185964
vt 0.8279707 0.1814331
vt 0.869982 0.200073
vt 0.8280796 0.1968842
vt 0.8971413 0.199429
vt 0.9364678 0.004771137
vt 0.9613922 0.02473354
vt 0.9626152 0.1480639
vt 0.9697011 0.02725817
vt 0.9716749 0.144886
vt 0.972227 0.004369921
vt 0.9756191 0.4454038
vt 0.9937207 0.4512333
vt 0.9874761 0.4376377
vt 0.9906558 0.5020435
vt 0.9840575 0.4075378
vt 0.9669147 0.4075394
vt 0.9695446 0.3957516
vt 0.917922 0.4070961
vt 0.9140459 0.3978258
vt 0.8204934 0.5084234
vt 0.8349986 0.5345709
vt 0.8323262 0.5424401
vt 0.9728364 0.5343511
vt 0.9703346 0.543044
vt 0.8650634 0.399248
vt 0.8582551 0.4205619
vt 0.8534648 0.4358885
vt 0.8236048 0.4150157
vt 0.8188851 0.4533733
vt 0.8157772 0.3935588
vt 0.6269237 0.9252325
vt 0.6143088 0.8703531
vt 0.6171853 0.9334134
vt 0.6245453 0.8718923
vt 0.6263846 0.9417201
vt 0.6183619 0.9428774
vt 0.6229467 0.9724451
vt 0.6173417 0.9708132
vt 0.6200129 0.9907506
vt 0.6123593 0.9838285
vt 0.5767168 0.9449419
vt 0.5688989 0.9698223
vt 0.5698361 0.9423528
vt 0.4539188 0.9696472
vt 0.4620548 0.9827331
vt 0.5707537 0.9801632
vt 0.4341899 0.8507437
vt 0.4373921 0.9457227
vt 0.4338347 0.9868005
vt 0.4334421 0.9696414
vt 0.4194589 0.9824377
vt 0.4254166 0.9503916
vt 0.423827 0.8722188
vt 0.4250681 0.8398563
vt 0.4366193 0.8402454
vt 0.5958825 0.8438328
vt 0.5989324 0.8330219
vt 0.6226142 0.8258563
vt 0.6272322 0.8340372
vt 0.9312304 0.1777495
vt 0.9036986 0.2047934
vt 0.9422217 0.2041594
vt 0.9784318 0.1670675
vt 0.934509 0.2481648
vt 0.9563116 0.2570498
vt 0.9795299 0.2394178
vt 0.9877201 0.1695419
vt 0.9902316 0.2388213
vt 0.9663996 0.3563579
vt 0.9456384 0.3868941
vt 0.9759041 0.3782396
vt 0.9367233 0.2764091
vt 0.9699665 0.2629381
vt 0.9605306 0.2578111
vt 0.9148688 0.2655151
vt 0.868617 0.3909708
vt 0.8426408 0.3728804
vt 0.8526664 0.2309084
vt 0.8646144 0.215881
vt 0.8916387 0.2165554
vt 0.8331805 0.237691
vt 0.8248978 0.2274387
vt 0.8308228 0.3802662
vt 0.4360581 0.370144
vt 0.5577134 0.2026666
vt 0.4231225 0.3650825
vt 0.4503866 0.2010909
vt 0.5994542 0.3269077
vt 0.6030309 0.2786575
vt 0.5814734 0.3730254
vt 0.5967456 0.2149846
vt 0.6014433 0.2239684
vt 0.425896 0.212388
vn -0.0007362788 -0.9999589 0.00904724
vn -0.0007218376 -0.9999588 0.00905605
vn -0.0007054665 -0.9999588 0.009059171
vn -0.0007096422 -0.9999588 0.009058986
vn -0.0007560382 -0.999959 0.009027958
vn -0.0007251843 -0.9999588 0.009055078
vn -0.0007317964 -0.9999588 0.009054529
vn -0.0007337061 -0.9999588 0.009052493
vn -0.8843288 0.3550694 0.3031306
vn -0.8144365 0.3193385 0.4844751
vn -0.9277376 0.362408 0.08923734
vn -0.9121793 0.185941 0.3651778
vn -0.841801 0.01880045 0.5394604
vn -0.752161 -0.005960064 0.6589525
vn -0.6566597 0.4764361 0.5846424
vn -0.4835196 0.2682173 0.8332276
vn -0.4317122 0.635905 0.6397261
vn -0.5260701 0.002418459 0.8504378
vn -0.2700979 0.4843828 0.832118
vn -0.5761162 -0.09230352 0.8121393
vn -0.8727135 -0.08153819 0.4813758
vn -0.8765048 -0.2956702 0.3798929
vn -0.7400931 -0.3197565 0.5916232
vn -0.7554137 -0.5521939 0.3527493
vn -0.487405 -0.7710287 0.4098184
vn -0.8891073 -0.4570954 0.02349549
vn -0.5901016 0.0440331 -0.8061272
vn -0.5872922 0.06396241 -0.8068437
vn -0.5026003 0.1567518 -0.8501893
vn -0.6336333 -0.04443079 -0.7723566
vn -0.3998131 0.3612097 -0.8424233
vn -0.457369 0.5546161 -0.6951364
vn -0.2002123 0.9119346 -0.3581765
vn -0.5402905 0.5486366 -0.6380314
vn -0.3044309 0.8849533 -0.3523911
vn -0.6975163 -0.03622654 -0.7156525
vn -0.7673221 -0.3897566 -0.5092214
vn -0.6749482 -0.6346194 -0.376435
vn -0.5841318 -0.3710629 -0.7218742
vn -0.4101213 -0.7582874 -0.5067552
vn -0.6166095 0.6322343 -0.4691188
vn -0.7118825 0.4229963 -0.5606223
vn -0.7307947 0.1524223 -0.6653618
vn -0.7202055 0.5410264 -0.4342746
vn -0.7535018 0.1494899 -0.6402248
vn -0.6511979 0.6608475 -0.3731249
vn -0.02301257 0.08718999 -0.9959259
vn 0.3256933 -0.229602 -0.9171733
vn 0.3191232 0.4597377 -0.828735
vn -0.01384627 -0.2538641 -0.9671408
vn 0.03729023 0.4220677 -0.9057971
vn 0.3261609 0.5906497 -0.7380732
vn 0.08296315 0.6527281 -0.753036
vn 0.3111944 0.5405521 -0.7816403
vn -0.02830467 0.919075 -0.3930651
vn 0.09807634 0.9176425 -0.3851145
vn 0.3535969 0.52988 -0.7708413
vn 0.57599 0.4946169 -0.6508377
vn 0.6167392 0.1714472 -0.7682698
vn 0.7944171 0.4440699 -0.414371
vn 0.5834547 0.7319523 -0.3518899
vn 0.3464977 0.8401622 -0.4172132
vn 0.9011837 -0.4005077 -0.1657151
vn 0.9271448 0.08905071 -0.3639676
vn 0.7181515 0.6935033 0.05754595
vn 0.8675025 0.494364 0.05517142
vn 0.7890984 0.530051 0.3104347
vn 0.9771281 0.2053036 -0.05541707
vn 0.9982095 -0.05972572 0.00326657
vn 0.7902256 -0.5544591 0.2609952
vn 0.6034027 -0.755744 -0.2544726
vn 0.4801257 -0.4434914 -0.756832
vn 0.1217716 -0.6094152 -0.7834442
vn 0.004349262 -0.7220901 -0.6917853
vn 0.01386397 -0.6171554 -0.7867192
vn -0.2001079 -0.3874064 0.8999296
vn 0.07154477 -0.5764718 0.8139789
vn 0.02723852 -0.3842322 0.9228346
vn -0.08514686 -0.5523563 0.8292481
vn 0.3100936 -0.3430958 0.8866382
vn 0.3460738 0.008100811 0.9381723
vn 0.1441559 -0.3710147 0.9173698
vn -0.0509608 -0.7756545 0.629097
vn -0.03014101 -0.8395302 0.5424765
vn 0.607732 -0.4089824 0.6807313
vn 0.6790659 -0.08333622 0.7293316
vn 0.7110789 -0.3772359 0.5933464
vn 0.6423993 -0.01409837 0.7662404
vn 0.4089649 -0.7645854 0.4981534
vn 0.5716909 -0.4438368 0.6900568
vn 0.631367 -0.001875251 0.7754819
vn 0.6343246 -0.002321516 0.7730633
vn 0.5597647 0.4676218 0.6841003
vn 0.533838 0.1007502 0.8395633
vn 0.5731214 0.05138479 0.8178579
vn 0.600957 -0.01892383 0.7990573
vn 0.4571376 0.417343 0.7853981
vn 0.3491128 0.427871 0.8336946
vn 0.350134 0.8407362 0.4129996
vn 0.0007092043 0.9999588 -0.00905998
vn 0.0007268479 0.9999588 -0.009058926
vn 0.0007085839 0.9999588 -0.009060837
vn 0.0007276436 0.9999588 -0.009055104
vn 0.0007275389 0.9999588 -0.009054845
vn 0.001827842 0.9999709 -0.007411344
vn 0.0007224053 0.9999588 -0.009051131
vn 0.008565778 0.9999597 0.002705906
vn 0.04892164 0.9967926 0.06333262
vn 0.0007342447 0.9999588 -0.009049314
g Stages_Build_Ruin11_Lod0_0
f 3/3/3 2/2/2 1/1/1
f 4/4/4 2/2/2 3/3/3
f 5/5/5 3/3/3 1/1/1
f 6/6/6 2/2/2 4/4/4
f 7/7/7 6/6/6 4/4/4
f 8/8/8 6/6/6 7/7/7
f 11/11/11 10/10/10 9/9/9
f 11/11/11 12/12/12 10/10/10
f 13/13/13 12/12/12 11/11/11
f 14/14/14 12/12/12 13/13/13
f 10/10/10 12/12/12 15/15/15
f 10/10/10 15/15/15 9/9/9
f 16/16/16 15/15/15 12/12/12
f 12/12/12 14/14/14 16/16/16
f 16/16/16 17/17/17 15/15/15
f 17/17/17 9/9/9 15/15/15
f 14/14/14 18/18/18 16/16/16
f 19/19/19 16/16/16 18/18/18
f 19/19/19 17/17/17 16/16/16
f 20/20/20 18/18/18 14/14/14
f 21/21/21 14/14/14 13/13/13
f 14/14/14 21/21/21 22/22/22
f 23/23/23 14/14/14 22/22/22
f 22/22/22 24/24/24 23/23/23
f 25/25/25 23/23/23 24/24/24
f 26/26/26 24/24/24 22/22/22
f 21/21/21 26/26/26 22/22/22
f 29/29/29 28/28/28 27/27/27
f 30/30/30 27/27/27 28/28/28
f 31/31/31 29/29/29 27/27/27
f 32/32/32 31/31/31 27/27/27
f 32/32/32 33/33/33 31/31/31
f 32/32/32 34/34/34 33/33/33
f 32/32/32 27/27/27 34/34/34
f 35/35/35 33/33/33 34/34/34
f 36/36/36 27/27/27 30/30/30
f 37/37/37 36/36/36 30/30/30
f 36/36/36 37/37/37 38/38/38
f 37/37/37 39/39/39 38/38/38
f 39/39/39 37/37/37 30/30/30
f 40/40/40 38/38/38 39/39/39
f 35/35/35 34/34/34 41/41/41
f 42/42/42 41/41/41 34/34/34
f 34/34/34 43/43/43 42/42/42
f 42/42/42 43/43/43 44/44/44
f 42/42/42 44/44/44 41/41/41
f 43/43/43 45/45/45 44/44/44
f 45/45/45 43/43/43 36/36/36
f 41/41/41 44/44/44 46/46/46
f 34/34/34 27/27/27 43/43/43
f 43/43/43 27/27/27 36/36/36
f 49/49/49 48/48/48 47/47/47
f 50/50/50 47/47/47 48/48/48
f 47/47/47 51/51/51 49/49/49
f 52/52/52 49/49/49 51/51/51
f 51/51/51 53/53/53 52/52/52
f 54/54/54 52/52/52 53/53/53
f 53/53/53 55/55/55 54/54/54
f 56/56/56 54/54/54 55/55/55
f 52/52/52 57/57/57 49/49/49
f 52/52/52 54/54/54 57/57/57
f 54/54/54 58/58/58 57/57/57
f 54/54/54 56/56/56 58/58/58
f 59/59/59 49/49/49 57/57/57
f 58/58/58 59/59/59 57/57/57
f 49/49/49 59/59/59 48/48/48
f 60/60/60 59/59/59 58/58/58
f 60/60/60 58/58/58 61/61/61
f 62/62/62 61/61/61 58/58/58
f 62/62/62 58/58/58 56/56/56
f 48/48/48 59/59/59 63/63/63
f 64/64/64 59/59/59 60/60/60
f 63/63/63 59/59/59 64/64/64
f 61/61/61 65/65/65 60/60/60
f 60/60/60 66/66/66 64/64/64
f 65/65/65 66/66/66 60/60/60
f 66/66/66 65/65/65 67/67/67
f 64/64/64 66/66/66 68/68/68
f 68/68/68 66/66/66 67/67/67
f 64/64/64 68/68/68 69/69/69
f 63/63/63 64/64/64 69/69/69
f 63/63/63 69/69/69 70/70/70
f 71/71/71 63/63/63 70/70/70
f 63/63/63 71/71/71 72/72/72
f 73/73/73 72/72/72 71/71/71
f 73/73/73 74/74/74 72/72/72
f 75/75/75 72/72/72 74/74/74
f 75/75/75 50/50/50 72/72/72
f 48/48/48 72/72/72 50/50/50
f 72/72/72 48/48/48 63/63/63
f 78/78/78 77/77/77 76/76/76
f 79/79/79 78/78/78 76/76/76
f 77/77/77 78/78/78 80/80/80
f 80/80/80 78/78/78 81/81/81
f 78/78/78 82/82/82 81/81/81
f 79/79/79 82/82/82 78/78/78
f 79/79/79 83/83/83 82/82/82
f 84/84/84 82/82/82 83/83/83
f 87/87/87 86/86/86 85/85/85
f 88/88/88 85/85/85 86/86/86
f 87/87/87 85/85/85 89/89/89
f 90/90/90 89/89/89 85/85/85
f 90/90/90 85/85/85 88/88/88
f 91/91/91 88/88/88 86/86/86
f 92/92/92 91/91/91 86/86/86
f 93/93/93 91/91/91 92/92/92
f 91/91/91 93/93/93 94/94/94
f 94/94/94 95/95/95 91/91/91
f 96/96/96 91/91/91 95/95/95
f 97/97/97 94/94/94 93/93/93
f 94/94/94 98/98/98 95/95/95
f 97/97/97 98/98/98 94/94/94
f 98/98/98 97/97/97 99/99/99
f 93/93/93 99/99/99 97/97/97
f 102/102/102 101/101/101 100/100/100
f 103/103/103 101/101/101 102/102/102
f 100/100/100 101/101/101 104/104/104
f 101/101/101 105/105/105 104/104/104
f 106/106/106 100/100/100 104/104/104
f 107/107/107 105/105/105 101/101/101
f 108/108/108 105/105/105 107/107/107
f 109/109/109 103/103/103 102/102/102
