g EyeStar
v -0.04428551 1.113113 0.09192443
v -0.04678468 1.113044 0.09112135
v -0.0468943 1.118061 0.09125039
v -0.04929749 1.112973 0.09031391
v -0.04669774 1.108727 0.09101901
v -0.05196479 1.10865 0.08932868
v -0.05183774 1.103122 0.0891775
v -0.04656961 1.103198 0.09086814
v -0.05545713 1.103069 0.08801602
v -0.055523 1.105688 0.08808582
v -0.0596647 1.103009 0.08666573
v -0.05539118 1.100448 0.08794618
v -0.04644149 1.097668 0.09071726
v -0.05170859 1.097593 0.08902704
v -0.04637404 1.094245 0.09063786
v -0.0490818 1.094236 0.08977003
v -0.04624493 1.088334 0.09048586
v -0.04368063 1.094253 0.09150117
v -0.04143063 1.108802 0.09270921
v -0.04130148 1.103273 0.09255877
v -0.04117443 1.097745 0.09240758
v -0.03823695 1.103318 0.09354221
v -0.03817817 1.100556 0.09346521
v -0.03347453 1.103386 0.09507056
v -0.03829567 1.106077 0.09361914
v 0.04428552 1.113113 0.09192443
v 0.04689429 1.118061 0.09125039
v 0.04678469 1.113044 0.09112135
v 0.0492975 1.112973 0.09031391
v 0.04669774 1.108727 0.09101901
v 0.0519648 1.10865 0.08932868
v 0.05183774 1.103122 0.0891775
v 0.04656961 1.103198 0.09086814
v 0.05545713 1.103069 0.08801602
v 0.055523 1.105688 0.08808582
v 0.0596647 1.103009 0.08666573
v 0.05539118 1.100448 0.08794618
v 0.04644149 1.097668 0.09071726
v 0.05170859 1.097593 0.08902704
v 0.04637404 1.094245 0.09063786
v 0.0490818 1.094236 0.08977003
v 0.04624493 1.088334 0.09048586
v 0.04368063 1.094253 0.09150117
v 0.04143063 1.108802 0.09270921
v 0.04130148 1.103273 0.09255877
v 0.04117443 1.097745 0.09240758
v 0.03823695 1.103318 0.09354221
v 0.03817817 1.100556 0.09346521
v 0.03347453 1.103386 0.09507056
v 0.03829567 1.106077 0.09361914
vt 0.01434984 0.02459079
vt 0.01636218 0.02459079
vt 0.01636218 0.03302488
vt 0.01838357 0.02459079
vt 0.01636218 0.02173483
vt 0.02059163 0.02173483
vt 0.02059163 0.01755156
vt 0.01636218 0.01755156
vt 0.02345156 0.01755156
vt 0.02344816 0.01955444
vt 0.02893557 0.01755156
vt 0.02345703 0.01554546
vt 0.01636218 0.01322802
vt 0.02059163 0.01322802
vt 0.01636218 0.01095737
vt 0.01855302 0.01095737
vt 0.01636218 0.001938171
vt 0.01417818 0.01095737
vt 0.01202267 0.02173483
vt 0.01202267 0.01755156
vt 0.01202267 0.01322802
vt 0.009548405 0.01755156
vt 0.00954541 0.01541426
vt 0.003616581 0.01755156
vt 0.00955593 0.01968319
vt 0.01434984 0.02459079
vt 0.01636218 0.03302488
vt 0.01636218 0.02459079
vt 0.01838357 0.02459079
vt 0.01636218 0.02173483
vt 0.02059163 0.02173483
vt 0.02059163 0.01755156
vt 0.01636218 0.01755156
vt 0.02345156 0.01755156
vt 0.02344816 0.01955444
vt 0.02893557 0.01755156
vt 0.02345703 0.01554546
vt 0.01636218 0.01322802
vt 0.02059163 0.01322802
vt 0.01636218 0.01095737
vt 0.01855302 0.01095737
vt 0.01636218 0.001938171
vt 0.01417818 0.01095737
vt 0.01202267 0.02173483
vt 0.01202267 0.01755156
vt 0.01202267 0.01322802
vt 0.009548405 0.01755156
vt 0.00954541 0.01541426
vt 0.003616581 0.01755156
vt 0.00955593 0.01968319
vn -0.3050071 -0.0311467 0.9518406
vn -0.304993 -0.03114582 0.9518451
vn -0.3049932 -0.03114583 0.9518451
vn -0.3049793 -0.03114496 0.9518496
vn -0.3049673 -0.0330324 0.9517898
vn -0.3049693 -0.03303657 0.951789
vn -0.3049662 -0.03303267 0.9517902
vn -0.3049678 -0.03303256 0.9517896
vn -0.3049637 -0.03304017 0.9517907
vn -0.3049709 -0.03304423 0.9517882
vn -0.3049637 -0.03304017 0.9517907
vn -0.3049567 -0.03303612 0.9517931
vn -0.3049682 -0.03303271 0.9517895
vn -0.304963 -0.03302877 0.9517913
vn -0.3049855 -0.0311397 0.9518477
vn -0.3049681 -0.03113986 0.9518533
vn -0.3049857 -0.0311397 0.9518477
vn -0.3050033 -0.03113954 0.9518421
vn -0.3049653 -0.03302824 0.9517906
vn -0.3049694 -0.03303244 0.951789
vn -0.3049734 -0.03303665 0.9517878
vn -0.3049693 -0.03302854 0.9517893
vn -0.3049745 -0.03303061 0.9517875
vn -0.3049692 -0.03302853 0.9517893
vn -0.304964 -0.03302646 0.951791
vn 0.305007 -0.03114589 0.9518407
vn 0.3049936 -0.0311452 0.951845
vn 0.3049935 -0.03114519 0.9518451
vn 0.3049801 -0.0311445 0.9518493
vn 0.3049658 -0.0330325 0.9517902
vn 0.3049665 -0.03303634 0.9517899
vn 0.3049663 -0.03303277 0.9517902
vn 0.3049672 -0.03303256 0.9517898
vn 0.3049687 -0.03304058 0.951789
vn 0.3049746 -0.03304446 0.951787
vn 0.3049687 -0.03304059 0.951789
vn 0.3049628 -0.03303671 0.951791
vn 0.3049687 -0.03303264 0.9517894
vn 0.3049661 -0.0330292 0.9517902
vn 0.3049835 -0.03113956 0.9518484
vn 0.3049621 -0.03113926 0.9518552
vn 0.3049837 -0.03113955 0.9518483
vn 0.3050053 -0.03113985 0.9518414
vn 0.3049651 -0.03302865 0.9517907
vn 0.3049682 -0.03303236 0.9517895
vn 0.3049712 -0.03303606 0.9517884
vn 0.3049694 -0.03302875 0.9517893
vn 0.3049715 -0.03303066 0.9517885
vn 0.3049694 -0.03302874 0.9517893
vn 0.3049672 -0.03302682 0.95179
g EyeStar_0
f 3/3/3 2/2/2 1/1/1
f 3/3/3 4/4/4 2/2/2
f 5/5/5 2/2/2 4/4/4
f 1/1/1 2/2/2 5/5/5
f 6/6/6 5/5/5 4/4/4
f 6/6/6 7/7/7 5/5/5
f 7/7/7 8/8/8 5/5/5
f 7/7/7 6/6/6 9/9/9
f 6/6/6 10/10/10 9/9/9
f 11/11/11 9/9/9 10/10/10
f 11/11/11 12/12/12 9/9/9
f 7/7/7 9/9/9 12/12/12
f 13/13/13 8/8/8 7/7/7
f 14/14/14 13/13/13 7/7/7
f 14/14/14 7/7/7 12/12/12
f 13/13/13 14/14/14 15/15/15
f 14/14/14 16/16/16 15/15/15
f 17/17/17 15/15/15 16/16/16
f 17/17/17 18/18/18 15/15/15
f 13/13/13 15/15/15 18/18/18
f 19/19/19 5/5/5 8/8/8
f 20/20/20 19/19/19 8/8/8
f 19/19/19 1/1/1 5/5/5
f 21/21/21 20/20/20 8/8/8
f 13/13/13 21/21/21 8/8/8
f 21/21/21 13/13/13 18/18/18
f 20/20/20 21/21/21 22/22/22
f 21/21/21 23/23/23 22/22/22
f 24/24/24 22/22/22 23/23/23
f 24/24/24 25/25/25 22/22/22
f 20/20/20 22/22/22 25/25/25
f 19/19/19 20/20/20 25/25/25
f 28/28/28 27/27/27 26/26/26
f 29/29/29 27/27/27 28/28/28
f 28/28/28 30/30/30 29/29/29
f 28/28/28 26/26/26 30/30/30
f 30/30/30 31/31/31 29/29/29
f 32/32/32 31/31/31 30/30/30
f 33/33/33 32/32/32 30/30/30
f 31/31/31 32/32/32 34/34/34
f 35/35/35 31/31/31 34/34/34
f 34/34/34 36/36/36 35/35/35
f 37/37/37 36/36/36 34/34/34
f 34/34/34 32/32/32 37/37/37
f 33/33/33 38/38/38 32/32/32
f 38/38/38 39/39/39 32/32/32
f 32/32/32 39/39/39 37/37/37
f 39/39/39 38/38/38 40/40/40
f 41/41/41 39/39/39 40/40/40
f 40/40/40 42/42/42 41/41/41
f 43/43/43 42/42/42 40/40/40
f 40/40/40 38/38/38 43/43/43
f 30/30/30 44/44/44 33/33/33
f 44/44/44 45/45/45 33/33/33
f 26/26/26 44/44/44 30/30/30
f 46/46/46 38/38/38 33/33/33
f 45/45/45 46/46/46 33/33/33
f 38/38/38 46/46/46 43/43/43
f 46/46/46 45/45/45 47/47/47
f 48/48/48 46/46/46 47/47/47
f 47/47/47 49/49/49 48/48/48
f 50/50/50 49/49/49 47/47/47
f 45/45/45 44/44/44 50/50/50
f 47/47/47 45/45/45 50/50/50
