g EffectMesh
v 0.04219441 1.248056 0.05241463
v 0.03418741 1.282896 0.05094789
v 0.04213726 1.299126 0.01460831
v 0.05434387 1.267915 0.00914372
v 2.033066E-18 1.281214 0.05611369
v -4.077861E-18 1.248056 0.05758045
v 0.03103943 1.31319 -0.01981429
v 0.0461121 1.261461 -0.03232924
v 3.893628E-17 1.31319 -0.02924506
v 4.579256E-18 1.256874 -0.04176
v 0.06786667 1.194599 -0.04827529
v -4.816657E-18 1.197897 -0.05840607
v 0.06514419 1.115218 -0.03185913
v 6.74334E-18 1.115455 -0.04644131
v 0.09668507 1.226162 -0.04015678
v 0.1119912 1.23022 0.00640127
v 0.1002916 1.210969 0.04859524
v 0.0461121 1.261461 -0.03232924
v 0.06321169 1.032816 -0.01028859
v -2.863073E-19 1.032997 -0.02807477
v 0.0863791 0.9564771 -0.03880998
v 1.285526E-17 0.9599946 -0.07017546
v 0.1110193 0.8613938 -0.06522889
v -1.684038E-16 0.8640828 -0.1041073
v 0.1762131 0.8460895 0.04297688
v 0.138207 0.9481382 0.0479342
v 0.1067027 0.8297188 0.1525404
v 0.08760578 0.9396375 0.1330563
v -7.950081E-18 0.8274723 0.190574
v -1.541616E-17 0.9366985 0.1638543
v -5.823596E-19 0.6876732 0.2222868
v 0.1286492 0.6883944 0.1729674
v 0.2131119 0.7190048 0.03159088
v 0.1377651 0.7468516 -0.09526683
v -4.985878E-16 0.7477148 -0.1399505
v -7.715163E-18 0.5598652 0.2447515
v 0.1475069 0.5677487 0.1880443
v 0.2395653 0.6076031 0.02575393
v 0.1560575 0.6336551 -0.1223706
v -8.306695E-16 0.6336551 -0.1690169
v 0.09103668 1.034559 0.05265694
v 0.08760578 0.9396375 0.1330563
v 0.06871585 1.026616 0.117139
v -1.765355E-19 1.020871 0.1361944
v 0.06321169 1.032816 -0.01028859
v 0.0863791 0.9564771 -0.03880998
v 2.115121E-18 1.113937 0.1480175
v -3.825775E-18 1.194982 0.09570772
v 0.07390687 1.191222 0.08234165
v 0.07798886 1.113937 0.1262571
v 0.09383949 1.15215 0.07431402
v 0.06871585 1.026616 0.117139
v 0.09383949 1.15215 0.07431402
v 0.09103668 1.034559 0.05265694
v -1.765355E-19 1.020871 0.1361944
v 0.06321169 1.032816 -0.01028859
v 0.06514419 1.115218 -0.03185913
v 0.1119912 1.23022 0.00640127
v 0.1626038 1.104051 0.03632981
v 0.1974626 1.132557 -0.00561619
v 0.09668507 1.226162 -0.04015678
v 0.181348 1.123922 -0.04249832
v 0.1974626 1.132557 -0.00561619
v 0.1119912 1.23022 0.00640127
v 0.09668507 1.226162 -0.04015678
v 0.06786667 1.194599 -0.04827529
v 0.1410633 1.094627 -0.04961332
v 0.181348 1.123922 -0.04249832
v 0.1626038 1.104051 0.03632981
v 0.1061129 1.069619 0.06935626
v 0.09383949 1.15215 0.07431402
v 0.1002916 1.210969 0.04859524
v 0.06786667 1.194599 -0.04827529
v 0.08930738 1.063695 -0.04038854
v 0.1410633 1.094627 -0.04961332
v 0.07390687 1.191222 0.08234165
v 0.1002916 1.210969 0.04859524
v 0.09383949 1.15215 0.07431402
v -0.04219441 1.248056 0.05241463
v -0.05434387 1.267915 0.00914372
v -0.04213726 1.299126 0.01460831
v -0.03418741 1.282896 0.05094789
v 2.033066E-18 1.281214 0.05611369
v -4.077861E-18 1.248056 0.05758045
v -0.03103943 1.31319 -0.01981429
v -0.0461121 1.261461 -0.03232924
v 3.893628E-17 1.31319 -0.02924506
v 4.579256E-18 1.256874 -0.04176
v -0.06786667 1.194599 -0.04827529
v -4.816657E-18 1.197897 -0.05840607
v -0.06514419 1.115218 -0.03185913
v 6.74334E-18 1.115455 -0.04644131
v -0.09668507 1.226162 -0.04015678
v -3.825775E-18 1.194982 0.09570772
v -0.07390687 1.191222 0.08234165
v 2.115121E-18 1.113937 0.1480175
v -0.07798886 1.113937 0.1262571
v -0.1002916 1.210969 0.04859524
v -0.09383949 1.15215 0.07431402
v -0.04219441 1.248056 0.05241463
v -0.1002916 1.210969 0.04859524
v -0.1119912 1.23022 0.00640127
v -0.05434387 1.267915 0.00914372
v -0.09668507 1.226162 -0.04015678
v -0.0461121 1.261461 -0.03232924
v -0.1119912 1.23022 0.00640127
v -0.1626038 1.104051 0.03632981
v -0.1974626 1.132557 -0.00561619
v -0.138207 0.9481382 0.0479342
v -0.08760578 0.9396375 0.1330563
v -0.1067027 0.8297188 0.1525404
v -0.1762131 0.8460895 0.04297688
v -7.950081E-18 0.8274723 0.190574
v -1.541616E-17 0.9366985 0.1638543
v -0.0863791 0.9564771 -0.03880998
v -0.1110193 0.8613938 -0.06522889
v 1.285526E-17 0.9599946 -0.07017546
v -1.684038E-16 0.8640828 -0.1041073
v -0.1286492 0.6883944 0.1729674
v -5.823596E-19 0.6876732 0.2222868
v -0.2131119 0.7190048 0.03159088
v -0.1377651 0.7468516 -0.09526683
v -4.985878E-16 0.7477148 -0.1399505
v -7.715163E-18 0.5598652 0.2447515
v -0.1475069 0.5677487 0.1880443
v -0.2395653 0.6076031 0.02575393
v -0.1560575 0.6336551 -0.1223706
v -8.306695E-16 0.6336551 -0.1690169
v -0.06871585 1.026616 0.117139
v -1.765355E-19 1.020871 0.1361944
v -0.09103668 1.034559 0.05265694
v -0.06871585 1.026616 0.117139
v -0.06321169 1.032816 -0.01028859
v -0.06871585 1.026616 0.117139
v -0.09103668 1.034559 0.05265694
v -0.09383949 1.15215 0.07431402
v -0.07798886 1.113937 0.1262571
v 2.115121E-18 1.113937 0.1480175
v -1.765355E-19 1.020871 0.1361944
v -0.06321169 1.032816 -0.01028859
v -0.06514419 1.115218 -0.03185913
v -0.06321169 1.032816 -0.01028859
v -2.863073E-19 1.032997 -0.02807477
v 6.74334E-18 1.115455 -0.04644131
v -0.06514419 1.115218 -0.03185913
v -0.0863791 0.9564771 -0.03880998
v 1.285526E-17 0.9599946 -0.07017546
v -0.09668507 1.226162 -0.04015678
v -0.1119912 1.23022 0.00640127
v -0.1974626 1.132557 -0.00561619
v -0.181348 1.123922 -0.04249832
v -0.09668507 1.226162 -0.04015678
v -0.181348 1.123922 -0.04249832
v -0.1410633 1.094627 -0.04961332
v -0.06786667 1.194599 -0.04827529
v -0.1626038 1.104051 0.03632981
v -0.1002916 1.210969 0.04859524
v -0.09383949 1.15215 0.07431402
v -0.1061129 1.069619 0.06935626
v -0.06786667 1.194599 -0.04827529
v -0.1410633 1.094627 -0.04961332
v -0.08930738 1.063695 -0.04038854
vt 0.625 0.25
vt 0.625 0.25
vt 0.625 0.375
vt 0.625 0.375
vt 0.5 0.25
vt 0.5 0.25
vt 0.625 0.5
vt 0.625 0.5
vt 0.5 0.5
vt 0.5 0.5
vt 0.625 0.5
vt 0.5 0.5
vt 0.625 0.5
vt 0.5 0.5
vt 0.625 0.448072
vt 0.625 0.375
vt 0.90625 0.201618
vt 0.625 0.5
vt 0.624305 0.715034
vt 0.5 0.714313
vt 0.625 0.75
vt 0.5 0.75
vt 0.625 0.75
vt 0.5 0.75
vt 0.625 0.875
vt 0.625 0.875
vt 0.625 1
vt 0.625 1
vt 0.5 1
vt 0.5 1
vt 0.5 1
vt 0.625 1
vt 0.625 0.875
vt 0.625 0.75
vt 0.5 0.75
vt 0.5 1
vt 0.625 1
vt 0.625 0.875
vt 0.625 0.75
vt 0.5 0.75
vt 0.625 0.875
vt 0.625 1
vt 0.625 0.997733
vt 0.5 1
vt 0.624305 0.715034
vt 0.625 0.75
vt 0.5 0.25
vt 0.5 0.25
vt 0.625 0.25
vt 0.625 0.25
vt 0.625 0.375
vt 0.625 0.02775
vt 0.75 0.25
vt 0.75 0.033081
vt 0.5 0.026017
vt 0.874549 0.035007
vt 0.875 0.25
vt 0 0.126383
vt 1 1
vt 0 1
vt 0 0.126383
vt 0 1
vt 1 1
vt 1 0.126383
vt 0 0
vt 0 1
vt 1 1
vt 1 0
vt 0 0
vt 0 1
vt 1 1
vt 1 0
vt 0 0.5
vt 1 1
vt 1 0
vt 0.625 0.25
vt 0.90625 0.201618
vt 0.625 0.375
vt 0.625 0.25
vt 0.625 0.375
vt 0.625 0.375
vt 0.625 0.25
vt 0.5 0.25
vt 0.5 0.25
vt 0.625 0.5
vt 0.625 0.5
vt 0.5 0.5
vt 0.5 0.5
vt 0.625 0.5
vt 0.5 0.5
vt 0.625 0.5
vt 0.5 0.5
vt 0.625 0.448072
vt 0.5 0.25
vt 0.625 0.25
vt 0.5 0.25
vt 0.625 0.25
vt 0.90625 0.201618
vt 0.625 0.375
vt 0.625 0.25
vt 0.90625 0.201618
vt 0.625 0.375
vt 0.625 0.375
vt 0.625 0.448072
vt 0.625 0.5
vt 0 0.126383
vt 1 1
vt 0 1
vt 0.625 0.875
vt 0.625 1
vt 0.625 1
vt 0.625 0.875
vt 0.5 1
vt 0.5 1
vt 0.625 0.75
vt 0.625 0.75
vt 0.5 0.75
vt 0.5 0.75
vt 0.625 1
vt 0.5 1
vt 0.625 0.875
vt 0.625 0.75
vt 0.5 0.75
vt 0.5 1
vt 0.625 1
vt 0.625 0.875
vt 0.625 0.75
vt 0.5 0.75
vt 0.625 0.997733
vt 0.5 1
vt 0.625 0.875
vt 0.625 0.997733
vt 0.624305 0.715034
vt 0.625 0.02775
vt 0.75 0.033081
vt 0.75 0.25
vt 0.625 0.25
vt 0.5 0.25
vt 0.5 0.026017
vt 0.874549 0.035007
vt 0.875 0.25
vt 0.624305 0.715034
vt 0.5 0.714313
vt 0.5 0.5
vt 0.625 0.5
vt 0.625 0.75
vt 0.5 0.75
vt 0 0.126383
vt 1 0.126383
vt 1 1
vt 0 1
vt 0 0
vt 1 0
vt 1 1
vt 0 1
vt 0 0
vt 1 0
vt 1 1
vt 0 1
vt 0 0.5
vt 1 0
vt 1 1
vn 0.3727584 0.5685499 0.73335
vn 0.6569617 0.1964854 0.72787
vn 0.9467365 0.3216687 0.01480719
vn 0.7314806 0.6723309 0.11361
vn 0 0.05881416 0.998269
vn 0 0.4463281 0.8948694
vn 0.5532728 0.3285863 -0.7654544
vn 0.4148346 0.4923392 -0.7651891
vn -1.14157E-07 0.2548766 -0.9669736
vn 0 0.2696904 -0.9629471
vn 0.1255809 0.04108592 -0.9912322
vn 0 0.01377568 -0.9999051
vn 0.6282865 -0.1393084 -0.7654079
vn 0 -0.2060833 -0.9785345
vn 0.4696906 0.5246356 -0.710034
vn 0.7167686 0.6770748 0.1667705
vn 0.6120032 0.4549927 0.6468645
vn 0.4148346 0.4923392 -0.7651891
vn 0.7269217 0.2016433 -0.6564486
vn 0 0.1563736 -0.987698
vn 0.6136941 0.3904245 -0.6862566
vn 0 0.3861523 -0.922435
vn 0.6240786 0.3290317 -0.708706
vn 0 0.3211128 -0.947041
vn 0.9497872 0.3006145 0.08680476
vn 0.9287084 0.3681827 0.04407159
vn 0.6186864 0.222534 0.7534626
vn 0.6086024 0.2785408 0.7429792
vn 0 0.2185846 0.975818
vn 0 0.2494344 0.9683917
vn 0 0.1922146 0.9813529
vn 0.6299124 0.1946228 0.7518859
vn 0.9628662 0.2575178 0.08107575
vn 0.6268123 0.2888996 -0.723632
vn 0 0.2831371 -0.9590795
vn 0 0.1769785 0.9842147
vn 0.6194467 0.1836391 0.7632578
vn 0.9633986 0.2355145 0.1280478
vn 0.6323548 0.2630194 -0.7286619
vn 0 0.2626899 -0.9648803
vn 0.9816365 0.1870894 -0.0372474
vn 0.6086024 0.2785408 0.7429792
vn 0.6559411 0.1302151 0.7434953
vn 0 0.09353265 0.9956162
vn 0.7269217 0.2016433 -0.6564486
vn 0.6136941 0.3904245 -0.6862566
vn 0 0.2056199 0.978632
vn 0 0.5348114 0.8449715
vn 0.2959585 0.5085605 0.8085635
vn 0.6192927 0.1194316 0.7760237
vn 0.8964115 0.07364187 0.4370621
vn 0.6559411 0.1302151 0.7434953
vn 0.8964115 0.07364187 0.4370621
vn 0.9816365 0.1870894 -0.0372474
vn 0 0.09353265 0.9956162
vn 0.7269217 0.2016433 -0.6564486
vn 0.6282865 -0.1393084 -0.7654079
vn 0.7167686 0.6770748 0.1667705
vn 0.6295605 0.2947651 0.7188652
vn 0.7891656 0.5897936 0.171351
vn 0.4696906 0.5246356 -0.710034
vn 0.4833605 0.4320029 -0.761404
vn 0.7891656 0.5897936 0.171351
vn 0.7167686 0.6770748 0.1667705
vn 0.4696906 0.5246356 -0.710034
vn 0.1255809 0.04108592 -0.9912322
vn 0.02782868 0.04044595 -0.9987941
vn 0.4833605 0.4320029 -0.761404
vn 0.6295605 0.2947651 0.7188652
vn 0.5534462 0.1433004 0.8204647
vn 0.8964115 0.07364187 0.4370621
vn 0.6120032 0.4549927 0.6468645
vn 0.1255809 0.04108592 -0.9912322
vn -0.1280566 -0.08052922 -0.988492
vn 0.02782868 0.04044595 -0.9987941
vn 0.2959585 0.5085605 0.8085635
vn 0.6120032 0.4549927 0.6468645
vn 0.8964115 0.07364187 0.4370621
vn -0.3727585 0.5685502 0.7333497
vn -0.7314806 0.672331 0.1136092
vn -0.9467365 0.3216687 0.01480617
vn -0.6569622 0.1964855 0.7278696
vn 0 0.05881416 0.998269
vn 0 0.4463281 0.8948694
vn -0.5532725 0.3285863 -0.7654545
vn -0.4148344 0.492339 -0.7651893
vn -1.14157E-07 0.2548766 -0.9669736
vn 0 0.2696904 -0.9629471
vn -0.1255808 0.0410858 -0.9912322
vn 0 0.01377568 -0.9999051
vn -0.6282865 -0.1393083 -0.7654078
vn 0 -0.2060833 -0.9785345
vn -0.4696905 0.5246354 -0.7100341
vn 0 0.5348114 0.8449715
vn -0.2959585 0.5085604 0.8085635
vn 0 0.2056199 0.978632
vn -0.6192927 0.1194316 0.7760236
vn -0.6120033 0.4549928 0.6468645
vn -0.8964115 0.07364187 0.437062
vn -0.3727585 0.5685502 0.7333497
vn -0.6120033 0.4549928 0.6468645
vn -0.7167686 0.6770748 0.1667705
vn -0.7314806 0.672331 0.1136092
vn -0.4696905 0.5246354 -0.7100341
vn -0.4148344 0.492339 -0.7651893
vn -0.7167686 0.6770748 0.1667705
vn -0.6295604 0.2947651 0.7188653
vn -0.7891656 0.5897935 0.1713514
vn -0.9287083 0.3681827 0.04407143
vn -0.6086024 0.2785408 0.7429792
vn -0.6186864 0.2225341 0.7534626
vn -0.9497872 0.3006145 0.08680469
vn 0 0.2185846 0.975818
vn 0 0.2494344 0.9683917
vn -0.6136941 0.3904243 -0.6862568
vn -0.6240785 0.3290316 -0.7087061
vn 0 0.3861523 -0.922435
vn 0 0.3211128 -0.947041
vn -0.6299124 0.1946228 0.7518859
vn 0 0.1922146 0.9813529
vn -0.9628662 0.2575178 0.08107565
vn -0.6268122 0.2888996 -0.7236322
vn 0 0.2831371 -0.9590795
vn 0 0.1769785 0.9842147
vn -0.6194467 0.1836391 0.7632577
vn -0.9633986 0.2355145 0.1280476
vn -0.6323546 0.2630193 -0.7286621
vn 0 0.2626899 -0.9648803
vn -0.6559412 0.1302151 0.7434953
vn 0 0.09353265 0.9956162
vn -0.9816365 0.1870894 -0.0372475
vn -0.6559412 0.1302151 0.7434953
vn -0.7269216 0.2016432 -0.6564488
vn -0.6559412 0.1302151 0.7434953
vn -0.9816365 0.1870894 -0.0372475
vn -0.8964115 0.07364187 0.437062
vn -0.6192927 0.1194316 0.7760236
vn 0 0.2056199 0.978632
vn 0 0.09353265 0.9956162
vn -0.7269216 0.2016432 -0.6564488
vn -0.6282865 -0.1393083 -0.7654078
vn -0.7269216 0.2016432 -0.6564488
vn 0 0.1563736 -0.987698
vn 0 -0.2060833 -0.9785345
vn -0.6282865 -0.1393083 -0.7654078
vn -0.6136941 0.3904243 -0.6862568
vn 0 0.3861523 -0.922435
vn -0.4696905 0.5246354 -0.7100341
vn -0.7167686 0.6770748 0.1667705
vn -0.7891656 0.5897935 0.1713514
vn -0.4833604 0.4320028 -0.7614042
vn -0.4696905 0.5246354 -0.7100341
vn -0.4833604 0.4320028 -0.7614042
vn -0.02782865 0.04044589 -0.9987941
vn -0.1255808 0.0410858 -0.9912322
vn -0.6295604 0.2947651 0.7188653
vn -0.6120033 0.4549928 0.6468645
vn -0.8964115 0.07364187 0.437062
vn -0.5534462 0.1433004 0.8204647
vn -0.1255808 0.0410858 -0.9912322
vn -0.02782865 0.04044589 -0.9987941
vn 0.1280565 -0.08052924 -0.988492
g EffectMesh_0
f 3/3/3 2/2/2 1/1/1
f 4/4/4 3/3/3 1/1/1
f 1/1/1 2/2/2 5/5/5
f 6/6/6 1/1/1 5/5/5
f 7/7/7 3/3/3 4/4/4
f 8/8/8 7/7/7 4/4/4
f 9/9/9 7/7/7 8/8/8
f 10/10/10 9/9/9 8/8/8
f 10/10/10 8/8/8 11/11/11
f 12/12/12 10/10/10 11/11/11
f 12/12/12 11/11/11 13/13/13
f 14/14/14 12/12/12 13/13/13
f 15/15/15 11/11/11 8/8/8
f 16/16/16 4/4/4 1/1/1
f 16/16/16 15/15/15 4/4/4
f 17/17/17 16/16/16 1/1/1
f 15/15/15 18/18/18 4/4/4
f 14/14/14 13/13/13 19/19/19
f 20/20/20 14/14/14 19/19/19
f 19/19/19 21/21/21 20/20/20
f 21/21/21 22/22/22 20/20/20
f 21/21/21 23/23/23 22/22/22
f 23/23/23 24/24/24 22/22/22
f 25/25/25 23/23/23 21/21/21
f 26/26/26 25/25/25 21/21/21
f 27/27/27 25/25/25 26/26/26
f 28/28/28 27/27/27 26/26/26
f 29/29/29 27/27/27 28/28/28
f 30/30/30 29/29/29 28/28/28
f 27/27/27 29/29/29 31/31/31
f 32/32/32 27/27/27 31/31/31
f 25/25/25 27/27/27 32/32/32
f 33/33/33 25/25/25 32/32/32
f 23/23/23 25/25/25 33/33/33
f 34/34/34 23/23/23 33/33/33
f 24/24/24 23/23/23 34/34/34
f 35/35/35 24/24/24 34/34/34
f 31/31/31 36/36/36 32/32/32
f 36/36/36 37/37/37 32/32/32
f 32/32/32 37/37/37 33/33/33
f 37/37/37 38/38/38 33/33/33
f 33/33/33 38/38/38 34/34/34
f 38/38/38 39/39/39 34/34/34
f 34/34/34 39/39/39 35/35/35
f 39/39/39 40/40/40 35/35/35
f 42/42/42 26/26/26 41/41/41
f 43/43/43 42/42/42 41/41/41
f 30/30/30 42/42/42 43/43/43
f 44/44/44 30/30/30 43/43/43
f 41/41/41 26/26/26 45/45/45
f 26/26/26 46/46/46 45/45/45
f 49/49/49 48/48/48 47/47/47
f 50/50/50 49/49/49 47/47/47
f 49/49/49 1/1/1 48/48/48
f 1/1/1 6/6/6 48/48/48
f 17/17/17 1/1/1 49/49/49
f 51/51/51 49/49/49 50/50/50
f 52/52/52 50/50/50 47/47/47
f 53/53/53 50/50/50 52/52/52
f 54/54/54 53/53/53 52/52/52
f 55/55/55 52/52/52 47/47/47
f 54/54/54 56/56/56 53/53/53
f 56/56/56 57/57/57 53/53/53
f 17/17/17 59/59/59 58/58/58
f 59/59/59 60/60/60 58/58/58
f 63/63/63 62/62/62 61/61/61
f 64/64/64 63/63/63 61/61/61
f 67/67/67 66/66/66 65/65/65
f 68/68/68 67/67/67 65/65/65
f 71/71/71 70/70/70 69/69/69
f 72/72/72 71/71/71 69/69/69
f 75/75/75 74/74/74 73/73/73
f 78/78/78 77/77/77 76/76/76
f 81/81/81 80/80/80 79/79/79
f 82/82/82 81/81/81 79/79/79
f 82/82/82 79/79/79 83/83/83
f 79/79/79 84/84/84 83/83/83
f 81/81/81 85/85/85 80/80/80
f 85/85/85 86/86/86 80/80/80
f 85/85/85 87/87/87 86/86/86
f 87/87/87 88/88/88 86/86/86
f 86/86/86 88/88/88 89/89/89
f 88/88/88 90/90/90 89/89/89
f 89/89/89 90/90/90 91/91/91
f 90/90/90 92/92/92 91/91/91
f 89/89/89 93/93/93 86/86/86
f 84/84/84 79/79/79 94/94/94
f 79/79/79 95/95/95 94/94/94
f 94/94/94 95/95/95 96/96/96
f 95/95/95 97/97/97 96/96/96
f 79/79/79 98/98/98 95/95/95
f 95/95/95 99/99/99 97/97/97
f 98/98/98 99/99/99 95/95/95
f 102/102/102 101/101/101 100/100/100
f 103/103/103 102/102/102 100/100/100
f 104/104/104 102/102/102 103/103/103
f 105/105/105 104/104/104 103/103/103
f 107/107/107 101/101/101 106/106/106
f 108/108/108 107/107/107 106/106/106
f 111/111/111 110/110/110 109/109/109
f 112/112/112 111/111/111 109/109/109
f 111/111/111 113/113/113 110/110/110
f 113/113/113 114/114/114 110/110/110
f 112/112/112 109/109/109 115/115/115
f 116/116/116 112/112/112 115/115/115
f 116/116/116 115/115/115 117/117/117
f 118/118/118 116/116/116 117/117/117
f 113/113/113 111/111/111 119/119/119
f 120/120/120 113/113/113 119/119/119
f 111/111/111 112/112/112 121/121/121
f 119/119/119 111/111/111 121/121/121
f 112/112/112 116/116/116 122/122/122
f 121/121/121 112/112/112 122/122/122
f 122/122/122 116/116/116 118/118/118
f 123/123/123 122/122/122 118/118/118
f 124/124/124 120/120/120 119/119/119
f 125/125/125 124/124/124 119/119/119
f 125/125/125 119/119/119 121/121/121
f 126/126/126 125/125/125 121/121/121
f 126/126/126 121/121/121 122/122/122
f 127/127/127 126/126/126 122/122/122
f 127/127/127 122/122/122 123/123/123
f 128/128/128 127/127/127 123/123/123
f 114/114/114 130/130/130 129/129/129
f 110/110/110 114/114/114 129/129/129
f 110/110/110 132/132/132 131/131/131
f 109/109/109 110/110/110 131/131/131
f 109/109/109 131/131/131 133/133/133
f 115/115/115 109/109/109 133/133/133
f 136/136/136 135/135/135 134/134/134
f 137/137/137 136/136/136 134/134/134
f 137/137/137 134/134/134 138/138/138
f 134/134/134 139/139/139 138/138/138
f 140/140/140 135/135/135 136/136/136
f 141/141/141 140/140/140 136/136/136
f 144/144/144 143/143/143 142/142/142
f 145/145/145 144/144/144 142/142/142
f 146/146/146 142/142/142 143/143/143
f 147/147/147 146/146/146 143/143/143
f 150/150/150 149/149/149 148/148/148
f 151/151/151 150/150/150 148/148/148
f 154/154/154 153/153/153 152/152/152
f 155/155/155 154/154/154 152/152/152
f 158/158/158 157/157/157 156/156/156
f 159/159/159 158/158/158 156/156/156
f 162/162/162 161/161/161 160/160/160
