g Brow
v 0.02752291 1.480382 0.1332102
v 0.02411822 1.479553 0.1342924
v 0.02294747 1.483685 0.1360024
v 0.02640652 1.484704 0.1349432
v 0.03108631 1.485592 0.1331225
v 0.03174903 1.481337 0.1317036
v 0.0357661 1.486261 0.131183
v 0.03623981 1.482173 0.1298807
v 0.04171909 1.486617 0.1283768
v 0.04188377 1.482993 0.12742
v 0.04767208 1.486688 0.1252376
v 0.04752773 1.483528 0.1246756
v 0.05381186 1.486324 0.121502
v 0.05355222 1.483803 0.1212333
v 0.05929329 1.484043 0.1174906
v 0.05966821 1.485925 0.1174614
v 0.06512909 1.484267 0.1132084
v 0.06531629 1.485208 0.1131942
v 0.07153442 1.484423 0.1079358
v 0.0178893 1.480308 0.1365898
v 0.02000161 1.482071 0.136542
v 0.02103978 1.478618 0.1350274
v 0.01855897 1.477869 0.1355571
v 0.01578057 1.478318 0.1365105
v 0.01608938 1.477138 0.1360524
v 0.01411636 1.476539 0.136368
v -0.02752291 1.480382 0.1332102
v -0.02640652 1.484704 0.1349432
v -0.02294747 1.483685 0.1360024
v -0.02411822 1.479553 0.1342924
v -0.03108631 1.485592 0.1331225
v -0.03174903 1.481337 0.1317036
v -0.0357661 1.486261 0.131183
v -0.03623981 1.482173 0.1298807
v -0.04171909 1.486617 0.1283768
v -0.04188377 1.482993 0.12742
v -0.04767208 1.486688 0.1252376
v -0.04752773 1.483528 0.1246756
v -0.05381186 1.486324 0.121502
v -0.05355222 1.483803 0.1212333
v -0.05929329 1.484043 0.1174906
v -0.05966821 1.485925 0.1174614
v -0.06512909 1.484267 0.1132084
v -0.06531629 1.485208 0.1131942
v -0.07153442 1.484423 0.1079358
v -0.02000161 1.482071 0.136542
v -0.0178893 1.480308 0.1365898
v -0.02103978 1.478618 0.1350274
v -0.01855897 1.477869 0.1355571
v -0.01578057 1.478318 0.1365105
v -0.01608938 1.477138 0.1360524
v -0.01411636 1.476539 0.136368
vt 0.929397 0.953852
vt 0.9417735 0.950262
vt 0.9452655 0.9663215
vt 0.933382 0.971034
vt 0.9136825 0.974964
vt 0.910529 0.9583655
vt 0.893983 0.978894
vt 0.891661 0.962879
vt 0.8687555 0.9810265
vt 0.867814 0.966713
vt 0.843528 0.983159
vt 0.843967 0.970547
vt 0.819162 0.9830955
vt 0.8201525 0.97295
vt 0.796338 0.975353
vt 0.794796 0.983032
vt 0.7689905 0.9778563
vt 0.7682213 0.9816956
vt 0.741643 0.980359
vt 0.9673454 0.9524349
vt 0.957149 0.961609
vt 0.95415 0.946672
vt 0.9654712 0.943099
vt 0.977542 0.9432604
vt 0.9767925 0.939526
vt 0.98434 0.937144
vt 0.929397 0.953852
vt 0.933382 0.971034
vt 0.9452655 0.9663215
vt 0.9417735 0.950262
vt 0.9136825 0.974964
vt 0.910529 0.9583655
vt 0.893983 0.978894
vt 0.891661 0.962879
vt 0.8687555 0.9810265
vt 0.867814 0.966713
vt 0.843528 0.983159
vt 0.843967 0.970547
vt 0.819162 0.9830955
vt 0.8201525 0.97295
vt 0.796338 0.975353
vt 0.794796 0.983032
vt 0.7689905 0.9778563
vt 0.7682213 0.9816956
vt 0.741643 0.980359
vt 0.957149 0.961609
vt 0.9673454 0.9524349
vt 0.95415 0.946672
vt 0.9654712 0.943099
vt 0.977542 0.9432604
vt 0.9767925 0.939526
vt 0.98434 0.937144
vn 0.3712291 -0.2562892 0.8924712
vn 0.3366249 -0.2792023 0.8992941
vn 0.335766 -0.2797208 0.8994539
vn 0.3686099 -0.2581537 0.8930192
vn 0.3919848 -0.241256 0.8877744
vn 0.3929805 -0.2405216 0.8875334
vn 0.411622 -0.2284068 0.8822685
vn 0.4129596 -0.2276399 0.8818415
vn 0.4347844 -0.2101905 0.8756611
vn 0.436351 -0.2086874 0.8752413
vn 0.4742109 -0.1785272 0.8621207
vn 0.4749783 -0.1780014 0.8618068
vn 0.5227564 -0.1449424 0.8400699
vn 0.5220602 -0.1454268 0.840419
vn 0.5651192 -0.1179882 0.8165287
vn 0.56859 -0.1163119 0.8143567
vn 0.6008466 -0.1074581 0.7921087
vn 0.6034929 -0.1080221 0.7900175
vn 0.6330879 -0.1143464 0.7655877
vn 0.278761 -0.3088947 0.9093274
vn 0.3054399 -0.297664 0.9044902
vn 0.3038027 -0.2986094 0.90473
vn 0.2767389 -0.3083925 0.9101152
vn 0.2615219 -0.3043742 0.9159491
vn 0.2592753 -0.3036553 0.916826
vn 0.2381119 -0.296815 0.9247723
vn -0.3712271 -0.2562874 0.8924725
vn -0.3686075 -0.2581519 0.8930208
vn -0.3357599 -0.2797163 0.8994576
vn -0.3366189 -0.2791978 0.8992977
vn -0.3919813 -0.2412533 0.8877767
vn -0.3929767 -0.2405187 0.887536
vn -0.4116165 -0.2284033 0.8822719
vn -0.4129542 -0.2276367 0.8818449
vn -0.4347821 -0.2101892 0.8756626
vn -0.436349 -0.2086863 0.8752427
vn -0.474209 -0.1785268 0.8621218
vn -0.4749762 -0.1780009 0.8618081
vn -0.5227556 -0.1449426 0.8400703
vn -0.5220592 -0.145427 0.8404196
vn -0.5651212 -0.1179891 0.8165271
vn -0.5685915 -0.1163125 0.8143556
vn -0.6008465 -0.107458 0.7921088
vn -0.6034934 -0.1080221 0.7900171
vn -0.6330977 -0.1143473 0.7655795
vn -0.305432 -0.2976563 0.9044954
vn -0.2787581 -0.3088916 0.9093294
vn -0.3037948 -0.2986015 0.9047353
vn -0.2767381 -0.308392 0.9101155
vn -0.2615349 -0.3043899 0.9159401
vn -0.2592881 -0.3036713 0.9168169
vn -0.2381231 -0.2968346 0.9247631
g Brow_0
f 3/3/3 2/2/2 1/1/1
f 4/4/4 3/3/3 1/1/1
f 4/4/4 1/1/1 5/5/5
f 1/1/1 6/6/6 5/5/5
f 5/5/5 6/6/6 7/7/7
f 6/6/6 8/8/8 7/7/7
f 9/9/9 7/7/7 8/8/8
f 10/10/10 9/9/9 8/8/8
f 11/11/11 9/9/9 10/10/10
f 12/12/12 11/11/11 10/10/10
f 13/13/13 11/11/11 12/12/12
f 14/14/14 13/13/13 12/12/12
f 14/14/14 15/15/15 13/13/13
f 15/15/15 16/16/16 13/13/13
f 16/16/16 15/15/15 17/17/17
f 18/18/18 16/16/16 17/17/17
f 17/17/17 19/19/19 18/18/18
f 22/22/22 21/21/21 20/20/20
f 23/23/23 22/22/22 20/20/20
f 21/21/21 22/22/22 2/2/2
f 3/3/3 21/21/21 2/2/2
f 23/23/23 20/20/20 24/24/24
f 25/25/25 23/23/23 24/24/24
f 24/24/24 26/26/26 25/25/25
f 29/29/29 28/28/28 27/27/27
f 30/30/30 29/29/29 27/27/27
f 27/27/27 28/28/28 31/31/31
f 32/32/32 27/27/27 31/31/31
f 32/32/32 31/31/31 33/33/33
f 34/34/34 32/32/32 33/33/33
f 33/33/33 35/35/35 34/34/34
f 35/35/35 36/36/36 34/34/34
f 35/35/35 37/37/37 36/36/36
f 37/37/37 38/38/38 36/36/36
f 37/37/37 39/39/39 38/38/38
f 39/39/39 40/40/40 38/38/38
f 41/41/41 40/40/40 39/39/39
f 42/42/42 41/41/41 39/39/39
f 41/41/41 42/42/42 43/43/43
f 42/42/42 44/44/44 43/43/43
f 45/45/45 43/43/43 44/44/44
f 46/46/46 29/29/29 30/30/30
f 46/46/46 48/48/48 47/47/47
f 48/48/48 49/49/49 47/47/47
f 48/48/48 46/46/46 30/30/30
f 47/47/47 49/49/49 50/50/50
f 49/49/49 51/51/51 50/50/50
f 52/52/52 50/50/50 51/51/51
