g Brow
v -0.01769131 1.466629 0.1297384
v -0.01998772 1.468606 0.1297713
v -0.01945095 1.469393 0.1300111
v -0.02148161 1.471569 0.1302942
v -0.02248426 1.470399 0.1298998
v -0.02505728 1.471941 0.1299178
v -0.02407419 1.474004 0.130487
v -0.02764597 1.477022 0.1305438
v -0.02824031 1.473371 0.1296727
v -0.03216734 1.474936 0.1289033
v -0.03160622 1.478349 0.1297871
v -0.03579606 1.479753 0.1288227
v -0.03428951 1.481057 0.129553
v -0.03634314 1.480685 0.12875
v -0.03605714 1.481778 0.1292008
v -0.03143883 1.479532 0.1300848
v -0.03850798 1.48272 0.1285914
v -0.0368788 1.476291 0.1274479
v -0.04090507 1.481205 0.1268925
v -0.04161173 1.477476 0.1253758
v -0.04721598 1.478668 0.1227243
v -0.04730712 1.481853 0.1234715
v -0.05246763 1.479674 0.1197701
v -0.05273134 1.482186 0.1201304
v -0.05771928 1.480728 0.1164838
v -0.05815556 1.482395 0.1164573
v -0.06279152 1.482512 0.1126297
v -0.06257338 1.481679 0.1126429
v -0.06742748 1.48263 0.108437
v 0.01769131 1.466629 0.1297384
v 0.01945095 1.469393 0.1300111
v 0.01998772 1.468606 0.1297713
v 0.02148161 1.471569 0.1302942
v 0.02248426 1.470399 0.1298998
v 0.02505728 1.471941 0.1299178
v 0.02407419 1.474004 0.130487
v 0.02764597 1.477022 0.1305438
v 0.02824031 1.473371 0.1296727
v 0.03216734 1.474936 0.1289033
v 0.03160622 1.478349 0.1297871
v 0.03579606 1.479753 0.1288227
v 0.03428951 1.481057 0.129553
v 0.03634314 1.480685 0.12875
v 0.03605714 1.481778 0.1292008
v 0.03143883 1.479532 0.1300848
v 0.03850798 1.48272 0.1285914
v 0.0368788 1.476291 0.1274479
v 0.04090507 1.481205 0.1268925
v 0.04161173 1.477476 0.1253758
v 0.04721598 1.478668 0.1227243
v 0.04730712 1.481853 0.1234715
v 0.05246763 1.479674 0.1197701
v 0.05273134 1.482186 0.1201304
v 0.05771928 1.480728 0.1164838
v 0.05815556 1.482395 0.1164573
v 0.06279152 1.482512 0.1126297
v 0.06257338 1.481679 0.1126429
v 0.06742748 1.48263 0.108437
vt 0.08304 0.992184
vt 0.077586 0.981958
vt 0.072701 0.983321
vt 0.062361 0.974459
vt 0.067905 0.970633
vt 0.06127 0.959577
vt 0.051051 0.963186
vt 0.036651 0.94781
vt 0.054742 0.946165
vt 0.047762 0.929611
vt 0.030849 0.931172
vt 0.02471 0.913569
vt 0.018174 0.919505
vt 0.020223 0.911104
vt 0.015002 0.912052
vt 0.026102 0.93165
vt 0.010603 0.901719
vt 0.042027 0.907172
vt 0.018707 0.895887
vt 0.03806 0.890028
vt 0.032661 0.866698
vt 0.017112 0.865623
vt 0.02801 0.844771
vt 0.016478 0.843162
vt 0.023359 0.822843
vt 0.015844 0.820701
vt 0.015302 0.801504
vt 0.019059 0.802575
vt 0.01476 0.782308
vt 0.08304 0.992184
vt 0.072701 0.983321
vt 0.077586 0.981958
vt 0.062361 0.974459
vt 0.067905 0.970633
vt 0.06127 0.959577
vt 0.051051 0.963186
vt 0.036651 0.94781
vt 0.054742 0.946165
vt 0.047762 0.929611
vt 0.030849 0.931172
vt 0.02471 0.913569
vt 0.018174 0.919505
vt 0.020223 0.911104
vt 0.015002 0.912052
vt 0.026102 0.93165
vt 0.010603 0.901719
vt 0.042027 0.907172
vt 0.018707 0.895887
vt 0.03806 0.890028
vt 0.032661 0.866698
vt 0.017112 0.865623
vt 0.02801 0.844771
vt 0.016478 0.843162
vt 0.023359 0.822843
vt 0.015844 0.820701
vt 0.015302 0.801504
vt 0.019059 0.802575
vt 0.01476 0.782308
vn -0.1513158 -0.1920059 0.9696583
vn -0.1226841 -0.2164043 0.9685648
vn -0.1186676 -0.2197907 0.9683027
vn -0.1194135 -0.2175005 0.968728
vn -0.119482 -0.2174298 0.9687355
vn -0.1462857 -0.2044855 0.9678772
vn -0.1492741 -0.2033773 0.9676543
vn -0.2097511 -0.1965467 0.9577964
vn -0.1936427 -0.1946423 0.96157
vn -0.2856943 -0.2090649 0.9352383
vn -0.2685763 -0.20005 0.9422563
vn -0.3489655 -0.2236696 0.9100522
vn -0.288973 -0.200997 0.9359994
vn -0.3249806 -0.2323853 0.9167249
vn -0.3267973 -0.2438459 0.9130952
vn -0.2749574 -0.1993274 0.9405674
vn -0.3328169 -0.2839639 0.8992204
vn -0.3884762 -0.2452278 0.8882284
vn -0.4439681 -0.2478597 0.8610795
vn -0.450839 -0.2616586 0.8533927
vn -0.4968554 -0.2092955 0.8422174
vn -0.5005955 -0.2021827 0.8417401
vn -0.5297515 -0.180944 0.828627
vn -0.5323431 -0.1783401 0.8275298
vn -0.5733657 -0.1568342 0.8041484
vn -0.5875187 -0.1560317 0.7940252
vn -0.641959 -0.1560405 0.7506931
vn -0.637479 -0.1548049 0.7547555
vn -0.6641819 -0.1621817 0.7297667
vn 0.1513315 -0.1920055 0.9696559
vn 0.1186727 -0.2197992 0.9683002
vn 0.1226905 -0.2164117 0.9685624
vn 0.1194096 -0.2175002 0.9687285
vn 0.119478 -0.2174295 0.9687361
vn 0.1462861 -0.2044874 0.9678767
vn 0.1492757 -0.2033803 0.9676535
vn 0.2097585 -0.1965532 0.9577934
vn 0.1936504 -0.1946493 0.961567
vn 0.2856998 -0.2090693 0.9352356
vn 0.2685781 -0.2000523 0.9422552
vn 0.3489624 -0.2236682 0.9100537
vn 0.2889691 -0.2009954 0.9360009
vn 0.3249696 -0.2323789 0.9167305
vn 0.3267947 -0.2438457 0.9130961
vn 0.2749586 -0.1993294 0.9405666
vn 0.3328431 -0.2839862 0.8992038
vn 0.3884794 -0.2452304 0.8882262
vn 0.4439688 -0.2478604 0.861079
vn 0.4508409 -0.2616602 0.8533912
vn 0.4968472 -0.2092924 0.842223
vn 0.5005877 -0.20218 0.8417454
vn 0.5297385 -0.18094 0.8286361
vn 0.5323303 -0.1783361 0.8275389
vn 0.5733623 -0.1568332 0.8041511
vn 0.5875211 -0.1560323 0.7940233
vn 0.6419707 -0.1560424 0.7506827
vn 0.6374947 -0.1548083 0.7547415
vn 0.6641738 -0.1621763 0.7297753
g Brow_0
f 3/3/3 2/2/2 1/1/1
f 2/2/2 3/3/3 4/4/4
f 5/5/5 2/2/2 4/4/4
f 5/5/5 4/4/4 6/6/6
f 4/4/4 7/7/7 6/6/6
f 6/6/6 7/7/7 8/8/8
f 9/9/9 6/6/6 8/8/8
f 9/9/9 8/8/8 10/10/10
f 8/8/8 11/11/11 10/10/10
f 10/10/10 11/11/11 12/12/12
f 13/13/13 12/12/12 11/11/11
f 14/14/14 12/12/12 13/13/13
f 15/15/15 14/14/14 13/13/13
f 16/16/16 13/13/13 11/11/11
f 8/8/8 16/16/16 11/11/11
f 17/17/17 14/14/14 15/15/15
f 18/18/18 10/10/10 12/12/12
f 12/12/12 19/19/19 18/18/18
f 19/19/19 20/20/20 18/18/18
f 21/21/21 20/20/20 19/19/19
f 22/22/22 21/21/21 19/19/19
f 23/23/23 21/21/21 22/22/22
f 24/24/24 23/23/23 22/22/22
f 25/25/25 23/23/23 24/24/24
f 26/26/26 25/25/25 24/24/24
f 26/26/26 27/27/27 25/25/25
f 27/27/27 28/28/28 25/25/25
f 29/29/29 28/28/28 27/27/27
f 32/32/32 31/31/31 30/30/30
f 31/31/31 32/32/32 33/33/33
f 32/32/32 34/34/34 33/33/33
f 33/33/33 34/34/34 35/35/35
f 36/36/36 33/33/33 35/35/35
f 36/36/36 35/35/35 37/37/37
f 35/35/35 38/38/38 37/37/37
f 37/37/37 38/38/38 39/39/39
f 40/40/40 37/37/37 39/39/39
f 40/40/40 39/39/39 41/41/41
f 41/41/41 42/42/42 40/40/40
f 41/41/41 43/43/43 42/42/42
f 43/43/43 44/44/44 42/42/42
f 42/42/42 45/45/45 40/40/40
f 45/45/45 37/37/37 40/40/40
f 43/43/43 46/46/46 44/44/44
f 39/39/39 47/47/47 41/41/41
f 48/48/48 41/41/41 47/47/47
f 49/49/49 48/48/48 47/47/47
f 49/49/49 50/50/50 48/48/48
f 50/50/50 51/51/51 48/48/48
f 50/50/50 52/52/52 51/51/51
f 52/52/52 53/53/53 51/51/51
f 52/52/52 54/54/54 53/53/53
f 54/54/54 55/55/55 53/53/53
f 56/56/56 55/55/55 54/54/54
f 57/57/57 56/56/56 54/54/54
f 57/57/57 58/58/58 56/56/56
