g EyeStar
v -0.03842968 1.459775 0.1149092
v -0.04002064 1.459748 0.1145119
v -0.04027018 1.466516 0.1153791
v -0.04162031 1.459721 0.1141125
v -0.03993494 1.457423 0.1142141
v -0.04328845 1.457406 0.113382
v -0.04316286 1.453981 0.112943
v -0.03980865 1.453998 0.1137751
v -0.04546731 1.453969 0.1123713
v -0.04553041 1.455591 0.1125783
v -0.04979191 1.453947 0.1112983
v -0.04540413 1.452345 0.112164
v -0.03968235 1.450572 0.1133362
v -0.04303592 1.450556 0.1125043
v -0.03961587 1.448769 0.1131052
v -0.04134014 1.44878 0.1126801
v -0.03934711 1.441479 0.1121712
v -0.03790073 1.448758 0.1135281
v -0.03658138 1.45744 0.115046
v -0.03645444 1.454015 0.1146073
v -0.03632883 1.45059 0.1141683
v -0.03456296 1.455734 0.1153112
v -0.03450325 1.454025 0.1150914
v -0.02982539 1.454048 0.1162519
v -0.03444349 1.452314 0.1148714
v -0.03632883 1.45059 0.1141683
v 0.03842968 1.459775 0.1149092
v 0.04027018 1.466516 0.1153791
v 0.04002064 1.459748 0.1145119
v 0.04162031 1.459721 0.1141125
v 0.03993494 1.457423 0.1142141
v 0.04328845 1.457406 0.113382
v 0.04316286 1.453981 0.112943
v 0.03980865 1.453998 0.1137751
v 0.04546731 1.453969 0.1123713
v 0.04553041 1.455591 0.1125783
v 0.04979191 1.453947 0.1112983
v 0.04540413 1.452345 0.112164
v 0.03968235 1.450572 0.1133362
v 0.04303592 1.450556 0.1125043
v 0.03961587 1.448769 0.1131052
v 0.04134014 1.44878 0.1126801
v 0.03934711 1.441479 0.1121712
v 0.03790073 1.448758 0.1135281
v 0.03658138 1.45744 0.115046
v 0.03645444 1.454015 0.1146073
v 0.03632883 1.45059 0.1141683
v 0.03450325 1.454025 0.1150914
v 0.03645444 1.454015 0.1146073
v 0.03444349 1.452314 0.1148714
v 0.02982539 1.454048 0.1162519
v 0.03456296 1.455734 0.1153112
vt 0.01327405 0.02357727
vt 0.01528899 0.02355974
vt 0.01529131 0.03198526
vt 0.01730208 0.02354437
vt 0.01527981 0.02068416
vt 0.01950059 0.02069476
vt 0.01950023 0.01646024
vt 0.01527271 0.01644467
vt 0.02240259 0.01647573
vt 0.02240544 0.01847896
vt 0.0278725 0.01649179
vt 0.02240256 0.01445314
vt 0.01528285 0.01216874
vt 0.01950748 0.01218126
vt 0.01529218 0.009914619
vt 0.0174646 0.009940623
vt 0.0153051 0.0008593356
vt 0.01311714 0.009894565
vt 0.01101122 0.02068442
vt 0.0110014 0.01645009
vt 0.01100961 0.0121768
vt 0.008502778 0.01858123
vt 0.008503087 0.01646393
vt 0.002559519 0.01649056
vt 0.008508099 0.01433411
vt 0.01100961 0.0121768
vt 0.01327405 0.02357727
vt 0.01529131 0.03198526
vt 0.01528899 0.02355974
vt 0.01730208 0.02354437
vt 0.01527981 0.02068416
vt 0.01950059 0.02069476
vt 0.01950023 0.01646024
vt 0.01527271 0.01644467
vt 0.02240259 0.01647573
vt 0.02240544 0.01847896
vt 0.0278725 0.01649179
vt 0.02240256 0.01445314
vt 0.01528285 0.01216874
vt 0.01950748 0.01218126
vt 0.01529218 0.009914619
vt 0.0174646 0.009940623
vt 0.0153051 0.0008593356
vt 0.01311714 0.009894565
vt 0.01101122 0.02068442
vt 0.0110014 0.01645009
vt 0.01100961 0.0121768
vt 0.008503087 0.01646393
vt 0.0110014 0.01645009
vt 0.008508099 0.01433411
vt 0.002559519 0.01649056
vt 0.008502778 0.01858123
vn -0.2380621 -0.1320677 0.962229
vn -0.2380554 -0.1320665 0.9622308
vn -0.238049 -0.1320647 0.9622326
vn -0.2380486 -0.1320655 0.9622326
vn -0.2380611 -0.1320676 0.9622292
vn -0.2380534 -0.1320664 0.9622313
vn -0.2380531 -0.1320655 0.9622315
vn -0.2380578 -0.1320654 0.9622303
vn -0.2380528 -0.1320671 0.9622314
vn -0.2380601 -0.1320681 0.9622294
vn -0.2380569 -0.1320685 0.9622301
vn -0.2380455 -0.1320661 0.9622332
vn -0.2380538 -0.1320651 0.9622314
vn -0.2380565 -0.132067 0.9622304
vn -0.23805 -0.132063 0.9622326
vn -0.2380455 -0.1320652 0.9622335
vn -0.2380474 -0.1320601 0.9622337
vn -0.2380546 -0.1320608 0.9622317
vn -0.2380579 -0.1320643 0.9622305
vn -0.2380572 -0.1320656 0.9622305
vn -0.2380556 -0.1320667 0.9622307
vn -0.2380442 -0.1320563 0.962235
vn -0.2380512 -0.1320614 0.9622326
vn -0.2380457 -0.1320574 0.9622344
vn -0.2380581 -0.1320666 0.96223
vn -0.2380556 -0.1320667 0.9622307
vn 0.238062 -0.1320678 0.962229
vn 0.2380484 -0.1320648 0.9622327
vn 0.2380553 -0.1320667 0.9622308
vn 0.2380486 -0.1320656 0.9622326
vn 0.238062 -0.1320677 0.962229
vn 0.238054 -0.1320661 0.9622313
vn 0.2380541 -0.1320655 0.9622313
vn 0.2380601 -0.1320664 0.9622297
vn 0.2380539 -0.1320675 0.962231
vn 0.2380615 -0.1320686 0.962229
vn 0.2380607 -0.1320707 0.962229
vn 0.2380463 -0.1320665 0.962233
vn 0.238052 -0.1320639 0.9622321
vn 0.2380523 -0.1320646 0.9622318
vn 0.2380453 -0.1320614 0.962234
vn 0.2380363 -0.1320612 0.9622362
vn 0.238045 -0.1320609 0.9622341
vn 0.2380542 -0.1320615 0.9622317
vn 0.2380587 -0.1320645 0.9622303
vn 0.2380586 -0.1320661 0.96223
vn 0.2380572 -0.1320672 0.9622303
vn 0.2380511 -0.1320613 0.9622326
vn 0.2380586 -0.1320661 0.96223
vn 0.2380583 -0.1320664 0.96223
vn 0.238044 -0.1320566 0.962235
vn 0.2380438 -0.1320562 0.962235
g EyeStar_0
f 3/3/3 2/2/2 1/1/1
f 3/3/3 4/4/4 2/2/2
f 5/5/5 2/2/2 4/4/4
f 1/1/1 2/2/2 5/5/5
f 6/6/6 5/5/5 4/4/4
f 6/6/6 7/7/7 5/5/5
f 7/7/7 8/8/8 5/5/5
f 7/7/7 6/6/6 9/9/9
f 6/6/6 10/10/10 9/9/9
f 11/11/11 9/9/9 10/10/10
f 11/11/11 12/12/12 9/9/9
f 7/7/7 9/9/9 12/12/12
f 13/13/13 8/8/8 7/7/7
f 14/14/14 13/13/13 7/7/7
f 14/14/14 7/7/7 12/12/12
f 13/13/13 14/14/14 15/15/15
f 14/14/14 16/16/16 15/15/15
f 17/17/17 15/15/15 16/16/16
f 17/17/17 18/18/18 15/15/15
f 13/13/13 15/15/15 18/18/18
f 19/19/19 5/5/5 8/8/8
f 20/20/20 19/19/19 8/8/8
f 19/19/19 1/1/1 5/5/5
f 21/21/21 20/20/20 8/8/8
f 13/13/13 21/21/21 8/8/8
f 21/21/21 13/13/13 18/18/18
f 19/19/19 20/20/20 22/22/22
f 20/20/20 23/23/23 22/22/22
f 24/24/24 22/22/22 23/23/23
f 24/24/24 23/23/23 25/25/25
f 26/26/26 25/25/25 23/23/23
f 20/20/20 26/26/26 23/23/23
f 29/29/29 28/28/28 27/27/27
f 30/30/30 28/28/28 29/29/29
f 29/29/29 31/31/31 30/30/30
f 29/29/29 27/27/27 31/31/31
f 31/31/31 32/32/32 30/30/30
f 33/33/33 32/32/32 31/31/31
f 34/34/34 33/33/33 31/31/31
f 32/32/32 33/33/33 35/35/35
f 36/36/36 32/32/32 35/35/35
f 35/35/35 37/37/37 36/36/36
f 38/38/38 37/37/37 35/35/35
f 35/35/35 33/33/33 38/38/38
f 34/34/34 39/39/39 33/33/33
f 39/39/39 40/40/40 33/33/33
f 33/33/33 40/40/40 38/38/38
f 40/40/40 39/39/39 41/41/41
f 42/42/42 40/40/40 41/41/41
f 41/41/41 43/43/43 42/42/42
f 44/44/44 43/43/43 41/41/41
f 41/41/41 39/39/39 44/44/44
f 31/31/31 45/45/45 34/34/34
f 45/45/45 46/46/46 34/34/34
f 27/27/27 45/45/45 31/31/31
f 47/47/47 39/39/39 34/34/34
f 46/46/46 47/47/47 34/34/34
f 39/39/39 47/47/47 44/44/44
f 47/47/47 49/49/49 48/48/48
f 50/50/50 47/47/47 48/48/48
f 48/48/48 51/51/51 50/50/50
f 52/52/52 51/51/51 48/48/48
f 49/49/49 45/45/45 52/52/52
f 48/48/48 49/49/49 52/52/52
