g Equip_CatalystBall_EffectMesh
v 0 0 -0.1585147
v 0.04381239 -0.1348407 -0.07088993
v 0.1417799 0 -0.07088993
v 0.1147023 -0.08333612 0.07088993
v 0.1147023 0.08333612 0.07088993
v -0.04381239 -0.1348407 0.07088993
v -0.1147023 -0.08333609 -0.07088993
v 0 0 -0.1585147
v 0.04381241 0.1348407 -0.07088993
v 0 0 -0.1585147
v -0.04381234 0.1348407 0.07088993
v -0.1147023 0.08333614 -0.07088993
v 0 0 -0.1585147
v -0.1417799 1.907349E-08 0.07088993
v -0.1147023 -0.08333609 -0.07088993
v 0 0 -0.1585147
v -0.04381239 -0.1348407 0.07088993
v 0 0 0.1585147
v 0 0 0.1585147
v 0 0 0.1585147
v 0 0 0.1585147
v 0 0 0.1585147
vt 0.6 1
vt 0.7 0.647584
vt 0.5 0.647584
vt 0.6 0.352416
vt 0.4 0.352416
vt 0.8 0.352416
vt 0.9 0.647584
vt 0.8 1
vt 0.3 0.647584
vt 0.4 1
vt 0.2 0.352416
vt 0.1 0.647584
vt 0.2 1
vt 0 0.352416
vt -0.1 0.647584
vt 0 1
vt -0.2 0.352416
vt 0.7 0
vt -0.1 0
vt 0.1 0
vt 0.3 0
vt 0.5 0
vn 0 0 -1
vn 0.276393 -0.8506508 -0.4472136
vn 0.8944272 0 -0.4472137
vn 0.7236068 -0.5257311 0.4472136
vn 0.7236068 0.525731 0.4472137
vn -0.2763933 -0.8506508 0.4472136
vn -0.7236069 -0.525731 -0.4472136
vn 0 0 -1
vn 0.2763933 0.8506507 -0.4472137
vn 0 0 -1
vn -0.2763931 0.8506508 0.4472137
vn -0.7236068 0.5257313 -0.4472135
vn 0 0 -1
vn -0.8944272 1.295701E-07 0.4472137
vn -0.7236069 -0.525731 -0.4472136
vn 0 0 -1
vn -0.2763933 -0.8506508 0.4472136
vn 0 0 1
vn 0 0 1
vn 0 0 1
vn 0 0 1
vn 0 0 1
g Equip_CatalystBall_EffectMesh_0
f 3/3/3 2/2/2 1/1/1
f 2/2/2 3/3/3 4/4/4
f 5/5/5 4/4/4 3/3/3
f 4/4/4 6/6/6 2/2/2
f 7/7/7 2/2/2 6/6/6
f 2/2/2 7/7/7 8/8/8
f 3/3/3 9/9/9 5/5/5
f 9/9/9 3/3/3 10/10/10
f 11/11/11 5/5/5 9/9/9
f 9/9/9 12/12/12 11/11/11
f 12/12/12 9/9/9 13/13/13
f 14/14/14 11/11/11 12/12/12
f 12/12/12 15/15/15 14/14/14
f 15/15/15 12/12/12 16/16/16
f 17/17/17 14/14/14 15/15/15
f 6/6/6 4/4/4 18/18/18
f 14/14/14 17/17/17 19/19/19
f 11/11/11 14/14/14 20/20/20
f 5/5/5 11/11/11 21/21/21
f 4/4/4 5/5/5 22/22/22
