g Brow
v 0.0245964 1.478869 0.1333247
v 0.02276644 1.477823 0.1336116
v 0.02182052 1.479607 0.1348819
v 0.02301182 1.481831 0.1353662
v 0.02461079 1.48374 0.1353346
v 0.02648605 1.479802 0.132845
v 0.0285767 1.480739 0.1322092
v 0.02678076 1.485332 0.1348248
v 0.0205905 1.476497 0.1337997
v 0.02951946 1.486734 0.1339444
v 0.03109016 1.481862 0.1314618
v 0.0324905 1.487763 0.1327624
v 0.03365792 1.482959 0.1306488
v 0.03594394 1.488649 0.1312448
v 0.03657276 1.484097 0.1296379
v 0.04006173 1.489532 0.1292538
v 0.04051601 1.485389 0.1278978
v 0.044647 1.490313 0.1268915
v 0.04491261 1.486627 0.1258472
v 0.04934131 1.490874 0.1244421
v 0.04940826 1.48777 0.1237158
v 0.05355735 1.491251 0.1220975
v 0.05360705 1.488734 0.1216364
v 0.05778366 1.491553 0.1197073
v 0.05781668 1.489699 0.1195168
v 0.0619294 1.491741 0.1173616
v 0.06194588 1.490663 0.1172473
v 0.06578144 1.491628 0.1151562
v -0.0245964 1.478869 0.1333247
v -0.02301182 1.481831 0.1353662
v -0.02182052 1.479607 0.1348819
v -0.02276644 1.477823 0.1336116
v -0.02461079 1.48374 0.1353346
v -0.02648605 1.479802 0.1328236
v -0.0285767 1.480739 0.1322092
v -0.02678076 1.485332 0.1348248
v -0.0205905 1.476497 0.1337997
v -0.02951946 1.486734 0.1339444
v -0.03109016 1.481862 0.1314618
v -0.0324905 1.487763 0.1327624
v -0.03365792 1.482959 0.1306488
v -0.03594394 1.488649 0.1312448
v -0.03657277 1.484097 0.1296379
v -0.04006173 1.489532 0.1292538
v -0.04051601 1.485389 0.1278978
v -0.044647 1.490313 0.1268915
v -0.04491261 1.486627 0.1258472
v -0.04934131 1.490874 0.1244421
v -0.04940826 1.48777 0.1237158
v -0.05355735 1.491251 0.1220975
v -0.05360704 1.488734 0.1216364
v -0.05778366 1.491553 0.1197073
v -0.05781668 1.489699 0.1195168
v -0.0619294 1.491741 0.1173616
v -0.06194588 1.490663 0.1172473
v -0.06578144 1.491628 0.1151562
vt 0.02635625 0.9482382
vt 0.01716661 0.9440147
vt 0.01179569 0.953742
vt 0.01742852 0.9643404
vt 0.02545271 0.9728826
vt 0.03599252 0.9517566
vt 0.04667195 0.9551729
vt 0.03662405 0.9793524
vt 0.006327312 0.938504
vt 0.05063349 0.984629
vt 0.05929832 0.9594728
vt 0.06587135 0.987955
vt 0.07210278 0.9636429
vt 0.08315354 0.9903206
vt 0.08634914 0.9677821
vt 0.1034095 0.9922026
vt 0.105681 0.9717824
vt 0.1251459 0.9934881
vt 0.126438 0.9754471
vt 0.1467748 0.993821
vt 0.1471298 0.9787204
vt 0.1665111 0.9932106
vt 0.1666842 0.9810238
vt 0.1862116 0.9922749
vt 0.1862321 0.9833369
vt 0.2058526 0.9908147
vt 0.2057767 0.9856501
vt 0.2253239 0.9879414
vt 0.02635625 0.9482382
vt 0.01742852 0.9643404
vt 0.01179569 0.953742
vt 0.01716661 0.9440147
vt 0.02545271 0.9728826
vt 0.03599252 0.9517566
vt 0.04667195 0.9551729
vt 0.03662405 0.9793524
vt 0.006327312 0.938504
vt 0.05063349 0.984629
vt 0.05929832 0.9594728
vt 0.06587135 0.987955
vt 0.07210278 0.9636429
vt 0.08315354 0.9903206
vt 0.08634914 0.9677821
vt 0.1034095 0.9922026
vt 0.105681 0.9717824
vt 0.1251459 0.9934881
vt 0.126438 0.9754471
vt 0.1467748 0.993821
vt 0.1471298 0.9787204
vt 0.1665111 0.9932106
vt 0.1666842 0.9810238
vt 0.1862116 0.9922749
vt 0.1862321 0.9833369
vt 0.2058526 0.9908147
vt 0.2057767 0.9856501
vt 0.2253239 0.9879414
vn 0.3936574 -0.3651473 0.843624
vn 0.3574307 -0.4018093 0.8430851
vn 0.3634439 -0.3964477 0.8430527
vn 0.3982246 -0.3601661 0.8436217
vn 0.4164039 -0.3339765 0.8456167
vn 0.4159659 -0.3347939 0.8455091
vn 0.4174925 -0.3179995 0.8512205
vn 0.4175545 -0.3181373 0.8511387
vn 0.3315111 -0.4243952 0.8426086
vn 0.4178292 -0.3013877 0.8570789
vn 0.4179972 -0.3006989 0.8572389
vn 0.423776 -0.2763105 0.8625929
vn 0.4239507 -0.2755515 0.8627498
vn 0.444087 -0.2479008 0.8610064
vn 0.4439722 -0.2479975 0.8610377
vn 0.4644049 -0.2271965 0.8559847
vn 0.4644988 -0.2270474 0.8559734
vn 0.4682409 -0.2113466 0.8579529
vn 0.4682308 -0.2112857 0.8579735
vn 0.4721817 -0.1892482 0.860947
vn 0.4719631 -0.1897431 0.8609578
vn 0.4808678 -0.1499992 0.863867
vn 0.4808202 -0.1510485 0.8637107
vn 0.4868363 -0.1051215 0.8671446
vn 0.4863892 -0.1065367 0.8672228
vn 0.4938751 -0.08226079 0.865633
vn 0.4938924 -0.08221029 0.865628
vn 0.4932013 -0.08423063 0.8658278
vn -0.3964264 -0.3646588 0.8425379
vn -0.4014597 -0.3596218 0.8423196
vn -0.3634429 -0.3964478 0.843053
vn -0.3574286 -0.4018096 0.8430859
vn -0.4163688 -0.3357453 0.8449333
vn -0.4161655 -0.3364152 0.8447669
vn -0.4165037 -0.3193157 0.8512121
vn -0.4165381 -0.3194761 0.8511352
vn -0.3315041 -0.4243959 0.8426109
vn -0.4178283 -0.3013879 0.8570793
vn -0.4179963 -0.3006991 0.8572392
vn -0.4237778 -0.2763116 0.8625916
vn -0.4239526 -0.2755527 0.8627485
vn -0.4440912 -0.2479028 0.8610036
vn -0.4439765 -0.2479996 0.8610349
vn -0.4644057 -0.2271965 0.8559843
vn -0.4644996 -0.2270473 0.8559729
vn -0.4682381 -0.2113455 0.8579546
vn -0.4682281 -0.2112845 0.8579752
vn -0.472178 -0.1892466 0.8609493
vn -0.4719596 -0.1897415 0.8609602
vn -0.4808689 -0.1499993 0.8638666
vn -0.480821 -0.1510485 0.8637103
vn -0.4868453 -0.1051237 0.8671393
vn -0.4863983 -0.1065389 0.8672174
vn -0.4938877 -0.08226464 0.8656255
vn -0.4939045 -0.08221404 0.8656207
vn -0.4932295 -0.08423794 0.8658109
g Brow_0
f 3/3/3 2/2/2 1/1/1
f 4/4/4 3/3/3 1/1/1
f 4/4/4 1/1/1 5/5/5
f 1/1/1 6/6/6 5/5/5
f 5/5/5 6/6/6 7/7/7
f 8/8/8 5/5/5 7/7/7
f 9/9/9 2/2/2 3/3/3
f 8/8/8 7/7/7 10/10/10
f 7/7/7 11/11/11 10/10/10
f 10/10/10 11/11/11 12/12/12
f 11/11/11 13/13/13 12/12/12
f 12/12/12 13/13/13 14/14/14
f 13/13/13 15/15/15 14/14/14
f 14/14/14 15/15/15 16/16/16
f 15/15/15 17/17/17 16/16/16
f 18/18/18 16/16/16 17/17/17
f 19/19/19 18/18/18 17/17/17
f 20/20/20 18/18/18 19/19/19
f 21/21/21 20/20/20 19/19/19
f 20/20/20 21/21/21 22/22/22
f 21/21/21 23/23/23 22/22/22
f 24/24/24 22/22/22 23/23/23
f 25/25/25 24/24/24 23/23/23
f 26/26/26 24/24/24 25/25/25
f 27/27/27 26/26/26 25/25/25
f 28/28/28 26/26/26 27/27/27
f 31/31/31 30/30/30 29/29/29
f 32/32/32 31/31/31 29/29/29
f 29/29/29 30/30/30 33/33/33
f 34/34/34 29/29/29 33/33/33
f 34/34/34 33/33/33 35/35/35
f 33/33/33 36/36/36 35/35/35
f 32/32/32 37/37/37 31/31/31
f 35/35/35 36/36/36 38/38/38
f 39/39/39 35/35/35 38/38/38
f 39/39/39 38/38/38 40/40/40
f 41/41/41 39/39/39 40/40/40
f 41/41/41 40/40/40 42/42/42
f 43/43/43 41/41/41 42/42/42
f 43/43/43 42/42/42 44/44/44
f 45/45/45 43/43/43 44/44/44
f 44/44/44 46/46/46 45/45/45
f 46/46/46 47/47/47 45/45/45
f 46/46/46 48/48/48 47/47/47
f 48/48/48 49/49/49 47/47/47
f 49/49/49 48/48/48 50/50/50
f 51/51/51 49/49/49 50/50/50
f 50/50/50 52/52/52 51/51/51
f 52/52/52 53/53/53 51/51/51
f 52/52/52 54/54/54 53/53/53
f 54/54/54 55/55/55 53/53/53
f 54/54/54 56/56/56 55/55/55
