g Brow
v 0.02315445 1.145134 0.1189566
v 0.02677928 1.148558 0.1187828
v 0.02789661 1.139542 0.1154597
v 0.02417086 1.140935 0.1171763
v 0.03457846 1.139345 0.1122065
v 0.03452025 1.151932 0.1166012
v 0.04294604 1.142869 0.1088769
v 0.04316853 1.154497 0.1131072
v 0.02244128 1.142264 0.1184318
v 0.04897334 1.155371 0.1106329
v 0.04726376 1.145343 0.1075679
v 0.05478262 1.150983 0.1051812
v 0.05530994 1.15608 0.10696
v 0.06102087 1.156243 0.1030703
v -0.02315445 1.145134 0.1189566
v -0.02417086 1.140935 0.1171763
v -0.02789661 1.139542 0.1154597
v -0.02677928 1.148558 0.1187828
v -0.03457846 1.139345 0.1122065
v -0.03452025 1.151932 0.1166012
v -0.04294604 1.142869 0.1088769
v -0.04316853 1.154497 0.1131072
v -0.02244128 1.142264 0.1184318
v -0.04897334 1.155371 0.1106329
v -0.04726376 1.145343 0.1075679
v -0.05478262 1.150983 0.1051812
v -0.05530994 1.15608 0.10696
v -0.06102087 1.156243 0.1030703
vt 0.1926346 0.950521
vt 0.2112609 0.9407749
vt 0.2056157 0.980582
vt 0.1922421 0.9693534
vt 0.2330315 0.9926801
vt 0.2463878 0.9393598
vt 0.2720077 0.9931906
vt 0.2848605 0.9444343
vt 0.1865239 0.9609742
vt 0.3095757 0.9511284
vt 0.2925647 0.9904299
vt 0.3305479 0.9811978
vt 0.3377026 0.9605409
vt 0.3631918 0.9717863
vt 0.1926346 0.950521
vt 0.1922421 0.9693534
vt 0.2056157 0.980582
vt 0.2112609 0.9407749
vt 0.2330315 0.9926801
vt 0.2463878 0.9393598
vt 0.2720077 0.9931906
vt 0.2848605 0.9444343
vt 0.1865239 0.9609742
vt 0.3095757 0.9511284
vt 0.2925647 0.9904299
vt 0.3305479 0.9811978
vt 0.3377026 0.9605409
vt 0.3631918 0.9717863
vn 0.3269758 -0.2879214 0.9001045
vn 0.3824347 -0.2838396 0.8793059
vn 0.3823173 -0.2838503 0.8793535
vn 0.3273248 -0.2878439 0.9000025
vn 0.4206967 -0.291766 0.8590034
vn 0.4245101 -0.2929329 0.8567272
vn 0.4368789 -0.3041739 0.8465312
vn 0.4343752 -0.306626 0.8469348
vn 0.425487 -0.2639817 0.8656065
vn 0.4630565 -0.3264423 0.8240231
vn 0.4439581 -0.3243077 0.8352998
vn 0.50568 -0.3298977 0.7971545
vn 0.5096544 -0.3295535 0.7947621
vn 0.5384037 -0.3268181 0.7767313
vn -0.3269758 -0.2879214 0.9001045
vn -0.3273248 -0.2878439 0.9000025
vn -0.3823173 -0.2838503 0.8793535
vn -0.3824347 -0.2838396 0.8793059
vn -0.4206967 -0.291766 0.8590034
vn -0.4245101 -0.2929329 0.8567272
vn -0.4368789 -0.3041739 0.8465312
vn -0.4343752 -0.306626 0.8469348
vn -0.425487 -0.2639817 0.8656065
vn -0.4630565 -0.3264423 0.8240231
vn -0.4439581 -0.3243077 0.8352998
vn -0.50568 -0.3298977 0.7971545
vn -0.5096544 -0.3295535 0.7947621
vn -0.5384037 -0.3268181 0.7767313
g Brow_0
f 3/3/3 2/2/2 1/1/1
f 4/4/4 3/3/3 1/1/1
f 3/3/3 5/5/5 2/2/2
f 5/5/5 6/6/6 2/2/2
f 5/5/5 7/7/7 6/6/6
f 7/7/7 8/8/8 6/6/6
f 1/1/1 9/9/9 4/4/4
f 10/10/10 8/8/8 7/7/7
f 11/11/11 10/10/10 7/7/7
f 11/11/11 12/12/12 10/10/10
f 12/12/12 13/13/13 10/10/10
f 14/14/14 13/13/13 12/12/12
f 17/17/17 16/16/16 15/15/15
f 18/18/18 17/17/17 15/15/15
f 19/19/19 17/17/17 18/18/18
f 20/20/20 19/19/19 18/18/18
f 21/21/21 19/19/19 20/20/20
f 22/22/22 21/21/21 20/20/20
f 23/23/23 15/15/15 16/16/16
f 22/22/22 24/24/24 21/21/21
f 24/24/24 25/25/25 21/21/21
f 26/26/26 25/25/25 24/24/24
f 27/27/27 26/26/26 24/24/24
f 27/27/27 28/28/28 26/26/26
