g Brow
v -0.0544338 1.146651 0.1046469
v -0.05100134 1.149404 0.1076174
v -0.05043847 1.145768 0.1066629
v -0.05406196 1.144309 0.1040504
v -0.05952408 1.14176 0.09998517
v -0.04744421 1.151874 0.1104763
v -0.04696077 1.147161 0.1091084
v -0.0432084 1.148599 0.1115501
v -0.04343433 1.154203 0.1132974
v -0.03957256 1.149943 0.1137725
v -0.03992558 1.155897 0.1152942
v -0.03607816 1.157202 0.117251
v -0.03589236 1.151307 0.1158195
v -0.03269759 1.15298 0.1176647
v -0.03331621 1.157335 0.118391
v -0.02999227 1.156191 0.1195204
v 0.0544338 1.146651 0.1046469
v 0.05406196 1.144309 0.1040504
v 0.05043847 1.145768 0.1066629
v 0.05100134 1.149404 0.1076174
v 0.05952408 1.14176 0.09998517
v 0.04744421 1.151874 0.1104763
v 0.04696077 1.147161 0.1091084
v 0.0432084 1.148599 0.1115501
v 0.04343433 1.154203 0.1132974
v 0.03957256 1.149943 0.1137725
v 0.03992558 1.155897 0.1152942
v 0.03607816 1.157202 0.117251
v 0.03589236 1.151307 0.1158195
v 0.03269759 1.15298 0.1176647
v 0.03331621 1.157335 0.118391
v 0.02999227 1.156191 0.1195204
vt 0.1297357 0.9575337
vt 0.1573595 0.9631867
vt 0.1500787 0.9444029
vt 0.1251551 0.9454175
vt 0.08688244 0.9452912
vt 0.1848256 0.9671901
vt 0.1739335 0.9433838
vt 0.1991048 0.9419345
vt 0.2138884 0.969447
vt 0.2260995 0.9402817
vt 0.2422075 0.9690214
vt 0.2618188 0.966697
vt 0.2478113 0.9391899
vt 0.2695755 0.9394382
vt 0.2772683 0.9617247
vt 0.2917013 0.9487883
vt 0.1297357 0.9575337
vt 0.1251551 0.9454175
vt 0.1500787 0.9444029
vt 0.1573595 0.9631867
vt 0.08688244 0.9452912
vt 0.1848256 0.9671901
vt 0.1739335 0.9433838
vt 0.1991048 0.9419345
vt 0.2138884 0.969447
vt 0.2260995 0.9402817
vt 0.2422075 0.9690214
vt 0.2618188 0.966697
vt 0.2478113 0.9391899
vt 0.2695755 0.9394382
vt 0.2772683 0.9617247
vt 0.2917013 0.9487883
vn -0.481533 -0.2893379 0.8272905
vn -0.4723819 -0.290525 0.8321362
vn -0.4756743 -0.2902895 0.8303409
vn -0.4816868 -0.2886342 0.8274468
vn -0.481978 -0.2872975 0.8277423
vn -0.4465663 -0.2882818 0.8470373
vn -0.4554448 -0.2892717 0.8419572
vn -0.4253872 -0.2802438 0.8605285
vn -0.414647 -0.2742405 0.867675
vn -0.397297 -0.2566271 0.8810775
vn -0.393617 -0.249527 0.8847609
vn -0.3859237 -0.2294873 0.8935314
vn -0.3870151 -0.2339267 0.8919067
vn -0.3823527 -0.2166329 0.898263
vn -0.3818314 -0.2153586 0.8987911
vn -0.3772471 -0.2042183 0.9033158
vn 0.4815376 -0.2893406 0.8272868
vn 0.4816922 -0.288637 0.8274426
vn 0.4756751 -0.29029 0.8303403
vn 0.4723807 -0.2905244 0.832137
vn 0.481985 -0.2873006 0.8277372
vn 0.446567 -0.2882815 0.847037
vn 0.455444 -0.2892707 0.8419579
vn 0.4253882 -0.2802437 0.8605279
vn 0.4146475 -0.2742403 0.8676749
vn 0.3972952 -0.2566263 0.8810785
vn 0.3936144 -0.249526 0.8847623
vn 0.3859214 -0.2294868 0.8935327
vn 0.387012 -0.2339259 0.8919083
vn 0.382352 -0.2166332 0.8982633
vn 0.3818307 -0.2153589 0.8987914
vn 0.3772458 -0.2042189 0.9033163
g Brow_0
f 3/3/3 2/2/2 1/1/1
f 4/4/4 3/3/3 1/1/1
f 5/5/5 4/4/4 1/1/1
f 2/2/2 3/3/3 6/6/6
f 3/3/3 7/7/7 6/6/6
f 6/6/6 7/7/7 8/8/8
f 9/9/9 6/6/6 8/8/8
f 8/8/8 10/10/10 9/9/9
f 10/10/10 11/11/11 9/9/9
f 11/11/11 10/10/10 12/12/12
f 10/10/10 13/13/13 12/12/12
f 12/12/12 13/13/13 14/14/14
f 15/15/15 12/12/12 14/14/14
f 15/15/15 14/14/14 16/16/16
f 19/19/19 18/18/18 17/17/17
f 20/20/20 19/19/19 17/17/17
f 18/18/18 21/21/21 17/17/17
f 19/19/19 20/20/20 22/22/22
f 23/23/23 19/19/19 22/22/22
f 23/23/23 22/22/22 24/24/24
f 22/22/22 25/25/25 24/24/24
f 26/26/26 24/24/24 25/25/25
f 27/27/27 26/26/26 25/25/25
f 26/26/26 27/27/27 28/28/28
f 29/29/29 26/26/26 28/28/28
f 29/29/29 28/28/28 30/30/30
f 28/28/28 31/31/31 30/30/30
f 30/30/30 31/31/31 32/32/32
