g EyeStar
v -0.04559541 1.112179 0.09163518
v -0.04848835 1.111988 0.09068576
v -0.04895834 1.117778 0.09120938
v -0.05139704 1.111796 0.08973116
v -0.04809254 1.107006 0.09024531
v -0.05419423 1.106685 0.08825212
v -0.05366907 1.100307 0.08766478
v -0.04756605 1.100627 0.08965825
v -0.05786202 1.100086 0.08629521
v -0.05811736 1.103107 0.08657127
v -0.06273639 1.099831 0.08470307
v -0.05760641 1.097063 0.08601891
v -0.04703954 1.094247 0.08907117
v -0.05314141 1.093928 0.08707823
v -0.04672739 1.090296 0.08872388
v -0.04986639 1.090167 0.08770289
v -0.04617375 1.083476 0.08810709
v -0.04360505 1.090424 0.08973958
v -0.04199066 1.107325 0.09223823
v -0.04146302 1.100947 0.09165169
v -0.04093785 1.094568 0.09106435
v -0.03791285 1.101133 0.09281133
v -0.03765596 1.097947 0.09251619
v -0.03239569 1.101423 0.09461345
v -0.03816952 1.104317 0.09310618
v 0.04559541 1.112179 0.09163518
v 0.04895835 1.117778 0.09120938
v 0.04848835 1.111988 0.09068576
v 0.05139704 1.111796 0.08973116
v 0.04809254 1.107006 0.09024531
v 0.05419423 1.106685 0.08825212
v 0.05366907 1.100307 0.08766478
v 0.04756605 1.100627 0.08965825
v 0.05786201 1.100086 0.08629521
v 0.05811735 1.103107 0.08657127
v 0.06273639 1.099831 0.08470307
v 0.05760642 1.097063 0.08601891
v 0.04703955 1.094247 0.08907117
v 0.05314142 1.093928 0.08707823
v 0.04672739 1.090296 0.08872388
v 0.04986639 1.090167 0.08770289
v 0.04617375 1.083476 0.08810709
v 0.04360505 1.090424 0.08973958
v 0.04199066 1.107325 0.09223823
v 0.04146302 1.100947 0.09165169
v 0.04093785 1.094568 0.09106435
v 0.03791285 1.101133 0.09281133
v 0.03765596 1.097947 0.09251619
v 0.03239569 1.101423 0.09461345
v 0.03816951 1.104317 0.09310618
vt 0.01434984 0.02459079
vt 0.01636218 0.02459079
vt 0.01636218 0.03302488
vt 0.01838357 0.02459079
vt 0.01636218 0.02173483
vt 0.02059163 0.02173483
vt 0.02059163 0.01755156
vt 0.01636218 0.01755156
vt 0.02345156 0.01755156
vt 0.02344816 0.01955444
vt 0.02893557 0.01755156
vt 0.02345703 0.01554546
vt 0.01636218 0.01322802
vt 0.02059163 0.01322802
vt 0.01636218 0.01095737
vt 0.01855302 0.01095737
vt 0.01636218 0.001938171
vt 0.01417818 0.01095737
vt 0.01202267 0.02173483
vt 0.01202267 0.01755156
vt 0.01202267 0.01322802
vt 0.009548405 0.01755156
vt 0.00954541 0.01541426
vt 0.003616581 0.01755156
vt 0.00955593 0.01968319
vt 0.01434984 0.02459079
vt 0.01636218 0.03302488
vt 0.01636218 0.02459079
vt 0.01838357 0.02459079
vt 0.01636218 0.02173483
vt 0.02059163 0.02173483
vt 0.02059163 0.01755156
vt 0.01636218 0.01755156
vt 0.02345156 0.01755156
vt 0.02344816 0.01955444
vt 0.02893557 0.01755156
vt 0.02345703 0.01554546
vt 0.01636218 0.01322802
vt 0.02059163 0.01322802
vt 0.01636218 0.01095737
vt 0.01855302 0.01095737
vt 0.01636218 0.001938171
vt 0.01417818 0.01095737
vt 0.01202267 0.02173483
vt 0.01202267 0.01755156
vt 0.01202267 0.01322802
vt 0.009548405 0.01755156
vt 0.00954541 0.01541426
vt 0.003616581 0.01755156
vt 0.00955593 0.01968319
vn -0.3033567 -0.1102265 0.9464802
vn -0.3033446 -0.1102252 0.9464843
vn -0.3033448 -0.1102252 0.9464842
vn -0.3033328 -0.1102238 0.9464881
vn -0.3032129 -0.1121012 0.9463061
vn -0.3032141 -0.1121051 0.9463052
vn -0.3032134 -0.1121027 0.9463058
vn -0.3032151 -0.1121029 0.9463052
vn -0.3032246 -0.1121146 0.9463007
vn -0.3032236 -0.1121177 0.9463007
vn -0.3032246 -0.1121146 0.9463007
vn -0.3032255 -0.1121116 0.9463007
vn -0.3032173 -0.1121047 0.9463043
vn -0.3032128 -0.1121003 0.9463062
vn -0.3033451 -0.1102206 0.9464846
vn -0.303329 -0.1102208 0.9464899
vn -0.3033453 -0.1102206 0.9464846
vn -0.3033615 -0.1102203 0.9464794
vn -0.3032117 -0.1120973 0.9463069
vn -0.3032167 -0.1121031 0.9463046
vn -0.3032218 -0.112109 0.9463024
vn -0.3032169 -0.1120969 0.9463053
vn -0.303211 -0.1120952 0.9463075
vn -0.3032169 -0.1120969 0.9463052
vn -0.3032229 -0.1120987 0.9463032
vn 0.3033573 -0.1102261 0.94648
vn 0.3033439 -0.1102246 0.9464845
vn 0.3033438 -0.1102246 0.9464846
vn 0.3033305 -0.110223 0.946489
vn 0.3032158 -0.1121024 0.946305
vn 0.3032182 -0.1121069 0.9463037
vn 0.3032165 -0.1121035 0.9463047
vn 0.3032162 -0.1121032 0.9463048
vn 0.3032213 -0.1121133 0.9463019
vn 0.3032192 -0.1121168 0.9463022
vn 0.3032213 -0.1121133 0.9463021
vn 0.3032235 -0.1121098 0.9463017
vn 0.3032167 -0.112104 0.9463046
vn 0.3032148 -0.1121002 0.9463057
vn 0.3033447 -0.1102208 0.9464847
vn 0.3033295 -0.1102205 0.9464896
vn 0.3033449 -0.1102208 0.9464847
vn 0.3033602 -0.1102212 0.9464797
vn 0.3032133 -0.1120978 0.9463063
vn 0.3032159 -0.1121028 0.9463049
vn 0.3032185 -0.1121077 0.9463035
vn 0.3032187 -0.1120981 0.9463046
vn 0.3032146 -0.1120972 0.9463061
vn 0.3032187 -0.1120981 0.9463046
vn 0.3032228 -0.112099 0.9463032
g EyeStar_0
f 3/3/3 2/2/2 1/1/1
f 3/3/3 4/4/4 2/2/2
f 5/5/5 2/2/2 4/4/4
f 1/1/1 2/2/2 5/5/5
f 6/6/6 5/5/5 4/4/4
f 6/6/6 7/7/7 5/5/5
f 7/7/7 8/8/8 5/5/5
f 7/7/7 6/6/6 9/9/9
f 6/6/6 10/10/10 9/9/9
f 11/11/11 9/9/9 10/10/10
f 11/11/11 12/12/12 9/9/9
f 7/7/7 9/9/9 12/12/12
f 13/13/13 8/8/8 7/7/7
f 14/14/14 13/13/13 7/7/7
f 14/14/14 7/7/7 12/12/12
f 13/13/13 14/14/14 15/15/15
f 14/14/14 16/16/16 15/15/15
f 17/17/17 15/15/15 16/16/16
f 17/17/17 18/18/18 15/15/15
f 13/13/13 15/15/15 18/18/18
f 19/19/19 5/5/5 8/8/8
f 20/20/20 19/19/19 8/8/8
f 19/19/19 1/1/1 5/5/5
f 21/21/21 20/20/20 8/8/8
f 13/13/13 21/21/21 8/8/8
f 21/21/21 13/13/13 18/18/18
f 20/20/20 21/21/21 22/22/22
f 21/21/21 23/23/23 22/22/22
f 24/24/24 22/22/22 23/23/23
f 24/24/24 25/25/25 22/22/22
f 20/20/20 22/22/22 25/25/25
f 19/19/19 20/20/20 25/25/25
f 28/28/28 27/27/27 26/26/26
f 29/29/29 27/27/27 28/28/28
f 28/28/28 30/30/30 29/29/29
f 28/28/28 26/26/26 30/30/30
f 30/30/30 31/31/31 29/29/29
f 32/32/32 31/31/31 30/30/30
f 33/33/33 32/32/32 30/30/30
f 31/31/31 32/32/32 34/34/34
f 35/35/35 31/31/31 34/34/34
f 34/34/34 36/36/36 35/35/35
f 37/37/37 36/36/36 34/34/34
f 34/34/34 32/32/32 37/37/37
f 33/33/33 38/38/38 32/32/32
f 38/38/38 39/39/39 32/32/32
f 32/32/32 39/39/39 37/37/37
f 39/39/39 38/38/38 40/40/40
f 41/41/41 39/39/39 40/40/40
f 40/40/40 42/42/42 41/41/41
f 43/43/43 42/42/42 40/40/40
f 40/40/40 38/38/38 43/43/43
f 30/30/30 44/44/44 33/33/33
f 44/44/44 45/45/45 33/33/33
f 26/26/26 44/44/44 30/30/30
f 46/46/46 38/38/38 33/33/33
f 45/45/45 46/46/46 33/33/33
f 38/38/38 46/46/46 43/43/43
f 46/46/46 45/45/45 47/47/47
f 48/48/48 46/46/46 47/47/47
f 47/47/47 49/49/49 48/48/48
f 50/50/50 49/49/49 47/47/47
f 45/45/45 44/44/44 50/50/50
f 47/47/47 45/45/45 50/50/50
