g Brow
v 0.0503787 1.154191 0.1091584
v 0.05856908 1.152948 0.1038287
v 0.05788932 1.15041 0.1031359
v 0.04966828 1.150959 0.1082426
v 0.0660961 1.149225 0.09733555
v 0.06644884 1.150619 0.09778132
v 0.07244583 1.147586 0.0920757
v 0.04410127 1.154711 0.1127055
v 0.04308662 1.151005 0.1116311
v 0.03554899 1.153942 0.1161315
v 0.03927189 1.154815 0.1149827
v 0.03786078 1.150547 0.1140113
v 0.03282281 1.149805 0.11575
v 0.04308662 1.151005 0.1116311
v 0.04410127 1.154711 0.1127055
v 0.03280072 1.151935 0.116514
v 0.03431363 1.153128 0.1163216
v 0.0319357 1.149319 0.1160513
v 0.03066821 1.148833 0.1164341
v -0.03280072 1.151935 0.116514
v -0.03066821 1.148833 0.1164341
v -0.0319357 1.149319 0.1160513
v -0.03431363 1.153128 0.1163216
v -0.0503787 1.154191 0.1091584
v -0.04966828 1.150959 0.1082426
v -0.05788932 1.15041 0.1031359
v -0.05856908 1.152948 0.1038287
v -0.0660961 1.149225 0.09733555
v -0.06644884 1.150619 0.09778132
v -0.07244583 1.147586 0.0920757
v -0.04410127 1.154711 0.1127055
v -0.04308662 1.151005 0.1116311
v -0.03554899 1.153942 0.1161315
v -0.03282281 1.149805 0.11575
v -0.03786078 1.150547 0.1140113
v -0.03927189 1.154815 0.1149827
v -0.04308662 1.151005 0.1116311
v -0.04410127 1.154711 0.1127055
vt 0.398685 0.9915986
vt 0.420595 0.9911441
vt 0.4208922 0.9836805
vt 0.3997427 0.9823498
vt 0.4414177 0.98365
vt 0.4415399 0.9881245
vt 0.4597869 0.9821596
vt 0.3816638 0.9905953
vt 0.3831088 0.9800946
vt 0.3595006 0.9832484
vt 0.3707421 0.9880088
vt 0.3721353 0.9770596
vt 0.3611607 0.9732024
vt 0.3831088 0.9800946
vt 0.3816638 0.9905953
vt 0.3520524 0.9779441
vt 0.3557765 0.9805962
vt 0.3572661 0.9711887
vt 0.3533714 0.969175
vt 0.3520524 0.9779441
vt 0.3533714 0.969175
vt 0.3572661 0.9711887
vt 0.3557765 0.9805962
vt 0.398685 0.9915986
vt 0.3997427 0.9823498
vt 0.4208922 0.9836805
vt 0.420595 0.9911441
vt 0.4414177 0.98365
vt 0.4415399 0.9881245
vt 0.4597869 0.9821596
vt 0.3816638 0.9905953
vt 0.3831088 0.9800946
vt 0.3595006 0.9832484
vt 0.3611607 0.9732024
vt 0.3721353 0.9770596
vt 0.3707421 0.9880088
vt 0.3831088 0.9800946
vt 0.3816638 0.9905953
vn 0.4560527 -0.3436829 0.820913
vn 0.4867019 -0.3479598 0.8012773
vn 0.4876233 -0.3486921 0.8003982
vn 0.4565865 -0.3436151 0.8206446
vn 0.5090103 -0.364075 0.779973
vn 0.5062391 -0.3624492 0.7825295
vn 0.5311581 -0.3770269 0.7587633
vn 0.4208614 -0.3439879 0.8393736
vn 0.4190296 -0.3436293 0.8404363
vn 0.3489197 -0.3139065 0.8830163
vn 0.3858778 -0.3317493 0.8608372
vn 0.3746494 -0.326362 0.8678281
vn 0.3489197 -0.3139065 0.8830163
vn 0.4190296 -0.3436293 0.8404363
vn 0.4208614 -0.3439879 0.8393736
vn 0.350932 -0.2744306 0.8952847
vn 0.350932 -0.2744306 0.8952847
vn 0.350932 -0.2744306 0.8952847
vn 0.3509319 -0.2744306 0.8952847
vn -0.3509136 -0.274416 0.8952963
vn -0.3509136 -0.274416 0.8952963
vn -0.3509136 -0.274416 0.8952963
vn -0.3509136 -0.274416 0.8952963
vn -0.4560529 -0.3436829 0.8209128
vn -0.4565867 -0.3436152 0.8206444
vn -0.4876238 -0.3486919 0.800398
vn -0.4867027 -0.3479597 0.8012768
vn -0.5090082 -0.3640732 0.7799752
vn -0.506236 -0.3624469 0.7825327
vn -0.5311645 -0.3770304 0.7587571
vn -0.4208604 -0.3439876 0.8393742
vn -0.419029 -0.3436292 0.8404366
vn -0.3489166 -0.313904 0.8830184
vn -0.3489166 -0.313904 0.8830184
vn -0.3746494 -0.3263617 0.8678282
vn -0.385879 -0.3317498 0.8608364
vn -0.419029 -0.3436292 0.8404366
vn -0.4208604 -0.3439876 0.8393742
g Brow_0
f 3/3/3 2/2/2 1/1/1
f 4/4/4 3/3/3 1/1/1
f 3/3/3 5/5/5 2/2/2
f 5/5/5 6/6/6 2/2/2
f 7/7/7 6/6/6 5/5/5
f 1/1/1 8/8/8 4/4/4
f 8/8/8 9/9/9 4/4/4
f 12/12/12 11/11/11 10/10/10
f 13/13/13 12/12/12 10/10/10
f 12/12/12 14/14/14 11/11/11
f 14/14/14 15/15/15 11/11/11
f 18/18/18 17/17/17 16/16/16
f 19/19/19 18/18/18 16/16/16
f 22/22/22 21/21/21 20/20/20
f 23/23/23 22/22/22 20/20/20
f 26/26/26 25/25/25 24/24/24
f 27/27/27 26/26/26 24/24/24
f 28/28/28 26/26/26 27/27/27
f 29/29/29 28/28/28 27/27/27
f 29/29/29 30/30/30 28/28/28
f 31/31/31 24/24/24 25/25/25
f 32/32/32 31/31/31 25/25/25
f 35/35/35 34/34/34 33/33/33
f 36/36/36 35/35/35 33/33/33
f 37/37/37 35/35/35 36/36/36
f 38/38/38 37/37/37 36/36/36
